<svg width="120" height="120" viewBox="0 0 120 120" fill="none" xmlns="http://www.w3.org/2000/svg">
<g clip-path="url(#clip0_3001_5996)">
<rect width="120" height="120" fill="white"/>
<path d="M58.4712 101.91L38.4672 90.3681C37.4763 89.7752 36.2329 90.5137 36.2329 91.6601V104.601C36.2329 105.145 36.534 105.65 36.9808 105.893L58.481 118.387C58.9282 118.64 59.5304 118.64 59.9772 118.387L108.544 90.3681C109.535 89.7752 109.535 88.3277 108.544 87.784L97.2455 81.2648C96.7983 81.0123 96.1961 81.0123 95.7493 81.2648L59.9674 101.92C59.5108 102.163 58.967 102.163 58.4712 101.91Z" fill="#212A42"/>
<path d="M21.9409 80.759V38.6624C21.9409 38.1183 22.2421 37.613 22.6888 37.37L58.4703 16.7151C58.9175 16.4627 59.5198 16.4627 59.9666 16.7151L95.7485 37.3704C96.1953 37.6228 96.7975 37.6228 97.2447 37.3704L108.543 30.8512C109.534 30.2584 109.534 28.8108 108.543 28.2671L59.9666 0.189628C59.5198 -0.0632092 58.9175 -0.0632092 58.4703 0.189628L8.40709 29.1025C7.96031 29.355 7.65918 29.8505 7.65918 30.3946V88.2204C7.65918 88.7646 7.96031 89.2699 8.40709 89.5125L19.7062 96.0317C20.6972 96.6241 21.9405 95.886 21.9405 94.7396L21.9409 80.759Z" fill="#212A42"/>
<path d="M80.3303 47.2063L87.8887 42.7471C88.8216 42.1931 88.8216 40.872 87.8887 40.3086L61.2494 24.9292C60.3166 24.3752 59.1411 25.065 59.1411 26.1435V92.5187C59.1411 93.5972 60.3166 94.3066 61.2494 93.7334L87.8887 78.3441C88.8216 77.8294 88.8216 76.469 87.8887 75.9056L80.3303 71.4461C79.9126 71.1646 79.3394 71.1646 78.9217 71.4461L71.4116 75.76C70.4791 76.3136 69.3033 75.6238 69.3033 74.5453V44.1071C69.3033 43.0286 70.4791 42.3196 71.4116 42.8928L78.9217 47.2063C79.3492 47.4395 79.9126 47.4395 80.3303 47.2063Z" fill="#212A42"/>
<path d="M47.0738 73.1901V45.4236C47.0738 44.2772 45.8305 43.5289 44.8395 44.1315L33.5404 50.6503C33.0936 50.9032 32.7925 51.3986 32.7925 51.9424V66.7294C32.7925 67.2736 33.0936 67.7785 33.5404 68.0215L44.8395 74.5407C45.8305 75.0844 47.0738 74.3365 47.0738 73.1901Z" fill="#212A42"/>
<path d="M111.069 73.1901V45.4236C111.069 44.2772 109.826 43.5289 108.835 44.1315L97.5355 50.6503C97.0887 50.9032 96.7876 51.3986 96.7876 51.9424V66.7294C96.7876 67.2736 97.0887 67.7785 97.5355 68.0215L108.835 74.5407C109.826 75.0844 111.069 74.3365 111.069 73.1901Z" fill="#212A42"/>
</g>
<defs>
<clipPath id="clip0_3001_5996">
<rect width="120" height="120" fill="white"/>
</clipPath>
</defs>
</svg>
