<svg width="27" height="27" viewBox="0 0 27 27" fill="none" xmlns="http://www.w3.org/2000/svg">
<path d="M11.2475 22.3242L7.97731 21.0022L5.23587 22.947L2.83885 20.4526L4.86014 18.1077L3.21458 15.0149L0.521851 14.4896V10.6244L3.58683 10.4261L5.30892 7.58033L3.38853 5.13809L5.58377 2.99156L7.65376 4.68582L11.2475 3.29075L11.745 0.521484H14.6639L15.3632 3.33946L17.9828 4.56406L20.4529 2.86632L22.7978 4.93631L21.2253 7.65687L23.0448 10.9723" stroke="#212A42" stroke-width="1.04369" stroke-linecap="round" stroke-linejoin="round"/>
<path d="M12.246 17.6109C12.246 17.6109 9.93248 17.3326 8.85399 15.0399C7.45544 12.0724 9.45238 7.53229 14.0412 8.42987C16.9809 9.0039 17.7323 12.622 17.7323 12.622" stroke="#212A42" stroke-width="1.04369" stroke-linecap="round" stroke-linejoin="round"/>
<path d="M13.8395 14.7471L25.5219 26.1094" stroke="#212A42" stroke-width="1.04369" stroke-linecap="round" stroke-linejoin="round"/>
<path d="M25.522 14.6045L13.6309 26.1095" stroke="#212A42" stroke-width="1.04369" stroke-linecap="round" stroke-linejoin="round"/>
</svg>
