<svg width="24" height="25" viewBox="0 0 24 25" fill="none" xmlns="http://www.w3.org/2000/svg">
<path d="M0.594912 11.232C0.594912 11.232 -0.438714 4.809 6.81479 1.87859C13.0238 -0.631125 18.4639 3.95671 18.4639 3.95671L22.3046 0.543945L22.2176 10.5755L11.8669 10.59L15.004 7.13012C15.004 7.13012 13.8326 6.22706 12.1933 6.06749C10.554 5.90791 6.44124 6.04572 6.67698 11.4641" stroke="#212A42" stroke-width="1.08803" stroke-linecap="round" stroke-linejoin="round"/>
<path d="M22.4933 12.8893C22.4933 12.8893 23.5269 19.3123 16.2734 22.2427C10.0644 24.7524 4.6243 20.1646 4.6243 20.1646L0.783569 23.5774L0.870608 13.5458L11.2214 13.5313L8.08422 16.9912C8.08422 16.9912 9.25566 17.8943 10.8949 18.0538C12.5342 18.2134 16.647 18.0756 16.4112 12.6572" stroke="#212A42" stroke-width="1.08803" stroke-linecap="round" stroke-linejoin="round"/>
</svg>
