<svg width="24" height="25" viewBox="0 0 24 25" fill="none" xmlns="http://www.w3.org/2000/svg">
<path d="M21.9108 2.34961H1.35753C0.915882 2.34961 0.557861 2.70763 0.557861 3.14927V22.7578C0.557861 23.1995 0.915882 23.5575 1.35753 23.5575H21.9108C22.3524 23.5575 22.7105 23.1995 22.7105 22.7578V3.14927C22.7105 2.70763 22.3524 2.34961 21.9108 2.34961Z" stroke="#212A42" stroke-width="1.11581" stroke-linecap="round" stroke-linejoin="round"/>
<path d="M0.557861 8.2793H22.7067" stroke="#212A42" stroke-width="1.11581" stroke-linecap="round" stroke-linejoin="round"/>
<path d="M4.21753 0.557617V4.9502" stroke="#212A42" stroke-width="1.11581" stroke-linecap="round" stroke-linejoin="round"/>
<path d="M19.0729 0.557617V4.9502" stroke="#212A42" stroke-width="1.11581" stroke-linecap="round" stroke-linejoin="round"/>
<path d="M8.44682 11.4482H7.52441V12.3707H8.44682V11.4482Z" stroke="#212A42" stroke-width="1.11581" stroke-linecap="round" stroke-linejoin="round"/>
<path d="M15.4949 11.4482H14.5725V12.3707H15.4949V11.4482Z" stroke="#212A42" stroke-width="1.11581" stroke-linecap="round" stroke-linejoin="round"/>
<path d="M19.0245 11.4482H18.1021V12.3707H19.0245V11.4482Z" stroke="#212A42" stroke-width="1.11581" stroke-linecap="round" stroke-linejoin="round"/>
<path d="M11.9986 11.4482H11.0762V12.3707H11.9986V11.4482Z" stroke="#212A42" stroke-width="1.11581" stroke-linecap="round" stroke-linejoin="round"/>
<path d="M8.44682 14.9033H7.52441V15.8257H8.44682V14.9033Z" stroke="#212A42" stroke-width="1.11581" stroke-linecap="round" stroke-linejoin="round"/>
<path d="M15.4949 14.9033H14.5725V15.8257H15.4949V14.9033Z" stroke="#212A42" stroke-width="1.11581" stroke-linecap="round" stroke-linejoin="round"/>
<path d="M19.0245 14.9033H18.1021V15.8257H19.0245V14.9033Z" stroke="#212A42" stroke-width="1.11581" stroke-linecap="round" stroke-linejoin="round"/>
<path d="M11.9986 14.9033H11.0762V15.8257H11.9986V14.9033Z" stroke="#212A42" stroke-width="1.11581" stroke-linecap="round" stroke-linejoin="round"/>
<path d="M4.99138 18.3584H4.06897V19.2808H4.99138V18.3584Z" stroke="#212A42" stroke-width="1.11581" stroke-linecap="round" stroke-linejoin="round"/>
<path d="M12.0395 18.3584H11.1171V19.2808H12.0395V18.3584Z" stroke="#212A42" stroke-width="1.11581" stroke-linecap="round" stroke-linejoin="round"/>
<path d="M4.99138 14.9033H4.06897V15.8257H4.99138V14.9033Z" stroke="#212A42" stroke-width="1.11581" stroke-linecap="round" stroke-linejoin="round"/>
<path d="M8.5435 18.3584H7.62109V19.2808H8.5435V18.3584Z" stroke="#212A42" stroke-width="1.11581" stroke-linecap="round" stroke-linejoin="round"/>
</svg>
