<svg width="30" height="23" viewBox="0 0 30 23" fill="none" xmlns="http://www.w3.org/2000/svg">
<path d="M20.6201 1.13658V21.0158C20.6201 21.3228 20.8581 21.5762 21.1498 21.5762H28.2701C28.5618 21.5762 28.7998 21.3267 28.7998 21.0158V1.13658C28.7998 0.82951 28.5618 0.576172 28.2701 0.576172H21.1498C20.8581 0.576172 20.6201 0.825672 20.6201 1.13658Z" stroke="#212A42" stroke-width="1.15153" stroke-linecap="round" stroke-linejoin="round"/>
<path d="M22.7772 4.08789H26.6425" stroke="#212A42" stroke-width="1.15153" stroke-linecap="round" stroke-linejoin="round"/>
<path d="M22.7772 6.2998H26.6425" stroke="#212A42" stroke-width="1.15153" stroke-linecap="round" stroke-linejoin="round"/>
<path d="M22.7772 8.375H26.6425" stroke="#212A42" stroke-width="1.15153" stroke-linecap="round" stroke-linejoin="round"/>
<path d="M24.8808 17.1963H24.1669V17.9486H24.8808V17.1963Z" stroke="#212A42" stroke-width="1.15153" stroke-linecap="round" stroke-linejoin="round"/>
<path d="M8.17972 16.9278H1.31662C0.909751 16.9278 0.575806 16.5939 0.575806 16.1832V1.32083C0.575806 0.910115 0.905913 0.576172 1.31662 0.576172H17.9754C18.3822 0.576172 18.7162 0.910115 18.7162 1.32083V16.1832C18.7162 16.5939 18.3861 16.9278 17.9754 16.9278H11.7686" stroke="#212A42" stroke-width="1.15153" stroke-linecap="round" stroke-linejoin="round"/>
<path d="M15.1503 3.37793H4.14555C3.73852 3.37793 3.40857 3.70788 3.40857 4.11491V13.3924C3.40857 13.7994 3.73852 14.1293 4.14555 14.1293H15.1503C15.5573 14.1293 15.8873 13.7994 15.8873 13.3924V4.11491C15.8873 3.70788 15.5573 3.37793 15.1503 3.37793Z" stroke="#212A42" stroke-width="1.15153" stroke-linecap="round" stroke-linejoin="round"/>
<path d="M8.17973 16.9277L5.15506 20.1904C4.66758 20.7163 5.03606 21.5761 5.75385 21.5761H14.3481C15.0735 21.5761 15.442 20.6971 14.9353 20.175L11.7878 16.9277" stroke="#212A42" stroke-width="1.15153" stroke-linecap="round" stroke-linejoin="round"/>
</svg>
