<svg width="29" height="20" viewBox="0 0 29 20" fill="none" xmlns="http://www.w3.org/2000/svg">
<path d="M0.525635 2.23544V0.525391H18.7966V12.7411H0.525635V5.90435" stroke="#212A42" stroke-width="1.05126" stroke-linecap="round" stroke-linejoin="round"/>
<path d="M6.48978 18.5973C8.0632 18.5973 9.33871 17.3217 9.33871 15.7483C9.33871 14.1749 8.0632 12.8994 6.48978 12.8994C4.91637 12.8994 3.64087 14.1749 3.64087 15.7483C3.64087 17.3217 4.91637 18.5973 6.48978 18.5973Z" stroke="#212A42" stroke-width="1.05126" stroke-linecap="round" stroke-linejoin="round"/>
<path d="M6.48991 16.3048C6.79762 16.3048 7.04708 16.0553 7.04708 15.7476C7.04708 15.4399 6.79762 15.1904 6.48991 15.1904C6.18219 15.1904 5.93274 15.4399 5.93274 15.7476C5.93274 16.0553 6.18219 16.3048 6.48991 16.3048Z" stroke="#212A42" stroke-width="1.05126" stroke-linecap="round" stroke-linejoin="round"/>
<path d="M20.7273 18.5973C22.3008 18.5973 23.5763 17.3217 23.5763 15.7483C23.5763 14.1749 22.3008 12.8994 20.7273 12.8994C19.1539 12.8994 17.8784 14.1749 17.8784 15.7483C17.8784 17.3217 19.1539 18.5973 20.7273 18.5973Z" stroke="#212A42" stroke-width="1.05126" stroke-linecap="round" stroke-linejoin="round"/>
<path d="M20.7272 16.3048C21.0349 16.3048 21.2844 16.0553 21.2844 15.7476C21.2844 15.4399 21.0349 15.1904 20.7272 15.1904C20.4195 15.1904 20.17 15.4399 20.17 15.7476C20.17 16.0553 20.4195 16.3048 20.7272 16.3048Z" stroke="#212A42" stroke-width="1.05126" stroke-linecap="round" stroke-linejoin="round"/>
<path d="M19.1331 3.8125H23.5168L27.5256 7.82482V16.1473H24.1931" stroke="#212A42" stroke-width="1.05126" stroke-linecap="round" stroke-linejoin="round"/>
<path d="M21.1725 4.52051V10.5793H27.2453" stroke="#212A42" stroke-width="1.05126" stroke-linecap="round" stroke-linejoin="round"/>
<path d="M9.521 16.1475H17.4966" stroke="#212A42" stroke-width="1.05126" stroke-linecap="round" stroke-linejoin="round"/>
<path d="M3.37798 16.1467H1.37708V13.084" stroke="#212A42" stroke-width="1.05126" stroke-linecap="round" stroke-linejoin="round"/>
<path d="M11.5393 13.0635V16.1472" stroke="#212A42" stroke-width="1.05126" stroke-linecap="round" stroke-linejoin="round"/>
<path d="M15.2257 13.0635V16.1472" stroke="#212A42" stroke-width="1.05126" stroke-linecap="round" stroke-linejoin="round"/>
</svg>
