<svg width="26" height="28" viewBox="0 0 26 28" fill="none" xmlns="http://www.w3.org/2000/svg">
<path d="M9.15264 7.51758L8.86662 9.54172L6.38411 10.5685L4.46631 9.68106L2.7612 11.4925L3.64859 12.985L2.8492 15.3905L0.561049 15.6435L0.550049 18.412L2.64386 18.841L3.75493 21.5729L2.79787 23.773L4.46631 25.3351L6.49045 23.9857L8.93629 24.7668L9.44965 27.1099H12.2769L12.8379 24.7631L15.2654 23.8024L17.3922 24.7961L18.9543 23.4137L18.0669 21.0375L18.7343 18.4487L20.9344 18.093V15.6801" stroke="#212A42" stroke-width="1.10008" stroke-linecap="round" stroke-linejoin="round"/>
<path d="M10.4251 20.2523C12.1506 20.2523 13.5493 18.8536 13.5493 17.1281C13.5493 15.4027 12.1506 14.0039 10.4251 14.0039C8.69966 14.0039 7.3009 15.4027 7.3009 17.1281C7.3009 18.8536 8.69966 20.2523 10.4251 20.2523Z" stroke="#212A42" stroke-width="1.10008" stroke-miterlimit="10"/>
<path d="M23.9266 12.0969H19.5997C19.5447 12.0969 19.4933 12.1153 19.4457 12.1483L16.4681 14.3484C16.2995 14.4731 16.0574 14.3521 16.0611 14.1431L16.0684 12.3536C16.0684 12.2106 15.9548 12.0969 15.8118 12.0969H12.4492C12.1045 12.0969 11.8221 11.8146 11.8221 11.4699V1.17685C11.8221 0.83216 12.1045 0.549805 12.4492 0.549805H23.923C24.2677 0.549805 24.55 0.83216 24.55 1.17685V11.4699C24.55 11.8146 24.2677 12.0969 23.923 12.0969H23.9266Z" stroke="#212A42" stroke-width="1.10008" stroke-miterlimit="10"/>
<path d="M16.2189 4.8698C16.2189 4.8698 16.3032 2.875 18.0817 2.875C19.5594 2.875 20.1571 3.65239 20.1571 5.2255C20.1571 6.7986 18.045 8.2177 18.045 8.2177" stroke="#212A42" stroke-width="1.10008" stroke-linecap="round" stroke-linejoin="round"/>
<path d="M18.1072 10.084H18.0632V10.128H18.1072V10.084Z" stroke="#212A42" stroke-width="1.10008" stroke-linecap="round" stroke-linejoin="round"/>
</svg>
