<svg width="27" height="23" viewBox="0 0 27 23" fill="none" xmlns="http://www.w3.org/2000/svg">
<path d="M25.5118 12.1182H21.4418V21.2372H25.5118V12.1182Z" stroke="#212A42" stroke-width="1.02347" stroke-linecap="round" stroke-linejoin="round"/>
<path d="M12.575 11.879C15.714 11.879 18.2586 9.33436 18.2586 6.19537C18.2586 3.05638 15.714 0.511719 12.575 0.511719C9.43601 0.511719 6.89136 3.05638 6.89136 6.19537C6.89136 9.33436 9.43601 11.879 12.575 11.879Z" stroke="#212A42" stroke-width="1.02347" stroke-linecap="round" stroke-linejoin="round"/>
<path d="M11.6948 9.61036V2.69856C11.6948 2.69856 14.6083 2.28576 14.7823 4.10071C15.0962 7.38262 9.94812 6.26022 9.94812 6.26022" stroke="#212A42" stroke-width="1.02347" stroke-linecap="round" stroke-linejoin="round"/>
<path d="M10.1356 8.23535H14.134" stroke="#212A42" stroke-width="1.02347" stroke-linecap="round" stroke-linejoin="round"/>
<path d="M20.9505 13.2406C20.9505 13.2406 17.0443 12.6777 15.2668 13.9195C13.4894 15.1613 10.3849 14.96 10.3849 14.96C10.3849 14.96 7.6659 14.3152 7.57037 16.8909C7.47485 19.4666 14.0012 18.6206 14.0012 18.6206" stroke="#212A42" stroke-width="1.02347" stroke-linecap="round" stroke-linejoin="round"/>
<path d="M21.0323 19.6098C21.0323 19.6098 17.9789 19.8383 16.7167 20.5923C15.4544 21.3462 13.6838 22.0115 11.8927 22.032C10.1017 22.0524 7.46794 21.1723 5.84063 20.0328C4.21332 18.8933 1.95828 17.2899 0.706241 15.3726C0.272974 14.7108 0.655068 13.8374 0.962107 13.544C1.55913 12.9743 3.00221 14.2229 4.52718 15.3146C5.96685 16.3449 7.50888 17.208 7.50888 17.208" stroke="#212A42" stroke-width="1.02347" stroke-linecap="round" stroke-linejoin="round"/>
<path d="M2.65417 13.1713C2.65417 13.1713 2.91004 12.1206 4.15185 12.4242C5.39365 12.7278 8.38217 15.2251 8.38217 15.2251" stroke="#212A42" stroke-width="1.02347" stroke-linecap="round" stroke-linejoin="round"/>
<path d="M4.92297 11.8752C4.92297 11.8752 5.80998 11.4862 6.56393 11.6978C7.31788 11.9093 10.6169 14.7067 10.6169 14.7067" stroke="#212A42" stroke-width="1.02347" stroke-linecap="round" stroke-linejoin="round"/>
</svg>
