<svg width="109" height="83" viewBox="0 0 109 83" fill="none" xmlns="http://www.w3.org/2000/svg">
<g clip-path="url(#clip0_1101_378)">
<path d="M85.0005 40.1401L97.4913 35.3592L103.388 50.7641L90.8968 55.545C87.7679 56.7426 84.2559 55.1748 83.0584 52.046L81.4992 47.9724C80.3016 44.8436 81.8693 41.3316 84.9982 40.134L85.0005 40.1401Z" stroke="white" stroke-width="2.62759" stroke-linecap="round" stroke-linejoin="round"/>
<path d="M23.1498 44.6897L81.9349 22.1895C86.9962 20.2523 92.6799 22.7894 94.6172 27.8508L105.022 55.0347C106.959 60.096 104.422 65.7797 99.3607 67.717L49.7474 86.7067C44.686 88.6439 39.0023 86.1068 37.0651 81.0454L23.1475 44.6836L23.1498 44.6897Z" stroke="white" stroke-width="2.62759" stroke-linecap="round" stroke-linejoin="round"/>
<path d="M55.8323 28.565L58.4228 4.55216L87.8012 7.21312L86.3161 17.6851" stroke="white" stroke-width="2.62759" stroke-linecap="round" stroke-linejoin="round"/>
<path d="M53.8542 9.24728L48.7421 8.7914L46.7225 31.5026" stroke="white" stroke-width="2.62759" stroke-linecap="round" stroke-linejoin="round"/>
<path d="M44.4011 16.2494L39.2889 15.7935L37.5755 35.0043" stroke="white" stroke-width="2.62759" stroke-linecap="round" stroke-linejoin="round"/>
<path d="M23.3868 45.3082C23.3868 45.3082 19.1218 36.3338 25.2849 30.88C26.656 29.6659 30.8647 28.2942 30.8647 28.2942" stroke="white" stroke-width="2.62759" stroke-linecap="round" stroke-linejoin="round"/>
<path d="M79.864 7.4797C79.864 7.4797 78.8621 9.95222 80.4841 12.7568C82.1062 15.5613 85.8571 15.8419 85.8571 15.8419" stroke="white" stroke-width="2.62759" stroke-linecap="round" stroke-linejoin="round"/>
<path d="M58.5736 12.5547C58.5736 12.5547 61.0461 13.5567 63.8507 11.9346C66.6552 10.3125 66.9358 6.56166 66.9358 6.56166" stroke="white" stroke-width="2.62759" stroke-linecap="round" stroke-linejoin="round"/>
<path d="M62.6607 25.1984C62.8067 21.5553 65.1868 18.2177 68.8608 17.0295C72.3239 15.915 75.9649 17.0113 78.251 19.5477" stroke="white" stroke-width="2.62759" stroke-linecap="round" stroke-linejoin="round"/>
<path d="M92.451 49.0213C93.847 48.487 94.5455 46.9223 94.0112 45.5263C93.4769 44.1303 91.9121 43.4318 90.5161 43.9661C89.1202 44.5005 88.4217 46.0652 88.956 47.4612C89.4903 48.8572 91.0551 49.5557 92.451 49.0213Z" stroke="white" stroke-width="2.62759" stroke-linecap="round" stroke-linejoin="round"/>
</g>
<defs>
<clipPath id="clip0_1101_378">
<rect width="103.79" height="98.5347" fill="white" transform="translate(0 17.1011) rotate(-20.9445)"/>
</clipPath>
</defs>
</svg>
