<svg width="96" height="83" viewBox="0 0 96 83" fill="none" xmlns="http://www.w3.org/2000/svg">
<g clip-path="url(#clip0_1104_408)">
<path d="M72.8495 12.3625L14.3875 34.3452C9.82114 36.0622 7.5113 41.1558 9.22831 45.7222L22.6771 81.4888C24.3941 86.0551 29.4878 88.365 34.0541 86.6479L92.5161 64.6653C97.0825 62.9483 99.3923 57.8546 97.6753 53.2883L84.2265 17.5217C82.5095 12.9554 77.4158 10.6455 72.8495 12.3625Z" stroke="white" stroke-width="2.55297" stroke-linecap="round" stroke-linejoin="round"/>
<path d="M50.8611 15.8844L78.2104 -0.890758C81.8994 -3.10294 86.7331 -1.65432 88.9993 2.34164L108.325 36.3483C110.6 40.348 109.452 45.3823 105.763 47.5945L101.857 49.9361" stroke="white" stroke-width="2.55297" stroke-linecap="round" stroke-linejoin="round"/>
<path d="M10.6283 47.3228L84.9215 19.3873" stroke="white" stroke-width="2.55297" stroke-linecap="round" stroke-linejoin="round"/>
<path d="M14.7909 58.3931L89.0841 30.4577" stroke="white" stroke-width="2.55297" stroke-linecap="round" stroke-linejoin="round"/>
<path d="M23.7793 64.5801L41.5282 57.9062" stroke="white" stroke-width="2.55297" stroke-linecap="round" stroke-linejoin="round"/>
<path d="M26.4479 71.6772L50.8698 62.4942" stroke="white" stroke-width="2.55297" stroke-linecap="round" stroke-linejoin="round"/>
<path d="M80.1769 51.76C78.8268 52.2677 77.8985 53.4077 77.5441 54.7683C76.3893 53.982 74.9317 53.7323 73.5815 54.24C71.2995 55.0981 70.1955 57.7838 71.1188 60.2391C72.042 62.6945 74.642 63.9874 76.9241 63.1293C78.2742 62.6217 79.2025 61.4817 79.5569 60.1211C80.7117 60.9074 82.1693 61.1571 83.5194 60.6494C85.8015 59.7913 86.9055 57.1056 85.9822 54.6502C85.059 52.1949 82.459 50.9019 80.1769 51.76Z" stroke="white" stroke-width="2.55297" stroke-linecap="round" stroke-linejoin="round"/>
</g>
<defs>
<clipPath id="clip0_1104_408">
<rect width="100.842" height="70.2066" fill="white" transform="translate(0 26.4922) rotate(-20.607)"/>
</clipPath>
</defs>
</svg>
