<svg width="83" height="83" viewBox="0 0 83 83" fill="none" xmlns="http://www.w3.org/2000/svg">
<g clip-path="url(#clip0_1104_385)">
<path d="M46.3313 5.81125L16.7711 19.1689C14.4598 20.2134 13.4327 22.9338 14.4772 25.2451L33.1489 66.565C34.1933 68.8763 36.9137 69.9033 39.225 68.8589L68.7852 55.5012C71.0965 54.4568 72.1235 51.7364 71.0791 49.4251L52.4074 8.10514C51.363 5.79382 48.6426 4.76681 46.3313 5.81125Z" stroke="white" stroke-width="2.77072" stroke-linecap="round" stroke-linejoin="round"/>
<path d="M38.0974 -3.81496L14.9189 6.65897C8.25685 9.66941 5.29665 17.5105 8.3071 24.1726L32.8461 78.4768C35.8566 85.1388 43.6977 88.099 50.3597 85.0886L73.5382 74.6147C80.2003 71.6042 83.1605 63.7631 80.15 57.1011L55.611 2.79684C52.6006 -3.8652 44.7595 -6.82541 38.0974 -3.81496Z" stroke="white" stroke-width="2.77072" stroke-linecap="round" stroke-linejoin="round"/>
<path d="M59.8269 76.5681C62.553 75.3362 63.7644 72.1275 62.5325 69.4013C61.3006 66.6751 58.0919 65.4638 55.3657 66.6957C52.6396 67.9276 51.4282 71.1363 52.6601 73.8624C53.892 76.5886 57.1007 77.8 59.8269 76.5681Z" stroke="white" stroke-width="2.77072" stroke-linecap="round" stroke-linejoin="round"/>
<path d="M22.2252 10.7832L29.2381 7.61421" stroke="white" stroke-width="2.77072" stroke-linecap="round" stroke-linejoin="round"/>
<path d="M33.1519 5.84619L36.1123 4.50843" stroke="white" stroke-width="2.77072" stroke-linecap="round" stroke-linejoin="round"/>
</g>
<defs>
<clipPath id="clip0_1104_385">
<rect width="56.107" height="90.0483" fill="white" transform="translate(0 11.1045) rotate(-24.3173)"/>
</clipPath>
</defs>
</svg>
