<svg width="71" height="78" viewBox="0 0 71 78" fill="none" xmlns="http://www.w3.org/2000/svg">
<path d="M20.8175 55.8726C13.8001 51.4076 9.14514 43.5606 9.14514 34.6306C9.14514 20.7353 20.4121 9.47461 34.3011 9.47461C48.1901 9.47461 59.4571 20.7416 59.4571 34.6306C59.4571 38.0253 58.7858 41.2679 57.5635 44.2256" stroke="white" stroke-width="2.53333" stroke-linecap="round" stroke-linejoin="round"/>
<path d="M13.8826 59.9643C6.49164 53.9983 1.76697 44.8657 1.76697 34.631C1.76697 16.6633 16.3336 2.09033 34.3076 2.09033C52.2816 2.09033 66.8483 16.657 66.8483 34.631C66.8483 39.3367 65.8476 43.8143 64.049 47.8487" stroke="white" stroke-width="2.53333" stroke-linecap="round" stroke-linejoin="round"/>
<path d="M34.3074 19.7341C36.0073 19.7341 37.3854 18.3561 37.3854 16.6561C37.3854 14.9562 36.0073 13.5781 34.3074 13.5781C32.6074 13.5781 31.2294 14.9562 31.2294 16.6561C31.2294 18.3561 32.6074 19.7341 34.3074 19.7341Z" stroke="white" stroke-width="2.53333" stroke-linecap="round" stroke-linejoin="round"/>
<path d="M16.3337 37.7082C18.0337 37.7082 19.4117 36.3302 19.4117 34.6302C19.4117 32.9303 18.0337 31.5522 16.3337 31.5522C14.6338 31.5522 13.2557 32.9303 13.2557 34.6302C13.2557 36.3302 14.6338 37.7082 16.3337 37.7082Z" stroke="white" stroke-width="2.53333" stroke-linecap="round" stroke-linejoin="round"/>
<path d="M52.2753 37.7082C53.9752 37.7082 55.3533 36.3302 55.3533 34.6302C55.3533 32.9303 53.9752 31.5522 52.2753 31.5522C50.5753 31.5522 49.1973 32.9303 49.1973 34.6302C49.1973 36.3302 50.5753 37.7082 52.2753 37.7082Z" stroke="white" stroke-width="2.53333" stroke-linecap="round" stroke-linejoin="round"/>
<path d="M47.3542 21.3311C46.3788 20.4001 44.7891 20.4001 43.8138 21.3311L32.4962 32.0977C31.9832 32.5854 31.7488 33.2314 31.7742 33.8711C31.7742 33.8964 31.7678 33.9281 31.7678 33.9534V52.2124C31.7678 53.5297 32.8888 54.5937 34.2695 54.5937C35.6502 54.5937 36.7712 53.5297 36.7712 52.2124V34.7704L47.3542 24.7004C48.3295 23.7694 48.3295 22.2621 47.3542 21.3311Z" stroke="white" stroke-width="2.53333" stroke-linecap="round" stroke-linejoin="round"/>
<path d="M58.1272 64.233C66.0602 64.233 72.4912 61.6271 72.4912 58.4126C72.4912 55.1981 66.0602 52.5923 58.1272 52.5923C50.1942 52.5923 43.7632 55.1981 43.7632 58.4126C43.7632 61.6271 50.1942 64.233 58.1272 64.233Z" stroke="white" stroke-width="2.53333" stroke-linecap="round" stroke-linejoin="round"/>
<path d="M72.4914 60.0908V64.2328C72.4914 67.4501 66.0567 70.0532 58.1274 70.0532C55.651 70.0532 53.3267 69.7998 51.2937 69.3502" stroke="white" stroke-width="2.53333" stroke-linecap="round" stroke-linejoin="round"/>
<path d="M72.4914 65.8921V70.0341C72.4914 73.2514 66.0567 75.8544 58.1274 75.8544C55.651 75.8544 53.3267 75.6011 51.2937 75.1514" stroke="white" stroke-width="2.53333" stroke-linecap="round" stroke-linejoin="round"/>
<path d="M72.4914 71.5352V75.6772C72.4914 78.8945 66.0567 81.4975 58.1274 81.4975C55.651 81.4975 53.3267 81.2442 51.2937 80.7945" stroke="white" stroke-width="2.53333" stroke-linecap="round" stroke-linejoin="round"/>
<path d="M28.7282 75.4046C37.032 75.4046 43.7635 72.6768 43.7635 69.3119C43.7635 65.947 37.032 63.2192 28.7282 63.2192C20.4244 63.2192 13.6929 65.947 13.6929 69.3119C13.6929 72.6768 20.4244 75.4046 28.7282 75.4046Z" stroke="white" stroke-width="2.53333" stroke-linecap="round" stroke-linejoin="round"/>
<path d="M43.7635 70.8069V75.1452C43.7635 78.5082 37.0312 81.2379 28.7282 81.2379C20.4252 81.2379 13.6929 78.5082 13.6929 75.1452V70.4839" stroke="white" stroke-width="2.53333" stroke-linecap="round" stroke-linejoin="round"/>
<path d="M43.7635 76.6335V80.9719C43.7635 84.3349 37.0312 87.0645 28.7282 87.0645C20.4252 87.0645 13.6929 84.3349 13.6929 80.9719V76.3105" stroke="white" stroke-width="2.53333" stroke-linecap="round" stroke-linejoin="round"/>
</svg>
