<svg width="81" height="83" viewBox="0 0 81 83" fill="none" xmlns="http://www.w3.org/2000/svg">
<g clip-path="url(#clip0_1104_399)">
<path d="M72.0307 80.908L37.0572 94.3331C34.0424 95.4904 30.6511 93.9856 29.4915 90.9646L4.79394 26.6253C3.63664 23.6104 5.14144 20.2192 8.16241 19.0596L46.4138 4.37627C49.4286 3.21897 52.8198 4.72377 53.9795 7.74474L76.9986 67.7116L72.0284 80.9019L72.0307 80.908Z" stroke="white" stroke-width="2.62016" stroke-linecap="round" stroke-linejoin="round"/>
<path d="M75.7365 67.4949C75.7365 67.4949 68.6127 70.0119 68.0406 71.1717C67.4684 72.3316 71.2079 80.5928 71.2079 80.5928" stroke="white" stroke-width="2.62016" stroke-linecap="round" stroke-linejoin="round"/>
<path d="M6.29541 30.5195L54.9917 11.8268" stroke="white" stroke-width="2.62016" stroke-linecap="round" stroke-linejoin="round"/>
<path d="M16.2783 39.3794L41.0698 29.8628" stroke="white" stroke-width="2.62016" stroke-linecap="round" stroke-linejoin="round"/>
<path d="M46.1272 27.9209L53.5695 25.064" stroke="white" stroke-width="2.62016" stroke-linecap="round" stroke-linejoin="round"/>
<path d="M21.7058 53.5181L46.4973 44.0015" stroke="white" stroke-width="2.62016" stroke-linecap="round" stroke-linejoin="round"/>
<path d="M51.5547 42.0601L58.997 39.2032" stroke="white" stroke-width="2.62016" stroke-linecap="round" stroke-linejoin="round"/>
<path d="M26.7996 66.7886L51.5911 57.272" stroke="white" stroke-width="2.62016" stroke-linecap="round" stroke-linejoin="round"/>
<path d="M56.6487 55.3301L64.091 52.4732" stroke="white" stroke-width="2.62016" stroke-linecap="round" stroke-linejoin="round"/>
<path d="M16.2783 39.3794L41.0698 29.8628" stroke="white" stroke-width="2.62016" stroke-linecap="round" stroke-linejoin="round"/>
<path d="M46.1272 27.9209L53.5695 25.064" stroke="white" stroke-width="2.62016" stroke-linecap="round" stroke-linejoin="round"/>
<path d="M68.3306 63.5179L52.8955 69.4429" stroke="white" stroke-width="2.62016" stroke-linecap="round" stroke-linejoin="round"/>
</g>
<defs>
<clipPath id="clip0_1104_399">
<rect width="56.9885" height="83.8451" fill="white" transform="translate(0 20.3691) rotate(-21)"/>
</clipPath>
</defs>
</svg>
