<svg width="90" height="83" viewBox="0 0 90 83" fill="none" xmlns="http://www.w3.org/2000/svg">
<g clip-path="url(#clip0_1111_252)">
<path d="M76.9098 15.8088C79.1338 14.9551 82.7533 16.4636 83.9476 19.5749L98.0683 56.3606C99.2649 59.4779 97.6532 62.9876 94.465 64.2115L32.1204 88.1433C28.9381 89.3649 25.3837 87.8314 24.1894 84.7201L10.0686 47.9344C8.87205 44.8172 10.4837 41.3074 13.672 40.0836L30.7428 33.5307" stroke="white" stroke-width="2.53435" stroke-linecap="round" stroke-linejoin="round"/>
<path d="M34.6109 56.0366C37.7307 54.839 39.289 51.3391 38.0914 48.2193C36.8938 45.0995 33.3939 43.5413 30.2741 44.7388C27.1543 45.9364 25.5961 49.4363 26.7936 52.5561C27.9912 55.6759 31.4911 57.2342 34.6109 56.0366Z" stroke="white" stroke-width="2.53435" stroke-linecap="round" stroke-linejoin="round"/>
<path d="M28.6166 79.3696L55.0273 69.2314C55.0273 69.2314 52.8486 53.6373 36.5432 59.7267C20.2319 65.8184 28.6226 79.3673 28.6226 79.3673L28.6166 79.3696Z" stroke="white" stroke-width="2.53435" stroke-linecap="round" stroke-linejoin="round"/>
<path d="M56.2322 46.6108L82.4595 36.5431" stroke="white" stroke-width="2.53435" stroke-linecap="round" stroke-linejoin="round"/>
<path d="M59.1362 54.1758L85.3636 44.108" stroke="white" stroke-width="2.53435" stroke-linecap="round" stroke-linejoin="round"/>
<path d="M62.0403 61.7412L88.2676 51.6735" stroke="white" stroke-width="2.53435" stroke-linecap="round" stroke-linejoin="round"/>
<path d="M73.218 25.9403L66.7588 28.4198L58.7548 37.7834L56.5021 32.357L41.5074 38.1129C40.6142 38.4557 39.6074 38.0075 39.2645 37.1143L32.1395 18.5529C31.7966 17.6597 32.2449 16.6529 33.1381 16.31L64.8487 4.13743C65.7418 3.79458 66.7487 4.24285 67.0915 5.13602L74.2166 23.6975C74.5594 24.5906 74.1112 25.5975 73.218 25.9403Z" stroke="white" stroke-width="2.53435" stroke-linecap="round" stroke-linejoin="round"/>
<path d="M40.5437 21.8828L63.4349 13.0957" stroke="white" stroke-width="2.53435" stroke-linecap="round" stroke-linejoin="round"/>
<path d="M42.8506 27.8921L47.7896 25.9962" stroke="white" stroke-width="2.53435" stroke-linecap="round" stroke-linejoin="round"/>
<path d="M51.8296 24.4453L56.7687 22.5494" stroke="white" stroke-width="2.53435" stroke-linecap="round" stroke-linejoin="round"/>
<path d="M60.5247 21.1079L65.4637 19.212" stroke="white" stroke-width="2.53435" stroke-linecap="round" stroke-linejoin="round"/>
</g>
<defs>
<clipPath id="clip0_1111_252">
<rect width="83" height="70.3282" fill="white" transform="translate(0 27.3271) rotate(-21)"/>
</clipPath>
</defs>
</svg>
