<svg width="124" height="76" viewBox="0 0 124 76" fill="none" xmlns="http://www.w3.org/2000/svg">
<path d="M25.2821 61.4955H16.4647C14.3639 61.4955 12.6621 59.7986 12.6621 57.7038V5.79168C12.6621 3.69687 14.3639 2 16.4647 2H84.8806C86.9815 2 88.6832 3.69687 88.6832 5.79168V57.7038C88.6832 59.7986 86.9815 61.4955 84.8806 61.4955H47.4725" stroke="#162640" stroke-width="4" stroke-linecap="round" stroke-linejoin="round"/>
<path d="M82.3205 52.7256H52.7734" stroke="#162640" stroke-width="4" stroke-linecap="round" stroke-linejoin="round"/>
<path d="M23.347 52.7256H2" stroke="#162640" stroke-width="4" stroke-linecap="round" stroke-linejoin="round"/>
<path d="M30.8164 45.2773H7.35352" stroke="#162640" stroke-width="4" stroke-linecap="round" stroke-linejoin="round"/>
<path d="M37.202 29.4418L46.9305 39.2326C47.7211 40.0285 49.0012 40.0285 49.7918 39.2326L71.4777 17.4061C72.2533 16.6252 72.2533 15.3638 71.4777 14.583L69.8663 12.9612C69.0757 12.1653 67.7956 12.1653 67.005 12.9612L50.0554 30.0199C49.2647 30.8158 47.9847 30.8158 47.194 30.0199L41.9232 24.7116C41.1325 23.9157 39.8374 23.9157 39.0543 24.7191L37.1869 26.6262C36.4189 27.4071 36.4189 28.661 37.1944 29.4418H37.202Z" stroke="#162640" stroke-width="4" stroke-linecap="round" stroke-linejoin="round"/>
<path d="M36.622 73.7936C42.3775 73.7936 47.0432 69.1412 47.0432 63.4022C47.0432 57.6631 42.3775 53.0107 36.622 53.0107C30.8665 53.0107 26.2007 57.6631 26.2007 63.4022C26.2007 69.1412 30.8665 73.7936 36.622 73.7936Z" stroke="#162640" stroke-width="4" stroke-linecap="round" stroke-linejoin="round"/>
<path d="M36.622 67.2317C38.7428 67.2317 40.4622 65.5173 40.4622 63.4025C40.4622 61.2876 38.7428 59.5732 36.622 59.5732C34.5011 59.5732 32.7817 61.2876 32.7817 63.4025C32.7817 65.5173 34.5011 67.2317 36.622 67.2317Z" stroke="#162640" stroke-width="4" stroke-linecap="round" stroke-linejoin="round"/>
<path d="M103.63 73.6051C109.386 73.6051 114.052 68.9527 114.052 63.2137C114.052 57.4747 109.386 52.8223 103.63 52.8223C97.8747 52.8223 93.209 57.4747 93.209 63.2137C93.209 68.9527 97.8747 73.6051 103.63 73.6051Z" stroke="#162640" stroke-width="4" stroke-linecap="round" stroke-linejoin="round"/>
<path d="M103.63 67.0432C105.751 67.0432 107.47 65.3288 107.47 63.214C107.47 61.0992 105.751 59.3848 103.63 59.3848C101.509 59.3848 99.79 61.0992 99.79 63.214C99.79 65.3288 101.509 67.0432 103.63 67.0432Z" stroke="#162640" stroke-width="4" stroke-linecap="round" stroke-linejoin="round"/>
<path d="M85.2349 61.4961H92.7873" stroke="#162640" stroke-width="4" stroke-linecap="round" stroke-linejoin="round"/>
<path d="M114.593 61.4959H121.528V39.3766C121.528 39.3766 121.431 36.0429 118.373 33.9406C115.316 31.8383 112.636 32.1311 112.636 32.1311H89.0146" stroke="#162640" stroke-width="4" stroke-linecap="round" stroke-linejoin="round"/>
<path d="M89.0139 8.68164H106.513C106.513 8.68164 109.713 9.1847 110.986 11.6624C112.13 13.9074 112.966 17.594 112.966 17.594H88.6826" stroke="#162640" stroke-width="4" stroke-linecap="round" stroke-linejoin="round"/>
<path d="M109.714 18.21L113.344 31.7549" stroke="#162640" stroke-width="4" stroke-linecap="round" stroke-linejoin="round"/>
<path d="M21.2688 36.71H4.05566" stroke="#162640" stroke-width="4" stroke-linecap="round" stroke-linejoin="round"/>
<path d="M120.949 39.7207H112.417V44.8338L116.303 48.7156H121.521" stroke="#162640" stroke-width="4" stroke-linecap="round" stroke-linejoin="round"/>
</svg>
