<svg width="117" height="82" viewBox="0 0 117 82" fill="none" xmlns="http://www.w3.org/2000/svg">
<path d="M85.3281 13.9907L15.3628 10.98C9.89795 10.7448 5.26879 15.2084 5.02328 20.9495L3.10024 65.9184C2.85473 71.6596 7.08583 76.5044 12.5507 76.7396L82.516 79.7503C87.9808 79.9855 92.6099 75.522 92.8554 69.7808L94.7785 24.8119C95.024 19.0707 90.7929 14.2259 85.3281 13.9907Z" stroke="#162640" stroke-width="4" stroke-linecap="round" stroke-linejoin="round"/>
<path d="M61.1072 7.71336L96.7031 2.0814C101.482 1.37654 105.825 5.16787 106.398 10.5427L111.31 56.3024C111.889 61.685 108.484 66.6178 103.705 67.3227L98.6444 68.0681" stroke="#162640" stroke-width="4" stroke-linecap="round" stroke-linejoin="round"/>
<path d="M5.75981 23.3306L94.6713 27.1566" stroke="#162640" stroke-width="4" stroke-linecap="round" stroke-linejoin="round"/>
<path d="M5.1646 37.2476L94.0761 41.0736" stroke="#162640" stroke-width="4" stroke-linecap="round" stroke-linejoin="round"/>
<path d="M11.6988 48.0874L32.94 49.0015" stroke="#162640" stroke-width="4" stroke-linecap="round" stroke-linejoin="round"/>
<path d="M11.3174 57.0112L40.5447 58.2689" stroke="#162640" stroke-width="4" stroke-linecap="round" stroke-linejoin="round"/>
<path d="M75.492 60.0882C73.8762 60.0187 72.4162 60.8287 71.4504 62.1416C70.607 60.7584 69.2147 59.8181 67.5989 59.7485C64.8678 59.631 62.5445 62.0368 62.4124 65.1239C62.2804 68.211 64.3898 70.8075 67.1209 70.925C68.7367 70.9946 70.1968 70.1845 71.1626 68.8716C72.0059 70.2548 73.3982 71.1952 75.014 71.2647C77.7451 71.3822 80.0685 68.9764 80.2005 65.8894C80.3325 62.8023 78.2231 60.2057 75.492 60.0882Z" stroke="#162640" stroke-width="4" stroke-linecap="round" stroke-linejoin="round"/>
</svg>
