<svg width="66" height="70" viewBox="0 0 66 70" fill="none" xmlns="http://www.w3.org/2000/svg">
<path d="M57.3469 3.05615H8.62085C5.03167 3.05615 2.12207 5.96576 2.12207 9.55494V58.2809C2.12207 61.8701 5.03167 64.7797 8.62085 64.7797H57.3469C60.936 64.7797 63.8456 61.8701 63.8456 58.2809V9.55494C63.8456 5.96576 60.936 3.05615 57.3469 3.05615Z" stroke="#212A42" stroke-width="2.37398" stroke-linecap="round" stroke-linejoin="round"/>
<path d="M57.8036 10.7424C58.6984 10.7424 59.4238 10.017 59.4238 9.12219C59.4238 8.22736 58.6984 7.50195 57.8036 7.50195C56.9088 7.50195 56.1833 8.22736 56.1833 9.12219C56.1833 10.017 56.9088 10.7424 57.8036 10.7424Z" stroke="#212A42" stroke-width="1.5" stroke-linecap="round" stroke-linejoin="round"/>
<path d="M57.8036 60.2517C58.6984 60.2517 59.4238 59.5263 59.4238 58.6315C59.4238 57.7366 58.6984 57.0112 57.8036 57.0112C56.9088 57.0112 56.1833 57.7366 56.1833 58.6315C56.1833 59.5263 56.9088 60.2517 57.8036 60.2517Z" stroke="#212A42" stroke-width="1.5" stroke-linecap="round" stroke-linejoin="round"/>
<path d="M7.9557 10.7424C8.85054 10.7424 9.57594 10.017 9.57594 9.12219C9.57594 8.22736 8.85054 7.50195 7.9557 7.50195C7.06086 7.50195 6.33545 8.22736 6.33545 9.12219C6.33545 10.017 7.06086 10.7424 7.9557 10.7424Z" stroke="#212A42" stroke-width="1.5" stroke-linecap="round" stroke-linejoin="round"/>
<path d="M7.9557 60.2517C8.85054 60.2517 9.57594 59.5263 9.57594 58.6315C9.57594 57.7366 8.85054 57.0112 7.9557 57.0112C7.06086 57.0112 6.33545 57.7366 6.33545 58.6315C6.33545 59.5263 7.06086 60.2517 7.9557 60.2517Z" stroke="#212A42" stroke-width="1.5" stroke-linecap="round" stroke-linejoin="round"/>
<path d="M32.9837 58.3467C46.6946 58.3467 57.8096 47.2317 57.8096 33.5208C57.8096 19.8098 46.6946 8.69482 32.9837 8.69482C19.2727 8.69482 8.15771 19.8098 8.15771 33.5208C8.15771 47.2317 19.2727 58.3467 32.9837 58.3467Z" stroke="#212A42" stroke-width="2.37398" stroke-linecap="round" stroke-linejoin="round"/>
<path d="M32.9838 40.8088C37.0122 40.8088 40.2778 37.5432 40.2778 33.5148C40.2778 29.4864 37.0122 26.2207 32.9838 26.2207C28.9554 26.2207 25.6897 29.4864 25.6897 33.5148C25.6897 37.5432 28.9554 40.8088 32.9838 40.8088Z" stroke="#212A42" stroke-width="2.37398" stroke-linecap="round" stroke-linejoin="round"/>
<path d="M33.3278 25.7041C33.3278 25.7041 33.9747 21.1936 33.221 17.9709C32.4672 14.7482 31.5889 12.3861 31.5889 12.3861C31.5889 12.3861 33.6898 10.9617 37.8681 12.9915C42.0463 15.0212 40.7524 19.5911 39.8919 22.5824C39.0313 25.5736 37.2271 27.4312 37.2271 27.4312" stroke="#212A42" stroke-width="2.37398" stroke-linecap="round" stroke-linejoin="round"/>
<path d="M39.6782 30.126C39.6782 30.126 43.5419 27.7046 45.5123 25.0457C47.4827 22.3868 48.7231 20.1909 48.7231 20.1909C48.7231 20.1909 51.1683 20.8734 52.3197 25.3721C53.4711 29.8708 49.1504 31.8353 46.3076 33.1173C43.4647 34.3992 40.883 34.2152 40.883 34.2152" stroke="#212A42" stroke-width="2.37398" stroke-linecap="round" stroke-linejoin="round"/>
<path d="M39.5715 37.4438C39.5715 37.4438 43.2155 40.1799 46.4026 41.0701C49.5897 41.9604 52.0824 42.3283 52.0824 42.3283C52.0824 42.3283 52.3198 44.8507 48.5333 47.5392C44.7468 50.2278 41.3638 46.8923 39.1501 44.6964C36.9423 42.5004 36.1826 40.0256 36.1826 40.0256" stroke="#212A42" stroke-width="2.37398" stroke-linecap="round" stroke-linejoin="round"/>
<path d="M32.7046 41.1467C32.7046 41.1467 32.3841 45.6929 33.3693 48.8503C34.3545 52.0077 35.3991 54.3045 35.3991 54.3045C35.3991 54.3045 33.4108 55.8773 29.0961 54.1561C24.7814 52.435 25.7369 47.7879 26.3779 44.7374C27.0189 41.6868 28.6866 39.7104 28.6866 39.7104" stroke="#212A42" stroke-width="2.37398" stroke-linecap="round" stroke-linejoin="round"/>
<path d="M26.2533 36.9097C26.2533 36.9097 22.3897 39.3311 20.4193 41.99C18.4489 44.6489 17.2085 46.8448 17.2085 46.8448C17.2085 46.8448 14.7633 46.1623 13.6119 41.6636C12.4605 37.1649 16.7811 35.2004 19.624 33.9185C22.4668 32.6424 25.0485 32.8205 25.0485 32.8205" stroke="#212A42" stroke-width="2.37398" stroke-linecap="round" stroke-linejoin="round"/>
<path d="M26.36 29.5852C26.36 29.5852 22.716 26.8492 19.5289 25.959C16.3418 25.0687 13.8491 24.7008 13.8491 24.7008C13.8491 24.7008 13.6117 22.1784 17.3982 19.4899C21.1847 16.8013 24.5677 20.1368 26.7814 22.3327C28.9892 24.5287 29.7489 27.0035 29.7489 27.0035" stroke="#212A42" stroke-width="2.37398" stroke-linecap="round" stroke-linejoin="round"/>
</svg>
