<svg width="77" height="88" viewBox="0 0 77 88" fill="none" xmlns="http://www.w3.org/2000/svg">
<path d="M75.2358 34.8833H39.3083V80.6668H75.2358V34.8833Z" stroke="#212A42" stroke-width="2.34667" stroke-linecap="round" stroke-linejoin="round"/>
<path d="M49.4988 50.0312H44.6001V54.9299H49.4988V50.0312Z" stroke="#212A42" stroke-width="2.34667" stroke-linecap="round" stroke-linejoin="round"/>
<path d="M59.7244 50.0312H54.8257V54.9299H59.7244V50.0312Z" stroke="#212A42" stroke-width="2.34667" stroke-linecap="round" stroke-linejoin="round"/>
<path d="M69.8032 50.0312H64.9045V54.9299H69.8032V50.0312Z" stroke="#212A42" stroke-width="2.34667" stroke-linecap="round" stroke-linejoin="round"/>
<path d="M49.4988 60.4502H44.6001V65.3489H49.4988V60.4502Z" stroke="#212A42" stroke-width="2.34667" stroke-linecap="round" stroke-linejoin="round"/>
<path d="M59.7244 60.4502H54.8257V65.3489H59.7244V60.4502Z" stroke="#212A42" stroke-width="2.34667" stroke-linecap="round" stroke-linejoin="round"/>
<path d="M69.8032 60.4502H64.9045V75.1403H69.8032V60.4502Z" stroke="#212A42" stroke-width="2.34667" stroke-linecap="round" stroke-linejoin="round"/>
<path d="M49.4988 70.2476H44.6001V75.1462H49.4988V70.2476Z" stroke="#212A42" stroke-width="2.34667" stroke-linecap="round" stroke-linejoin="round"/>
<path d="M59.7244 70.2476H54.8257V75.1462H59.7244V70.2476Z" stroke="#212A42" stroke-width="2.34667" stroke-linecap="round" stroke-linejoin="round"/>
<path d="M39.8364 44.8862H74.9895" stroke="#212A42" stroke-width="2.34667" stroke-linecap="round" stroke-linejoin="round"/>
<path d="M60.223 39.3833H59.1963V40.41H60.223V39.3833Z" stroke="#212A42" stroke-width="2.34667" stroke-linecap="round" stroke-linejoin="round"/>
<path d="M65.3974 39.3833H64.3707V40.41H65.3974V39.3833Z" stroke="#212A42" stroke-width="2.34667" stroke-linecap="round" stroke-linejoin="round"/>
<path d="M70.4018 39.3833H69.3751V40.41H70.4018V39.3833Z" stroke="#212A42" stroke-width="2.34667" stroke-linecap="round" stroke-linejoin="round"/>
<path d="M34.3158 80.2211C34.3158 80.2211 21.6379 82.4094 11.3302 77.9097C6.27898 75.7038 0.623513 68.6462 1.61498 52.4777C2.60058 36.3091 20.7462 26.0542 20.7462 26.0542H37.7536L44.6235 30.2665" stroke="#212A42" stroke-width="2.34667" stroke-linecap="round" stroke-linejoin="round"/>
<path d="M20.5762 25.1506V19.5127H38.3932V25.4322" stroke="#212A42" stroke-width="2.34667" stroke-linecap="round" stroke-linejoin="round"/>
<path d="M19.9483 19.5126L15.1083 15.8635V6.24219H20.576L22.9637 9.57445L25.24 6.24219H33.6704L35.5595 9.32806L37.7712 6.24219H43.2917V15.9222L38.3931 19.5126" stroke="#212A42" stroke-width="2.34667" stroke-linecap="round" stroke-linejoin="round"/>
<path d="M33.0074 49.1043C33.0074 49.1043 33.1776 45.6899 29.4874 45.6899C25.7973 45.6899 25.4453 49.2979 25.4453 49.2979C25.4453 49.2979 25.416 53.6979 29.7808 53.8915C34.1456 54.0851 33.424 58.4851 33.424 58.4851C33.424 58.4851 32.8608 61.9758 29.3642 61.9406C25.8677 61.9054 25.2634 58.3795 25.2634 58.3795" stroke="#212A42" stroke-width="2.34667" stroke-linecap="round" stroke-linejoin="round"/>
<path d="M29.3645 42.5161V45.6841" stroke="#212A42" stroke-width="2.34667" stroke-linecap="round" stroke-linejoin="round"/>
<path d="M29.3645 61.9346V65.1026" stroke="#212A42" stroke-width="2.34667" stroke-linecap="round" stroke-linejoin="round"/>
<path d="M34.3158 68.0481C32.7083 68.6347 30.9718 68.9515 29.159 68.9515C20.8342 68.9515 14.0875 62.2049 14.0875 53.8801C14.0875 45.5553 20.8342 38.8086 29.159 38.8086C30.9718 38.8086 32.7083 39.1254 34.3158 39.7121" stroke="#212A42" stroke-width="2.34667" stroke-linecap="round" stroke-linejoin="round"/>
</svg>
