<svg width="69" height="68" viewBox="0 0 69 68" fill="none" xmlns="http://www.w3.org/2000/svg">
<path d="M50.2264 28.5532V1.18115H14.6812L1.18115 13.7363V66.4193H50.2264V58.2107" stroke="#212A42" stroke-width="2.36221" stroke-linecap="round" stroke-linejoin="round"/>
<path d="M1.94897 14.4509H14.8112V1.55322" stroke="#212A42" stroke-width="2.36221" stroke-linecap="round" stroke-linejoin="round"/>
<path d="M6.8623 19.848L11.8111 24.8028L21.3722 15.2358" stroke="#212A42" stroke-width="2.36221" stroke-linecap="round" stroke-linejoin="round"/>
<path d="M6.8623 35.1498L11.8111 40.0986L21.3722 30.5376" stroke="#212A42" stroke-width="2.36221" stroke-linecap="round" stroke-linejoin="round"/>
<path d="M6.8623 50.4442L11.8111 55.3931L21.3722 45.832" stroke="#212A42" stroke-width="2.36221" stroke-linecap="round" stroke-linejoin="round"/>
<path d="M26.262 22.3228H43.1399" stroke="#212A42" stroke-width="2.36221" stroke-linecap="round" stroke-linejoin="round"/>
<path d="M26.262 37.3994H43.1399" stroke="#212A42" stroke-width="2.36221" stroke-linecap="round" stroke-linejoin="round"/>
<path d="M26.262 53.2021H39.1183" stroke="#212A42" stroke-width="2.36221" stroke-linecap="round" stroke-linejoin="round"/>
<path d="M59.0376 22.9604L47.1144 43.1337L46.0337 53.6219L55.0632 47.9703L67.2876 27.614L59.0376 22.9604Z" stroke="#212A42" stroke-width="2.36221" stroke-linecap="round" stroke-linejoin="round"/>
<path d="M55.8723 28.5532L63.6912 33.2245" stroke="#212A42" stroke-width="2.36221" stroke-linecap="round" stroke-linejoin="round"/>
<path d="M47.4038 42.6196L55.2227 47.285" stroke="#212A42" stroke-width="2.36221" stroke-linecap="round" stroke-linejoin="round"/>
</svg>
