<svg width="86" height="77" viewBox="0 0 86 77" fill="none" xmlns="http://www.w3.org/2000/svg">
<path d="M23.2912 34.2592C17.083 32.3823 12.5653 26.6193 12.5653 19.7976C12.5653 11.4539 19.3269 4.69238 27.6705 4.69238C36.0142 4.69238 42.7758 11.4539 42.7758 19.7976C42.7758 24.4597 40.6643 28.6286 37.3437 31.4018" stroke="#212A42" stroke-width="2.40625" stroke-linecap="round" stroke-linejoin="round"/>
<path d="M37.3376 31.3955C39.0641 33.0257 40.1469 35.3418 40.1469 37.9044C40.1469 42.8493 36.1405 46.8557 31.1956 46.8557C26.2508 46.8557 22.2444 42.8493 22.2444 37.9044C22.2444 36.6712 22.497 35.4921 22.9482 34.4214" stroke="#212A42" stroke-width="2.40625" stroke-linecap="round" stroke-linejoin="round"/>
<path d="M30.9911 42.3682C33.2237 42.3682 35.0336 40.5583 35.0336 38.3257C35.0336 36.0931 33.2237 34.2832 30.9911 34.2832C28.7585 34.2832 26.9486 36.0931 26.9486 38.3257C26.9486 40.5583 28.7585 42.3682 30.9911 42.3682Z" stroke="#212A42" stroke-width="2.40625" stroke-linecap="round" stroke-linejoin="round"/>
<path d="M54.5362 35.6304C52.3405 29.5306 54.2715 22.4622 59.7397 18.3956C66.4351 13.4207 75.8917 14.8103 80.8726 21.5057C85.8475 28.2011 84.4579 37.6577 77.7625 42.6386C74.0208 45.4178 69.4128 46.2119 65.2139 45.2013" stroke="#212A42" stroke-width="2.40625" stroke-linecap="round" stroke-linejoin="round"/>
<path d="M65.2138 45.1957C64.937 47.5538 63.7219 49.8036 61.6645 51.3316C57.6942 54.2793 52.0877 53.4551 49.14 49.4848C46.1924 45.5145 47.0165 39.9079 50.9868 36.9603C51.9794 36.2204 53.0742 35.7211 54.2052 35.4443" stroke="#212A42" stroke-width="2.40625" stroke-linecap="round" stroke-linejoin="round"/>
<path d="M55.8658 48.2637C58.0884 48.2637 59.8902 46.4619 59.8902 44.2393C59.8902 42.0166 58.0884 40.2148 55.8658 40.2148C53.6431 40.2148 51.8413 42.0166 51.8413 44.2393C51.8413 46.4619 53.6431 48.2637 55.8658 48.2637Z" stroke="#212A42" stroke-width="2.40625" stroke-linecap="round" stroke-linejoin="round"/>
<path d="M41.6808 12.8677L59.6615 18.0471" stroke="#212A42" stroke-width="2.40625" stroke-linecap="round" stroke-linejoin="round"/>
<path d="M39.5093 41.2192L47.107 43.5232" stroke="#212A42" stroke-width="2.40625" stroke-linecap="round" stroke-linejoin="round"/>
<path d="M14.0933 13.1743L1.80342 43.8119C1.80342 43.8119 -0.416349 52.3781 7.67467 56.5951C13.2933 59.5187 25.126 44.4917 25.126 44.4917" stroke="#212A42" stroke-width="2.40625" stroke-linecap="round" stroke-linejoin="round"/>
<path d="M83.8563 32.605L78.4362 64.8848C78.4362 64.8848 76.1443 73.421 67.1148 73.1744C60.8465 73.0059 58.0372 54.177 58.0372 54.177" stroke="#212A42" stroke-width="2.40625" stroke-linecap="round" stroke-linejoin="round"/>
<path d="M62.3082 31.3957C63.9096 31.3957 65.2078 30.0976 65.2078 28.4962C65.2078 26.8948 63.9096 25.5967 62.3082 25.5967C60.7069 25.5967 59.4087 26.8948 59.4087 28.4962C59.4087 30.0976 60.7069 31.3957 62.3082 31.3957Z" stroke="#212A42" stroke-width="2.40625" stroke-linecap="round" stroke-linejoin="round"/>
<path d="M66.6998 40.3347C68.3012 40.3347 69.5993 39.0365 69.5993 37.4352C69.5993 35.8338 68.3012 34.5356 66.6998 34.5356C65.0985 34.5356 63.8003 35.8338 63.8003 37.4352C63.8003 39.0365 65.0985 40.3347 66.6998 40.3347Z" stroke="#212A42" stroke-width="2.40625" stroke-linecap="round" stroke-linejoin="round"/>
<path d="M70.7725 26.3308C72.3738 26.3308 73.672 25.0326 73.672 23.4313C73.672 21.8299 72.3738 20.5317 70.7725 20.5317C69.1711 20.5317 67.8729 21.8299 67.8729 23.4313C67.8729 25.0326 69.1711 26.3308 70.7725 26.3308Z" stroke="#212A42" stroke-width="2.40625" stroke-linecap="round" stroke-linejoin="round"/>
<path d="M75.2601 35.0715C76.8615 35.0715 78.1596 33.7734 78.1596 32.172C78.1596 30.5706 76.8615 29.2725 75.2601 29.2725C73.6587 29.2725 72.3606 30.5706 72.3606 32.172C72.3606 33.7734 73.6587 35.0715 75.2601 35.0715Z" stroke="#212A42" stroke-width="2.40625" stroke-linecap="round" stroke-linejoin="round"/>
<path d="M26.708 11.4238L25.535 16.2604L20.1811 14.955L18.7794 20.7119L24.1333 22.0113L22.858 27.263L28.5849 28.6586L29.8662 23.413L35.1479 24.7003L36.5496 18.9434L31.1115 17.6139L32.2845 12.7834L26.708 11.4238Z" stroke="#212A42" stroke-width="2.40625" stroke-linecap="round" stroke-linejoin="round"/>
</svg>
