<svg width="91" height="80" viewBox="0 0 91 80" fill="none" xmlns="http://www.w3.org/2000/svg">
<path d="M15.2129 1.18799L23.5912 4.19254L4.10913 58.4882" stroke="#212A42" stroke-width="2.37514" stroke-linecap="round" stroke-linejoin="round"/>
<path d="M22.6413 10.1841L83.8546 32.1482C88.3436 33.7573 90.6772 38.7036 89.0621 43.1926L80.8085 66.1899C79.1993 70.6789 74.2531 73.0125 69.7641 71.3974L8.55078 49.4333" stroke="#212A42" stroke-width="2.37514" stroke-linecap="round" stroke-linejoin="round"/>
<path d="M17.0773 52.4854L14.0193 61.0002L44.1123 71.8012L46.9625 63.8504" stroke="#212A42" stroke-width="2.37514" stroke-linecap="round" stroke-linejoin="round"/>
<path d="M55.2223 66.1719L52.1643 74.6927L63.5234 78.766L66.5755 70.2512" stroke="#212A42" stroke-width="2.37514" stroke-linecap="round" stroke-linejoin="round"/>
<path d="M6.65639 51.3865L1.18762 49.427L5.37381 37.771L10.8366 39.7305" stroke="#212A42" stroke-width="2.37514" stroke-linecap="round" stroke-linejoin="round"/>
<path d="M7.28003 32.4507L12.7488 34.4102" stroke="#212A42" stroke-width="2.37514" stroke-linecap="round" stroke-linejoin="round"/>
<path d="M14.5358 29.4226L9.073 27.4631L13.2532 15.8071L18.7161 17.7666" stroke="#212A42" stroke-width="2.37514" stroke-linecap="round" stroke-linejoin="round"/>
<path d="M15.165 10.481L20.6279 12.4464" stroke="#212A42" stroke-width="2.37514" stroke-linecap="round" stroke-linejoin="round"/>
<path d="M22.3382 59.0225L20.8656 63.1374" stroke="#212A42" stroke-width="2.37514" stroke-linecap="round" stroke-linejoin="round"/>
<path d="M27.6824 60.9346L26.2039 65.0554" stroke="#212A42" stroke-width="2.37514" stroke-linecap="round" stroke-linejoin="round"/>
<path d="M32.9492 62.8291L31.4707 66.944" stroke="#212A42" stroke-width="2.37514" stroke-linecap="round" stroke-linejoin="round"/>
<path d="M38.0438 64.6572L36.5653 68.7722" stroke="#212A42" stroke-width="2.37514" stroke-linecap="round" stroke-linejoin="round"/>
<path d="M59.0698 72.1992L57.5913 76.3141" stroke="#212A42" stroke-width="2.37514" stroke-linecap="round" stroke-linejoin="round"/>
<path d="M34.0122 51.0782C42.2566 51.0782 48.94 44.3948 48.94 36.1504C48.94 27.906 42.2566 21.2227 34.0122 21.2227C25.7679 21.2227 19.0845 27.906 19.0845 36.1504C19.0845 44.3948 25.7679 51.0782 34.0122 51.0782Z" stroke="#212A42" stroke-width="2.37514" stroke-linecap="round" stroke-linejoin="round"/>
<path d="M34.012 40.2946C36.3011 40.2946 38.1567 38.439 38.1567 36.15C38.1567 33.861 36.3011 32.0054 34.012 32.0054C31.723 32.0054 29.8674 33.861 29.8674 36.15C29.8674 38.439 31.723 40.2946 34.012 40.2946Z" stroke="#212A42" stroke-width="2.37514" stroke-linecap="round" stroke-linejoin="round"/>
<path d="M29.725 22.2554C29.725 22.2554 34.5643 23.3895 35.164 26.97C35.7638 30.5505 35.0394 32.1122 35.0394 32.1122" stroke="#212A42" stroke-width="2.37514" stroke-linecap="round" stroke-linejoin="round"/>
<path d="M20.8004 29.3098C20.8004 29.3098 25.0282 26.6912 27.9793 28.7991C30.9304 30.9071 31.5301 32.5222 31.5301 32.5222" stroke="#212A42" stroke-width="2.37514" stroke-linecap="round" stroke-linejoin="round"/>
<path d="M20.0166 40.7221C20.0166 40.7221 21.1507 35.8828 24.7313 35.2831C28.3118 34.6833 29.8734 35.4078 29.8734 35.4078" stroke="#212A42" stroke-width="2.37514" stroke-linecap="round" stroke-linejoin="round"/>
<path d="M26.8927 49.1301C26.8927 49.1301 24.2741 44.9023 26.382 41.9512C28.49 39.0001 30.105 38.4004 30.105 38.4004" stroke="#212A42" stroke-width="2.37514" stroke-linecap="round" stroke-linejoin="round"/>
<path d="M38.1687 50.0033C38.1687 50.0033 33.3293 48.8692 32.7296 45.2887C32.1299 41.7081 32.8543 40.1465 32.8543 40.1465" stroke="#212A42" stroke-width="2.37514" stroke-linecap="round" stroke-linejoin="round"/>
<path d="M47.1112 43.2754C47.1112 43.2754 42.8834 45.8939 39.9323 43.786C36.9812 41.6781 36.3815 40.063 36.3815 40.063" stroke="#212A42" stroke-width="2.37514" stroke-linecap="round" stroke-linejoin="round"/>
<path d="M48.2212 31.8154C48.2212 31.8154 47.0871 36.6548 43.5066 37.2545C39.926 37.8542 38.3644 37.1298 38.3644 37.1298" stroke="#212A42" stroke-width="2.37514" stroke-linecap="round" stroke-linejoin="round"/>
<path d="M41.1375 23.0986C41.1375 23.0986 43.7561 27.3264 41.6482 30.2775C39.5403 33.2286 37.9252 33.8283 37.9252 33.8283" stroke="#212A42" stroke-width="2.37514" stroke-linecap="round" stroke-linejoin="round"/>
<path d="M66.1831 62.6211C74.4275 62.6211 81.1109 55.9377 81.1109 47.6934C81.1109 39.449 74.4275 32.7656 66.1831 32.7656C57.9388 32.7656 51.2554 39.449 51.2554 47.6934C51.2554 55.9377 57.9388 62.6211 66.1831 62.6211Z" stroke="#212A42" stroke-width="2.37514" stroke-linecap="round" stroke-linejoin="round"/>
<path d="M66.1834 51.8376C68.4725 51.8376 70.3281 49.982 70.3281 47.693C70.3281 45.4039 68.4725 43.5483 66.1834 43.5483C63.8944 43.5483 62.0388 45.4039 62.0388 47.693C62.0388 49.982 63.8944 51.8376 66.1834 51.8376Z" stroke="#212A42" stroke-width="2.37514" stroke-linecap="round" stroke-linejoin="round"/>
<path d="M61.8965 33.7988C61.8965 33.7988 66.7358 34.933 67.3356 38.5135C67.9353 42.094 67.2109 43.6557 67.2109 43.6557" stroke="#212A42" stroke-width="2.37514" stroke-linecap="round" stroke-linejoin="round"/>
<path d="M52.9718 40.8527C52.9718 40.8527 57.1995 38.2342 60.1507 40.3421C63.1018 42.45 63.7015 44.0651 63.7015 44.0651" stroke="#212A42" stroke-width="2.37514" stroke-linecap="round" stroke-linejoin="round"/>
<path d="M52.1877 52.2656C52.1877 52.2656 53.3219 47.4262 56.9024 46.8265C60.4829 46.2268 62.0446 46.9512 62.0446 46.9512" stroke="#212A42" stroke-width="2.37514" stroke-linecap="round" stroke-linejoin="round"/>
<path d="M59.0641 60.6735C59.0641 60.6735 56.4455 56.4458 58.5534 53.4947C60.6613 50.5436 62.2764 49.9438 62.2764 49.9438" stroke="#212A42" stroke-width="2.37514" stroke-linecap="round" stroke-linejoin="round"/>
<path d="M70.3397 61.5463C70.3397 61.5463 65.5003 60.4122 64.9006 56.8316C64.3009 53.2511 65.0253 51.6895 65.0253 51.6895" stroke="#212A42" stroke-width="2.37514" stroke-linecap="round" stroke-linejoin="round"/>
<path d="M79.2823 54.8188C79.2823 54.8188 75.0546 57.4374 72.1035 55.3295C69.1523 53.2215 68.5526 51.6064 68.5526 51.6064" stroke="#212A42" stroke-width="2.37514" stroke-linecap="round" stroke-linejoin="round"/>
<path d="M80.3867 43.3584C80.3867 43.3584 79.2526 48.1977 75.6721 48.7975C72.0916 49.3972 70.5299 48.6728 70.5299 48.6728" stroke="#212A42" stroke-width="2.37514" stroke-linecap="round" stroke-linejoin="round"/>
<path d="M73.3087 34.6416C73.3087 34.6416 75.9273 38.8693 73.8193 41.8205C71.7114 44.7716 70.0963 45.3713 70.0963 45.3713" stroke="#212A42" stroke-width="2.37514" stroke-linecap="round" stroke-linejoin="round"/>
</svg>
