<svg width="257" height="166" viewBox="0 0 257 166" fill="none" xmlns="http://www.w3.org/2000/svg">
<g clip-path="url(#clip0_1131_448)">
<path d="M120.178 39.8232H5.90568C3.79596 39.8232 2.08569 41.5327 2.08569 43.6413V159.899C2.08569 162.008 3.79596 163.717 5.90568 163.717H120.178C122.287 163.717 123.998 162.008 123.998 159.899V43.6413C123.998 41.5327 122.287 39.8232 120.178 39.8232Z" stroke="#212A42" stroke-width="4.30145" stroke-linecap="round" stroke-linejoin="round"/>
<path d="M3.37305 63.4941H123.998" stroke="#212A42" stroke-width="4.30145" stroke-linecap="round" stroke-linejoin="round"/>
<path d="M3.37305 139.737H123.998" stroke="#212A42" stroke-width="4.30145" stroke-linecap="round" stroke-linejoin="round"/>
<path d="M25.0653 126.316L87.0314 64.3813" stroke="#212A42" stroke-width="4.30145" stroke-linecap="round" stroke-linejoin="round"/>
<path d="M38.4978 139.356L100.535 77.355" stroke="#212A42" stroke-width="4.30145" stroke-linecap="round" stroke-linejoin="round"/>
<path d="M24.6899 63.9888V139.093" stroke="#212A42" stroke-width="4.30145" stroke-linecap="round" stroke-linejoin="round"/>
<path d="M50.4406 63.9888V100.954" stroke="#212A42" stroke-width="4.30145" stroke-linecap="round" stroke-linejoin="round"/>
<path d="M50.4406 127.806V139.093" stroke="#212A42" stroke-width="4.30145" stroke-linecap="round" stroke-linejoin="round"/>
<path d="M75.7919 102.08V139.749" stroke="#212A42" stroke-width="4.30145" stroke-linecap="round" stroke-linejoin="round"/>
<path d="M75.7919 64.3813V75.2935" stroke="#212A42" stroke-width="4.30145" stroke-linecap="round" stroke-linejoin="round"/>
<path d="M100.5 63.9888V139.093" stroke="#212A42" stroke-width="4.30145" stroke-linecap="round" stroke-linejoin="round"/>
<path d="M17.4074 154.294C19.0366 154.294 20.3573 152.974 20.3573 151.346C20.3573 149.718 19.0366 148.397 17.4074 148.397C15.7782 148.397 14.4575 149.718 14.4575 151.346C14.4575 152.974 15.7782 154.294 17.4074 154.294Z" stroke="#212A42" stroke-width="4.30145" stroke-linecap="round" stroke-linejoin="round"/>
<path d="M109.355 154.294C110.984 154.294 112.305 152.974 112.305 151.346C112.305 149.718 110.984 148.397 109.355 148.397C107.726 148.397 106.405 149.718 106.405 151.346C106.405 152.974 107.726 154.294 109.355 154.294Z" stroke="#212A42" stroke-width="4.30145" stroke-linecap="round" stroke-linejoin="round"/>
<path d="M17.4074 54.7982C19.0366 54.7982 20.3573 53.4782 20.3573 51.8498C20.3573 50.2214 19.0366 48.9014 17.4074 48.9014C15.7782 48.9014 14.4575 50.2214 14.4575 51.8498C14.4575 53.4782 15.7782 54.7982 17.4074 54.7982Z" stroke="#212A42" stroke-width="4.30145" stroke-linecap="round" stroke-linejoin="round"/>
<path d="M109.355 54.7982C110.984 54.7982 112.305 53.4782 112.305 51.8498C112.305 50.2214 110.984 48.9014 109.355 48.9014C107.726 48.9014 106.405 50.2214 106.405 51.8498C106.405 53.4782 107.726 54.7982 109.355 54.7982Z" stroke="#212A42" stroke-width="4.30145" stroke-linecap="round" stroke-linejoin="round"/>
<path d="M96.9241 29.7212V1.70215H207.942V89.8574H150.028" stroke="#212A42" stroke-width="4.30145" stroke-linecap="round" stroke-linejoin="round"/>
<path d="M131.066 78.0102C132.24 77.7183 133.473 77.5635 134.737 77.5635C143.181 77.5635 150.022 84.4015 150.022 92.8417C150.022 101.282 143.181 108.12 134.737 108.12C133.527 108.12 132.353 107.977 131.226 107.715" stroke="#212A42" stroke-width="4.30145" stroke-linecap="round" stroke-linejoin="round"/>
<path d="M228.442 98.6427C231.921 98.6427 234.742 95.8239 234.742 92.3467C234.742 88.8696 231.921 86.0508 228.442 86.0508C224.964 86.0508 222.143 88.8696 222.143 92.3467C222.143 95.8239 224.964 98.6427 228.442 98.6427Z" stroke="#212A42" stroke-width="4.30145" stroke-linecap="round" stroke-linejoin="round"/>
<path d="M132.478 87.0638C133.217 86.7183 133.884 86.5813 134.754 86.5515C138.229 86.4264 141.149 89.1426 141.274 92.6152C141.399 96.0878 138.682 99.0064 135.207 99.1315C134.099 99.1732 133.354 99.066 132.436 98.5954" stroke="#212A42" stroke-width="4.30145" stroke-linecap="round" stroke-linejoin="round"/>
<path d="M228.442 107.322C236.717 107.322 243.424 100.617 243.424 92.347C243.424 84.0769 236.717 77.3726 228.442 77.3726C220.168 77.3726 213.46 84.0769 213.46 92.347C213.46 100.617 220.168 107.322 228.442 107.322Z" stroke="#212A42" stroke-width="4.30145" stroke-linecap="round" stroke-linejoin="round"/>
<path d="M155.302 78.0518H207.543" stroke="#212A42" stroke-width="4.30145" stroke-linecap="round" stroke-linejoin="round"/>
<path d="M137.847 39.8232L153.115 55.0836L180.696 27.5112" stroke="#212A42" stroke-width="4.30145" stroke-linecap="round" stroke-linejoin="round"/>
<path d="M207.924 13.3888H228.347C228.347 13.3888 236.541 12.4834 239.122 18.833C241.702 25.1826 240.129 26.5466 240.129 26.5466H207.924" stroke="#212A42" stroke-width="4.30145" stroke-linecap="round" stroke-linejoin="round"/>
<path d="M212.709 89.8574H207.924" stroke="#212A42" stroke-width="4.30145" stroke-linecap="round" stroke-linejoin="round"/>
<path d="M207.924 49.1272H242.745C242.745 49.1272 248.275 48.9068 251.332 51.8791C254.789 55.2326 254.92 60.2479 254.92 60.2479V89.8573H243.645" stroke="#212A42" stroke-width="4.30145" stroke-linecap="round" stroke-linejoin="round"/>
<path d="M236.488 26.5464L243.019 49.0677" stroke="#212A42" stroke-width="4.30145" stroke-linecap="round" stroke-linejoin="round"/>
<path d="M254.539 59.6167H242.953C242.953 59.6167 241.744 67.0384 245.874 70.0941C250.003 73.1497 254.914 72.4171 254.914 72.4171" stroke="#212A42" stroke-width="4.30145" stroke-linecap="round" stroke-linejoin="round"/>
</g>
<defs>
<clipPath id="clip0_1131_448">
<rect width="257" height="166" fill="white"/>
</clipPath>
</defs>
</svg>
