<svg width="130" height="118" viewBox="0 0 130 118" fill="none" xmlns="http://www.w3.org/2000/svg">
<path d="M67.8768 35.25C67.8768 35.25 57.0388 45.2382 39.7384 44.2916C39.8054 51.1864 38.9706 63.8282 42.2354 75.5606C45.5002 87.293 54.8996 100.889 67.2432 103.945C80.854 101.515 91.0956 88.1129 93.9057 75.5904C96.3133 64.8792 95.8065 54.0636 95.7692 44.217C78.5731 45.2009 67.8768 35.25 67.8768 35.25Z" stroke="#162640" stroke-width="2.98155" stroke-linecap="round" stroke-linejoin="round"/>
<path d="M67.9215 23.3906C67.9215 23.3906 53.3418 36.83 30.0633 35.5554C30.1602 44.828 29.0272 61.8452 33.425 77.6251C37.9197 93.7628 50.4645 111.697 67.0718 115.819C85.386 112.554 99.1608 94.523 102.947 77.6773C106.182 63.2689 105.504 48.7115 105.452 35.4659C82.315 36.7927 67.929 23.3981 67.929 23.3981L67.9215 23.3906Z" stroke="#162640" stroke-width="2.98155" stroke-linecap="round" stroke-linejoin="round"/>
<path d="M52.8872 68.5607L64.15 79.9204L85.729 59.2881" stroke="#162640" stroke-width="2.98155" stroke-linecap="round" stroke-linejoin="round"/>
<path d="M117.848 12.5225C115.425 18.7092 114.255 25.6637 107.479 29.0105C114.076 31.6566 115.313 39.0732 117.848 45.4984C120.516 39.8409 119.905 31.3212 128 29.0105C119.786 25.3357 120.717 18.0532 117.848 12.5225Z" stroke="#162640" stroke-width="2.98155" stroke-linecap="round" stroke-linejoin="round"/>
<path d="M100.264 1.49121C98.788 5.27033 98.065 9.51904 93.9281 11.5689C97.9607 13.1864 98.7135 17.7183 100.264 21.6465C101.896 18.1879 101.516 12.9851 106.466 11.5689C101.449 9.32524 102.016 4.87527 100.264 1.49121Z" stroke="#162640" stroke-width="2.98155" stroke-linecap="round" stroke-linejoin="round"/>
</svg>
