<svg width="130" height="110" viewBox="0 0 130 110" fill="none" xmlns="http://www.w3.org/2000/svg">
<path d="M1.49658 78.5415L18.176 37.4902L31.2861 44.4718C31.2861 44.4718 29.7147 57.0132 25.8685 64.9975C22.0222 72.9817 15.4672 83.0987 15.4672 83.0987L1.49658 78.5341V78.5415Z" stroke="#162640" stroke-width="2.99317" stroke-linecap="round" stroke-linejoin="round"/>
<path d="M32.8575 46.1861C32.8575 46.1861 48.8186 39.6984 55.9498 41.4794" stroke="#162640" stroke-width="2.99317" stroke-linecap="round" stroke-linejoin="round"/>
<path d="M20.5256 82.1714L17.0011 80.6748" stroke="#162640" stroke-width="2.99317" stroke-linecap="round" stroke-linejoin="round"/>
<path d="M111.391 37.4899L98.1383 43.813C98.1383 43.813 99.9941 55.0224 103.414 63.8597C106.833 72.6971 113.246 82.1704 113.246 82.1704L128.497 78.5337L111.391 37.4824V37.4899Z" stroke="#162640" stroke-width="2.99317" stroke-linecap="round" stroke-linejoin="round"/>
<path d="M98.1311 47.0387C98.1311 47.0387 90.289 49.0366 86.8693 47.6074C83.4496 46.1782 75.8918 42.1898 69.479 42.0476C63.0661 41.9054 60.6416 45.0857 60.6416 45.0857C60.6416 45.0857 50.9512 50.4584 50.5247 52.4563C50.0982 54.4543 48.5268 62.5733 46.1098 65.2821C43.6853 67.9909 51.1009 72.548 56.6607 67.28C62.2205 62.0046 61.9362 56.5869 61.9362 56.5869L69.6361 58.0087L90.8726 73.401L102.606 83.0914" stroke="#162640" stroke-width="2.99317" stroke-linecap="round" stroke-linejoin="round"/>
<path d="M102.83 83.4584C102.83 83.4584 105.442 89.3999 101.955 92.6549C98.8869 95.5059 94.472 92.7971 94.472 92.7971L71.7015 74.6211C71.7015 74.6211 89.0394 88.24 92.7584 91.6148C94.7788 93.4481 94.3747 97.5263 92.721 99.0603C87.7374 103.7 82.851 97.5263 82.851 97.5263L64.2859 80.9591L83.5918 98.3195C83.5918 98.3195 85.2755 103.37 81.7136 105.511C78.1518 107.651 73.6994 103.909 73.6994 103.909M73.6994 103.909L61.5846 91.7196M73.6994 103.909C73.6994 103.909 72.2702 107.172 67.3539 107.972C64.5029 108.436 60.8662 105.69 60.8662 105.69" stroke="#162640" stroke-width="2.99317" stroke-linecap="round" stroke-linejoin="round"/>
<path d="M34.6536 88.6061C36.7413 86.1816 36.5093 81.7742 34.3243 80.3898C32.1393 79.0055 29.9094 80.7715 27.5298 83.4279C25.1577 86.0918 24.2074 89.6088 26.34 91.3149C28.4802 93.021 32.94 91.0006 34.6461 88.5986C36.876 85.4707 39.929 78.8409 44.6732 82.1633C49.4249 85.4857 43.9623 92.9761 43.9623 92.9761C43.9623 92.9761 39.8392 100.242 35.0277 96.7326C30.2162 93.2231 34.6386 88.5986 34.6386 88.5986L34.6536 88.6061Z" stroke="#162640" stroke-width="2.99317" stroke-linecap="round" stroke-linejoin="round"/>
<path d="M53.4279 97.9667C55.3286 95.7817 58.0823 94.7341 60.0802 96.4477C62.0782 98.1613 60.7013 103.197 59.085 105.143C57.4687 107.088 53.7647 109.124 51.5273 106.654C49.2899 104.185 50.0082 101.536 53.4279 97.9742C56.8476 94.4124 57.4762 89.3838 55.0517 86.9145C52.6273 84.4451 49.9559 85.9492 44.9647 91.9355C40.0784 97.8021 40.0934 99.8225 42.5403 101.678C47.0525 105.098 53.4204 97.9742 53.4204 97.9742L53.4279 97.9667Z" stroke="#162640" stroke-width="2.99317" stroke-linecap="round" stroke-linejoin="round"/>
<path d="M41.0515 32.3562L31.7128 16.9639" stroke="#162640" stroke-width="2.99317" stroke-linecap="round" stroke-linejoin="round"/>
<path d="M56.8029 29.2213L52.0288 1.49707" stroke="#162640" stroke-width="2.99317" stroke-linecap="round" stroke-linejoin="round"/>
<path d="M71.5518 28.7948L77.2537 1.49707" stroke="#162640" stroke-width="2.99317" stroke-linecap="round" stroke-linejoin="round"/>
<path d="M86.5176 32.3562L96.9937 16.9639" stroke="#162640" stroke-width="2.99317" stroke-linecap="round" stroke-linejoin="round"/>
</svg>
