<svg width="155" height="107" viewBox="0 0 155 107" fill="none" xmlns="http://www.w3.org/2000/svg">
<path d="M105.619 87.7282V87.8927C105.619 90.0984 103.832 91.878 101.633 91.878H47.9853C45.7795 91.878 44 90.091 44 87.8927V5.4804C44 3.27466 45.787 1.49512 47.9853 1.49512H101.633C103.839 1.49512 105.619 3.28214 105.619 5.4804V23.5001" stroke="#162640" stroke-width="2.99083" stroke-linecap="round" stroke-linejoin="round"/>
<path d="M104.415 73.2667C113.479 73.2667 120.827 65.9188 120.827 56.8546C120.827 47.7904 113.479 40.4424 104.415 40.4424C95.3505 40.4424 88.0026 47.7904 88.0026 56.8546C88.0026 65.9188 95.3505 73.2667 104.415 73.2667Z" stroke="#162640" stroke-width="2.99083" stroke-linecap="round" stroke-linejoin="round"/>
<path d="M104.415 82.1128C118.364 82.1128 129.672 70.8046 129.672 56.8552C129.672 42.9058 118.364 31.5977 104.415 31.5977C90.4654 31.5977 79.1572 42.9058 79.1572 56.8552C79.1572 70.8046 90.4654 82.1128 104.415 82.1128Z" stroke="#162640" stroke-width="2.99083" stroke-linecap="round" stroke-linejoin="round"/>
<path d="M96.0254 56.855L101.723 61.9693L112.355 51.5762" stroke="#162640" stroke-width="2.99083" stroke-linecap="round" stroke-linejoin="round"/>
<path d="M92.6162 8.96484H58.0123C57.1658 8.96484 56.4795 9.6511 56.4795 10.4976V14.625C56.4795 15.4715 57.1658 16.1578 58.0123 16.1578H92.6162C93.4627 16.1578 94.149 15.4715 94.149 14.625V10.4976C94.149 9.6511 93.4627 8.96484 92.6162 8.96484Z" stroke="#162640" stroke-width="2.99083" stroke-linecap="round" stroke-linejoin="round"/>
<path d="M52.0902 27.6943H90.0214" stroke="#162640" stroke-width="2.99083" stroke-linecap="round" stroke-linejoin="round"/>
<path d="M52.0902 38.3271H77.6992" stroke="#162640" stroke-width="2.99083" stroke-linecap="round" stroke-linejoin="round"/>
<path d="M52.0902 48.541H72.1437" stroke="#162640" stroke-width="2.99083" stroke-linecap="round" stroke-linejoin="round"/>
<path d="M52.0902 58.4102H72.4578" stroke="#162640" stroke-width="2.99083" stroke-linecap="round" stroke-linejoin="round"/>
<path d="M52.0902 68.8555H72.1437" stroke="#162640" stroke-width="2.99083" stroke-linecap="round" stroke-linejoin="round"/>
<path d="M52.0902 79.0166H79.1572" stroke="#162640" stroke-width="2.99083" stroke-linecap="round" stroke-linejoin="round"/>
<path d="M118.958 78.2921L123.519 82.8157L124.304 86.128L143.669 104.716C143.669 104.716 147.797 106.286 151.146 103.079C154.496 99.8709 152.283 96.0277 152.283 96.0277L132.768 76.8714L129.672 76.5873L125.223 72.46" stroke="#162640" stroke-width="2.99083" stroke-linecap="round" stroke-linejoin="round"/>
<path d="M129.672 90.0451L137.434 82.3213" stroke="#162640" stroke-width="2.99083" stroke-linecap="round" stroke-linejoin="round"/>
<path d="M124.147 84.6252L131.908 76.9014" stroke="#162640" stroke-width="2.99083" stroke-linecap="round" stroke-linejoin="round"/>
</svg>
