<svg width="99" height="103" viewBox="0 0 99 103" fill="none" xmlns="http://www.w3.org/2000/svg">
<path d="M22.3572 77.902L19.6001 74.1293C19.0197 73.335 18.8593 72.304 19.1877 71.3646L20.929 66.3241C21.2727 65.3236 21.0665 64.2086 20.3868 63.3991L18.1262 60.7184C17.3396 59.7867 16.0718 59.4201 14.9109 59.7867L9.93914 61.3599C8.58736 61.7876 7.11339 61.2148 6.41077 59.9776L2.25615 52.6765C1.45425 51.2712 1.90485 49.4918 3.2719 48.6364L8.70955 45.2226C9.48855 44.7338 10.0002 43.9166 10.0995 43.0002L10.4279 40.0599C10.5425 38.9983 10.0919 37.9444 9.22889 37.3105L2.74493 32.4991C1.61463 31.659 1.2175 30.1545 1.78265 28.8714L5.21173 21.0281C5.80743 19.661 7.31196 18.9431 8.74774 19.325L14.7887 20.9364C15.8045 21.2114 16.8966 20.9288 17.6527 20.1956L20.2035 17.7364C20.9825 16.988 21.3032 15.873 21.0359 14.819L19.5543 9.00716C19.203 7.62484 19.8675 6.18142 21.1505 5.55517L28.6578 1.88933C29.9485 1.26308 31.4989 1.62966 32.3695 2.7676L37.1427 9.00716C37.769 9.82434 38.7618 10.2673 39.7928 10.1756L42.5116 9.94654C43.3746 9.87017 44.1613 9.43485 44.6806 8.73986L49.1254 2.74469C49.9655 1.61439 51.47 1.21726 52.7607 1.78241L59.7487 4.86018C61.0623 5.44061 61.7802 6.86112 61.4747 8.25873L60.016 14.9336C59.8022 15.9264 60.1 16.9575 60.8103 17.683L63.0632 19.9894C63.8422 20.7837 64.9878 21.0815 66.057 20.776L71.93 19.0729C73.1825 18.714 74.519 19.1951 75.2598 20.2643L79.2617 26.122" stroke="#162640" stroke-width="3.05487" stroke-linecap="round" stroke-linejoin="round"/>
<path d="M60.5048 51.9354C60.5048 51.9354 64.6365 44.4433 58.5268 36.4931C52.417 28.5428 42.4276 30.6735 42.4276 30.6735L50.6681 38.1427L49.8891 49.2013L39.1208 49.881L31.6516 42.1217C31.6516 42.1217 29.4445 52.4089 37.9523 58.2208C44.9937 63.0322 52.5011 59.5802 52.5011 59.5802L85.0888 95.368C85.0888 95.368 90.2287 97.9875 94.5895 93.7183C98.9503 89.4492 94.5895 82.9499 94.5895 82.9499L60.4895 51.9431L60.5048 51.9354Z" stroke="#162640" stroke-width="3.05487" stroke-linecap="round" stroke-linejoin="round"/>
<path d="M50.7293 65.3539C50.0266 64.9796 49.1636 65.0866 48.5603 65.6135L43.0692 70.4479C42.8859 70.6159 42.6644 70.7381 42.4276 70.8221L36.7685 72.7925C36.4707 72.8994 36.2034 73.075 35.9819 73.3041L23.0522 87.3794C22.5939 87.8759 22.4259 88.5785 22.6245 89.2276C23.1591 91.0147 24.5796 94.6806 27.8025 97.5292C30.9337 100.302 33.8435 101.042 35.2869 101.241C35.8597 101.317 36.4325 101.119 36.8525 100.722L52.0199 86.1728C52.2109 85.9895 52.3636 85.7604 52.4705 85.516L54.9602 79.4215C55.0366 79.2306 55.1435 79.0549 55.281 78.8946L58.9163 74.6636C59.4203 74.0831 59.5196 73.2507 59.1836 72.5634" stroke="#162640" stroke-width="3.05487" stroke-linecap="round" stroke-linejoin="round"/>
<path d="M67.2102 51.0879L79.0173 39.762C79.3838 39.403 79.4297 38.8302 79.1089 38.4255L78.475 37.6159C78.1313 37.173 78.2154 36.5391 78.6583 36.2031L86.3566 30.3912C86.7537 30.0933 87.3036 30.1315 87.6625 30.4752L94.0548 36.7147C94.4138 37.0661 94.4596 37.6312 94.1541 38.036L88.1895 45.971C87.8305 46.4445 87.1432 46.5056 86.7079 46.1008L85.9976 45.4364C85.5929 45.0622 84.959 45.0774 84.5848 45.4822L73.8011 57.0449" stroke="#162640" stroke-width="3.05487" stroke-linecap="round" stroke-linejoin="round"/>
</svg>
