<svg width="35" height="40" viewBox="0 0 35 40" fill="none" xmlns="http://www.w3.org/2000/svg">
<path d="M17.1974 34.3777L10.4269 30.4842C10.0915 30.2842 9.67065 30.5334 9.67065 30.9201V35.2855C9.67065 35.4691 9.77257 35.6394 9.92379 35.7214L17.2007 39.936C17.352 40.0213 17.5559 40.0213 17.7071 39.936L34.145 30.4842C34.4804 30.2842 34.4804 29.7959 34.145 29.6125L30.3208 27.4133C30.1695 27.3282 29.9656 27.3282 29.8144 27.4133L17.7038 34.381C17.5492 34.463 17.3652 34.463 17.1974 34.3777Z" fill="#212A42"/>
<path d="M4.83377 27.2429V13.0422C4.83377 12.8587 4.93568 12.6882 5.0869 12.6062L17.1974 5.6386C17.3488 5.55345 17.5526 5.55345 17.7038 5.6386L29.8145 12.6064C29.9657 12.6915 30.1696 12.6915 30.3209 12.6064L34.145 10.4072C34.4804 10.2072 34.4804 9.71893 34.145 9.5355L17.7038 0.0639682C17.5526 -0.0213227 17.3488 -0.0213227 17.1974 0.0639682L0.253136 9.81733C0.101919 9.90249 0 10.0696 0 10.2532V29.7599C0 29.9435 0.101919 30.1139 0.253136 30.1958L4.07741 32.3949C4.4128 32.5948 4.83363 32.3458 4.83363 31.9591L4.83377 27.2429Z" fill="#212A42"/>
<path d="M24.596 15.9262L27.1542 14.422C27.4699 14.2351 27.4699 13.7895 27.1542 13.5994L18.1379 8.41136C17.8222 8.22448 17.4243 8.45718 17.4243 8.82099V31.2117C17.4243 31.5755 17.8222 31.8149 18.1379 31.6215L27.1542 26.4301C27.4699 26.2565 27.4699 25.7976 27.1542 25.6076L24.596 24.1032C24.4546 24.0082 24.2606 24.0082 24.1192 24.1032L21.5773 25.5584C21.2618 25.7452 20.8638 25.5125 20.8638 25.1486V14.8808C20.8638 14.5169 21.2618 14.2778 21.5773 14.4711L24.1192 15.9262C24.2639 16.0049 24.4546 16.0049 24.596 15.9262Z" fill="#212A42"/>
<path d="M13.3405 24.6899V15.3232C13.3405 14.9365 12.9196 14.6841 12.5843 14.8874L8.75997 17.0864C8.60876 17.1717 8.50684 17.3388 8.50684 17.5222V22.5104C8.50684 22.694 8.60876 22.8643 8.75997 22.9463L12.5843 25.1455C12.9196 25.3289 13.3405 25.0766 13.3405 24.6899Z" fill="#212A42"/>
<path d="M35.0001 24.6899V15.3232C35.0001 14.9365 34.5793 14.6841 34.2439 14.8874L30.4196 17.0864C30.2684 17.1717 30.1665 17.3388 30.1665 17.5223V22.5105C30.1665 22.694 30.2684 22.8643 30.4196 22.9463L34.2439 25.1455C34.5793 25.3289 35.0001 25.0766 35.0001 24.6899Z" fill="#212A42"/>
</svg>
