<svg width="298" height="47" viewBox="0 0 298 47" fill="none" xmlns="http://www.w3.org/2000/svg">
<path d="M135.843 16.1247C135.871 17.3863 135.965 18.502 135.87 19.5437C135.857 19.6787 135.856 19.7158 135.766 20.0994C135.487 20.0994 135.138 20.0994 134.927 20.0994C134.158 20.1058 133.374 20.0951 132.604 20.0994C131.834 20.1037 131.046 20.0994 130.274 20.0994C129.503 20.0994 128.773 20.0994 127.999 20.0994C127.226 20.0994 126.4 20.0994 125.628 20.0994C124.857 20.0994 124.112 20.0994 123.341 20.0994C122.974 20.0994 122.592 20.0383 122.238 20.0645C122.058 20.0797 121.882 20.1037 121.714 20.143C121.566 20.1778 121.418 20.2148 121.314 20.3086C121.118 20.4851 121.046 20.934 121.338 21.239C121.454 21.3611 121.614 21.4331 121.763 21.4832C122.313 21.6618 122.89 21.5768 123.399 21.5813C123.98 21.5856 124.562 21.59 125.14 21.592C126.301 21.5965 127.457 21.5942 128.615 21.592C129.555 21.592 130.492 21.592 131.431 21.592C134.421 21.6008 136.622 23.7124 136.567 26.5082C136.514 29.1645 134.508 31.0123 131.643 31.0188C127.328 31.0297 123.01 31.0254 118.692 31.0275C118.334 31.0275 117.977 31.0275 117.426 31.0275C117.42 29.7441 117.341 28.5652 117.397 27.4474C117.411 27.1467 117.397 27.4474 117.402 27.0747C121.495 27.0595 126.842 27.0878 130.945 27.0987C131.274 27.0987 131.607 27.1139 131.884 27.0115C132.083 26.9374 132.246 26.8003 132.297 26.5996C132.349 26.3992 132.275 26.1269 132.078 25.9198C131.927 25.7608 131.72 25.6561 131.525 25.606C131.246 25.5362 130.98 25.569 130.72 25.5668C130.429 25.5647 130.138 25.5604 129.849 25.5581C129.268 25.5538 128.689 25.5493 128.108 25.5473C126.95 25.5428 125.793 25.5428 124.637 25.5473C123.748 25.5516 122.858 25.5559 121.97 25.5647C118.851 25.593 116.511 23.4205 116.745 20.5789C116.976 17.7767 118.532 16.1358 121.712 16.1227C126.347 16.1052 130.994 16.1184 135.84 16.1184L135.843 16.1247Z" fill="#212A42"/>
<path d="M159.039 31.0318C159.003 27.7873 158.968 24.7562 158.935 21.7272C158.919 20.1583 158.943 18.6002 158.877 17.016C158.851 16.3689 159.048 16.1095 159.765 16.1138C164.824 16.1466 169.861 16.1204 174.913 16.1356C177.073 16.1421 178.734 17.6043 178.92 19.6898C179.029 20.91 179.033 22.1063 178.992 23.2809C178.95 24.5229 178.494 25.1048 176.465 26.8676C177.44 27.0114 178.13 27.1139 179.02 27.2446C179.045 28.4147 179.083 29.5608 179.075 30.6898C179.074 30.8401 178.872 31.0057 178.705 31.0078C177.658 31.0166 176.615 31.0646 175.528 30.938C174.496 30.8183 173.576 30.0969 172.976 29.1796C171.704 27.2315 170.243 26.5626 168.385 26.8436C167.38 26.9961 166.233 26.8698 164.93 26.8698C164.925 25.5733 164.872 24.4139 164.955 23.307C164.973 23.0739 165.458 22.9322 165.797 22.9279C168.326 22.8974 170.876 22.917 173.415 22.9127C174.768 22.9105 175.143 22.479 175.057 21.2043C175.002 20.374 174.562 20.0363 173.75 20.0385C170.521 20.0428 167.297 20.0646 164.053 20.032C163.332 20.0254 163.281 20.4199 163.289 20.9668C163.337 24.0088 163.347 27.0378 163.415 30.0863C163.422 30.4502 163.415 30.0863 163.401 31.0298L162.488 31.0297C161.366 31.0297 160.299 31.0275 159.035 31.0275L159.039 31.0318Z" fill="#212A42"/>
<path d="M83.3251 16.1269C85.2121 16.1269 87.0952 16.1161 88.988 16.1313C91.6022 16.1532 93.642 17.9399 93.7818 20.4045C93.8971 22.4419 94.0036 24.4902 93.8685 26.4405C93.6632 29.4172 91.9836 31.0646 88.6015 31.0406C85.0006 31.0144 81.4235 31.0581 77.8308 31.0538C75.1628 31.0516 73.1457 29.2844 72.996 26.7348C72.8742 24.6276 72.7663 22.5052 72.9385 20.5026C73.178 17.7113 74.8004 16.1206 77.9916 16.1292C79.7713 16.1336 81.5477 16.1292 83.3259 16.1292L83.3251 16.1269ZM83.4312 27.0898C83.4312 27.0898 83.4328 27.0942 83.4344 27.0985C85.0295 27.0985 86.6164 27.0767 88.2208 27.1073C89.1264 27.1225 89.4916 26.665 89.5053 25.8957C89.531 24.4118 89.5341 22.9191 89.5075 21.4177C89.4884 20.3738 89.1637 20.0645 88.0791 20.06C84.9188 20.0469 81.773 20.0666 78.6153 20.06C77.7023 20.06 77.2652 20.448 77.2818 21.3217C77.3136 22.8253 77.2855 24.3092 77.3047 25.8085C77.3165 26.7978 77.5999 27.0724 78.6451 27.0876C80.2483 27.1094 81.8377 27.0941 83.4328 27.0941L83.4312 27.0898Z" fill="#212A42"/>
<path d="M71.4172 16.1227C71.4178 17.38 71.4877 18.986 71.5477 20.0516C70.9419 20.0516 70.7733 20.032 70.3666 20.0342C66.2392 20.0625 62.0924 20.0449 57.9535 20.0428C56.0903 20.0428 55.944 20.1822 55.9638 21.9169C55.978 23.1808 55.9766 24.4381 56.0024 25.7041C56.0255 26.7937 56.3445 27.1053 57.4958 27.1075C61.7129 27.1205 65.9196 27.1118 70.1317 27.1118C70.5153 27.1118 70.8987 27.1118 71.4588 27.1118C71.4873 28.3909 71.5529 29.4892 71.5028 30.546C71.4926 30.7814 71.5028 30.546 71.4819 31.0035C66.5909 31.0298 61.0522 31.0427 56.1368 31.0035C54.1895 30.9883 52.4127 29.585 51.9118 27.6412C51.6542 26.6476 51.6642 25.6758 51.6339 24.7191C51.5934 23.4487 51.6323 22.2044 51.6317 20.9471C51.631 17.9444 53.561 16.127 56.7679 16.1249C61.1964 16.1206 65.625 16.1227 70.0552 16.1227C70.4495 16.1227 70.8417 16.1227 71.4149 16.1227H71.4172Z" fill="#212A42"/>
<path d="M222.874 16.1226C222.875 17.3799 222.944 18.9858 223.004 20.0514C222.399 20.0514 222.23 20.0319 221.823 20.034C217.696 20.0623 213.549 20.0448 209.41 20.0426C207.547 20.0426 207.401 20.1821 207.421 21.9167C207.435 23.1806 207.433 24.4379 207.459 25.704C207.482 26.7935 207.801 27.1051 208.953 27.1073C213.17 27.1204 217.376 27.1116 221.588 27.1116C221.972 27.1116 222.355 27.1116 222.916 27.1116C222.944 28.3907 223.01 29.489 222.96 30.5458C222.949 30.7812 222.96 30.5458 222.939 31.0034C218.048 31.0297 212.509 31.0426 207.593 31.0034C205.646 30.9882 203.87 29.5848 203.369 27.6411C203.111 26.6475 203.121 25.6757 203.091 24.7189C203.05 23.4486 203.089 22.2042 203.088 20.9469C203.088 17.9442 205.018 16.1269 208.225 16.1247C212.653 16.1204 217.082 16.1226 221.512 16.1226C221.906 16.1226 222.298 16.1226 222.872 16.1226H222.874Z" fill="#212A42"/>
<path d="M111.041 26.7543C111.055 26.1615 111.076 25.7215 111.072 25.2724C111.059 23.2569 111.04 21.2391 111.019 19.2212C111.009 18.3191 110.967 17.406 110.993 16.5169C110.998 16.3447 111.202 16.1509 111.388 16.1464C112.507 16.1138 113.646 16.1312 114.782 16.1378C115.135 16.1378 115.346 16.2946 115.349 16.6585C115.358 17.9137 115.369 19.1709 115.385 20.4284C115.4 21.5593 115.424 22.6924 115.434 23.8213C115.441 25.0197 115.431 26.2138 115.436 27.4123C115.442 28.4845 115.443 29.5565 115.488 30.6395C115.5 30.9294 115.4 31.0297 115.124 31.0297C113.535 31.0231 111.96 31.0558 110.357 31.0034C109.168 30.9642 108.17 30.2648 107.301 29.2209C106.017 27.6781 104.697 26.1572 103.395 24.623C102.357 23.4006 101.33 22.1738 100.289 20.9536C100.188 20.8358 100.027 20.7552 99.8948 20.6571C99.8496 20.7638 99.7626 20.8576 99.7624 20.9797C99.7676 22.7688 99.7855 24.5621 99.7958 26.3532C99.8019 27.8176 99.8081 29.282 99.7892 30.7376C99.7884 30.8639 99.6328 31.0078 99.4963 31.01C98.3277 31.0318 97.1465 31.0252 95.9669 31.0231C95.5528 31.0231 95.4355 30.7616 95.4274 30.4651C95.4096 29.8397 95.4162 29.2209 95.4111 28.6C95.4028 27.4451 95.3937 26.288 95.3876 25.133C95.3813 23.9781 95.3848 22.8255 95.3757 21.6683C95.3693 20.7814 95.3476 19.888 95.3316 18.9989C95.3159 18.1513 95.2775 17.295 95.3046 16.4625C95.3099 16.3077 95.5376 16.153 95.7221 16.1509C97.2554 16.1312 98.7852 16.0964 100.348 16.1682C101.502 16.2227 102.542 16.8198 103.424 17.905C104.62 19.3759 105.879 20.8163 107.11 22.2697C108.225 23.5859 109.334 24.9064 110.452 26.2204C110.581 26.3729 110.755 26.4993 111.037 26.7542L111.041 26.7543Z" fill="#212A42"/>
<path d="M145.277 20.0929C144.961 20.0929 144.639 20.095 144.386 20.095C142.332 20.095 140.275 20.095 138.22 20.095C137.893 20.095 137.64 20.0994 137.496 20.0994C137.483 19.4347 137.488 19.6941 137.483 19.4347C137.46 18.4105 137.458 17.3951 137.486 16.3884C137.489 16.2575 137.486 16.3884 137.496 16.1247C138.011 16.1247 138.865 16.1247 139.379 16.1247C145.003 16.1247 150.63 16.1247 156.254 16.1247C156.419 16.1247 156.639 16.1247 157.382 16.1247C157.406 16.7304 157.397 16.2642 157.406 16.7304C157.422 17.6675 157.445 18.6044 157.463 19.5414C157.466 19.7288 157.463 19.5414 157.467 20.0992L156.859 20.0994C154.597 20.0994 151.712 20.0994 149.566 20.0994C149.62 20.9514 149.575 20.2061 149.62 20.9514C149.676 21.8949 149.671 22.8232 149.686 23.7558C149.703 24.9455 149.718 26.1353 149.73 27.323C149.738 28.199 149.734 30.025 149.732 30.0686C149.712 30.5175 149.732 30.0686 149.743 31.0383C149.486 31.0383 149.189 31.0361 148.608 31.0383C147.04 31.0449 147.039 31.0383 145.887 31.0383H145.372C145.363 30.7921 145.364 30.6962 145.362 30.5088C145.346 28.7852 145.318 27.0572 145.307 25.3357C145.297 23.9367 145.312 22.5464 145.304 21.1476C145.303 20.8402 145.292 20.5374 145.282 20.095L145.277 20.0929Z" fill="#212A42"/>
<path d="M201.395 16.1226C201.406 16.7936 201.411 17.345 201.417 17.9095C201.444 20.7575 201.48 23.6077 201.497 26.4514C201.511 28.8004 199.496 31.0733 196.647 31.0406C192.948 30.9991 189.278 31.0318 185.595 31.0361C184.784 31.0361 183.967 30.9425 183.095 30.4741C181.696 29.7223 180.716 28.3451 180.624 26.7957C180.526 25.1614 180.551 23.5598 180.534 21.9495C180.514 20.1147 180.501 18.2822 180.506 16.456C180.505 16.3841 180.502 16.2294 180.508 16.1227L180.765 16.1226C182.02 16.1226 183.245 16.1226 184.489 16.1226C184.559 16.1226 184.489 16.1226 184.805 16.1226C184.807 16.3252 184.8 16.5518 184.802 16.7262C184.835 19.7987 184.865 22.869 184.901 25.9415C184.911 26.7804 185.302 27.1334 186.207 27.1356C189.418 27.1399 192.63 27.1444 195.84 27.1465C196.795 27.1465 197.168 26.7805 197.161 25.8738C197.133 22.7621 197.112 19.6526 197.07 16.5386C197.068 16.3992 197.068 16.3469 197.079 16.1267L201.396 16.1269L201.395 16.1226Z" fill="#212A42"/>
<path d="M232.14 20.0884C231.824 20.0884 231.502 20.0906 231.249 20.0906C229.195 20.0906 227.138 20.0906 225.083 20.0906C224.756 20.0906 224.503 20.0951 224.359 20.0951C224.346 19.4303 224.351 19.6896 224.346 19.4303C224.323 18.4062 224.321 17.3908 224.349 16.3839C224.352 16.2532 224.349 16.3839 224.359 16.1204C224.874 16.1204 225.728 16.1204 226.242 16.1204C231.866 16.1204 237.493 16.1204 243.117 16.1204C243.282 16.1204 243.502 16.1204 244.245 16.1204C244.269 16.7262 244.261 16.2597 244.269 16.7262C244.285 17.663 244.308 18.6001 244.326 19.5371C244.329 19.7244 244.326 19.5371 244.33 20.0949L243.722 20.0951C241.46 20.0951 238.575 20.0951 236.429 20.0951C236.483 20.9469 236.438 20.2018 236.483 20.9469C236.539 21.8904 236.534 22.8189 236.549 23.7515C236.566 24.9413 236.581 26.131 236.593 27.3185C236.601 28.1945 236.597 30.0207 236.595 30.0643C236.576 30.5131 236.595 30.0643 236.607 31.034C236.349 31.034 236.052 31.0318 235.471 31.034C233.903 31.0404 233.902 31.034 232.75 31.034H232.235C232.226 30.7877 232.227 30.6919 232.225 30.5045C232.209 28.7808 232.181 27.0529 232.17 25.3313C232.16 23.9324 232.175 22.5421 232.167 21.1431C232.166 20.8359 232.155 20.5331 232.145 20.0908L232.14 20.0884Z" fill="#212A42"/>
<path d="M255.058 31.0318C255.08 27.7873 255.098 24.7561 255.12 21.7272C255.131 20.1582 255.183 18.6002 255.145 17.0159C255.131 16.3688 255.333 16.1095 256.049 16.1138C261.107 16.1465 266.145 16.1204 271.197 16.1356C273.357 16.1421 274.992 17.6043 275.141 19.6898C275.228 20.91 275.211 22.1063 275.149 23.2808C275.063 24.9415 275.076 26.7938 272.85 26.7938C270.635 26.7938 263.947 26.8698 261.023 26.8698C261.041 25.5733 261.009 24.4139 261.112 23.307C261.134 23.0739 261.621 22.9322 261.96 22.9279C264.49 22.8974 267.04 22.9169 269.579 22.9126C270.932 22.9105 271.314 22.4789 271.251 21.2043C271.211 20.3739 270.777 20.0363 269.965 20.0385C266.735 20.0428 263.511 20.0646 260.268 20.032C259.547 20.0254 259.489 20.4199 259.487 20.9668C259.481 24.0088 259.438 27.0378 259.451 30.0863C259.452 30.4502 259.451 30.0863 259.42 31.0298L258.507 31.0297C257.385 31.0297 256.319 31.0275 255.055 31.0275L255.058 31.0318Z" fill="#212A42"/>
<path d="M296.993 16.1226C296.971 17.3799 297.013 18.9858 297.053 20.0514C296.448 20.0514 296.28 20.0319 295.873 20.034C291.745 20.0623 287.598 20.0448 283.459 20.0426C281.596 20.0426 281.448 20.1821 281.437 21.9167C281.428 23.1806 281.405 24.4379 281.408 25.704C281.412 26.7935 281.725 27.1051 282.876 27.1073C287.093 27.1204 291.3 27.1116 295.512 27.1116C295.896 27.1116 296.279 27.1116 296.839 27.1116C296.845 28.3907 296.891 29.489 296.822 30.5458C296.808 30.7812 296.822 30.5458 296.793 31.0034C291.902 31.0297 286.363 31.0426 281.448 31.0034C279.501 30.9882 277.749 29.5848 277.283 27.6411C277.043 26.6475 277.07 25.6757 277.057 24.7189C277.039 23.4486 277.1 22.2042 277.122 20.9469C277.174 17.9442 279.137 16.1269 282.344 16.1247C286.772 16.1204 291.201 16.1226 295.631 16.1226C296.025 16.1226 296.417 16.1226 296.991 16.1226H296.993Z" fill="#212A42"/>
<path d="M19.8973 39.9068L12.0639 35.3871C11.6759 35.155 11.189 35.4441 11.189 35.8931V40.9606C11.189 41.1737 11.3069 41.3714 11.4818 41.4666L19.9011 46.3591C20.0762 46.4581 20.3121 46.4581 20.487 46.3591L39.5054 35.3871C39.8935 35.155 39.8935 34.5881 39.5054 34.3752L35.0809 31.8223C34.9058 31.7235 34.67 31.7235 34.495 31.8223L20.4832 39.9106C20.3044 40.0058 20.0914 40.0058 19.8973 39.9068Z" fill="#212A42"/>
<path d="M5.5926 31.6245V15.1399C5.5926 14.9268 5.71052 14.7289 5.88548 14.6337L19.8972 6.54548C20.0723 6.44663 20.3081 6.44663 20.4831 6.54548L34.495 14.6339C34.6699 14.7328 34.9058 14.7328 35.0809 14.6339L39.5054 12.081C39.8934 11.8489 39.8934 11.2821 39.5054 11.0691L20.4831 0.0742564C20.3081 -0.0247522 20.0723 -0.0247522 19.8972 0.0742564L0.292875 11.3963C0.117918 11.4951 0 11.6892 0 11.9022V34.5463C0 34.7594 0.117918 34.9573 0.292875 35.0523L4.71751 37.6051C5.10555 37.8371 5.59245 37.5481 5.59245 37.0992L5.5926 31.6245Z" fill="#212A42"/>
<path d="M28.4572 18.4877L31.417 16.7415C31.7823 16.5246 31.7823 16.0073 31.417 15.7866L20.9853 9.76418C20.62 9.54725 20.1597 9.81738 20.1597 10.2397V36.2316C20.1597 36.6539 20.62 36.9317 20.9853 36.7073L31.417 30.681C31.7823 30.4794 31.7823 29.9467 31.417 29.7261L28.4572 27.9798C28.2936 27.8695 28.0691 27.8695 27.9056 27.9798L24.9647 29.6691C24.5995 29.8858 24.1391 29.6157 24.1391 29.1934V17.2741C24.1391 16.8518 24.5995 16.5741 24.9647 16.7986L27.9056 18.4877C28.073 18.579 28.2936 18.579 28.4572 18.4877Z" fill="#212A42"/>
<path d="M15.4345 28.6608V17.7877C15.4345 17.3388 14.9476 17.0458 14.5596 17.2818L10.1349 19.8345C9.95996 19.9335 9.84204 20.1275 9.84204 20.3404V26.1309C9.84204 26.344 9.95996 26.5417 10.1349 26.6368L14.5596 29.1897C14.9476 29.4026 15.4345 29.1097 15.4345 28.6608Z" fill="#212A42"/>
<path d="M40.4943 28.6608V17.7877C40.4943 17.3388 40.0074 17.0458 39.6194 17.2818L35.1947 19.8345C35.0198 19.9335 34.9019 20.1275 34.9019 20.3404V26.1309C34.9019 26.344 35.0198 26.5417 35.1947 26.6369L39.6194 29.1897C40.0074 29.4026 40.4943 29.1098 40.4943 28.6608Z" fill="#212A42"/>
</svg>
