<svg width="397" height="63" viewBox="0 0 397 63" fill="none" xmlns="http://www.w3.org/2000/svg">
<path d="M181.548 21.55C181.586 23.236 181.711 24.7271 181.584 26.1194C181.567 26.2998 181.565 26.3493 181.445 26.8619C181.072 26.8619 180.606 26.8619 180.324 26.8619C179.296 26.8705 178.248 26.8562 177.219 26.8619C176.19 26.8677 175.137 26.8619 174.106 26.8619C173.075 26.8619 172.099 26.8619 171.065 26.8619C170.031 26.8619 168.928 26.8619 167.897 26.8619C166.866 26.8619 165.87 26.8619 164.839 26.8619C164.35 26.8619 163.839 26.7803 163.366 26.8153C163.126 26.8356 162.89 26.8677 162.665 26.9203C162.467 26.9667 162.27 27.0162 162.13 27.1416C161.869 27.3774 161.773 27.9774 162.163 28.385C162.317 28.5482 162.531 28.6443 162.731 28.7113C163.466 28.9501 164.236 28.8365 164.917 28.8424C165.694 28.8482 166.471 28.8541 167.244 28.8568C168.795 28.8628 170.34 28.8597 171.889 28.8568C173.144 28.8568 174.396 28.8568 175.651 28.8568C179.648 28.8685 182.589 31.6906 182.515 35.427C182.445 38.9771 179.764 41.4466 175.935 41.4552C170.169 41.4698 164.397 41.4641 158.626 41.4669C158.149 41.4669 157.671 41.4669 156.934 41.4669C156.926 39.7517 156.822 38.1762 156.896 36.6822C156.915 36.2803 156.896 36.6822 156.902 36.1842C162.372 36.1638 169.519 36.2016 175.002 36.2162C175.442 36.2162 175.886 36.2366 176.258 36.0997C176.523 36.0007 176.74 35.8174 176.809 35.5493C176.878 35.2813 176.78 34.9175 176.517 34.6407C176.315 34.4282 176.039 34.2883 175.778 34.2213C175.405 34.1281 175.049 34.1718 174.701 34.169C174.313 34.1661 173.923 34.1603 173.538 34.1572C172.761 34.1515 171.987 34.1455 171.211 34.1429C169.663 34.1369 168.116 34.1369 166.572 34.1429C165.383 34.1486 164.194 34.1544 163.007 34.1661C158.84 34.2039 155.711 31.3004 156.024 27.5028C156.333 23.7577 158.412 21.5648 162.663 21.5473C168.858 21.5239 175.067 21.5415 181.544 21.5415L181.548 21.55Z" fill="#212A42"/>
<path d="M212.549 41.4728C212.5 37.1366 212.453 33.0856 212.41 29.0375C212.388 26.9407 212.42 24.8585 212.332 22.7412C212.297 21.8763 212.561 21.5297 213.519 21.5355C220.28 21.5792 227.011 21.5443 233.764 21.5646C236.65 21.5733 238.871 23.5275 239.119 26.3146C239.264 27.9454 239.27 29.5442 239.215 31.1139C239.159 32.7739 238.549 33.5516 235.838 35.9075C237.141 36.0996 238.063 36.2367 239.253 36.4113C239.286 37.9751 239.336 39.5069 239.325 41.0156C239.325 41.2166 239.055 41.4379 238.832 41.4407C237.432 41.4524 236.038 41.5165 234.586 41.3474C233.207 41.1874 231.976 40.2233 231.175 38.9973C229.475 36.3938 227.522 35.4998 225.039 35.8754C223.697 36.0793 222.163 35.9104 220.421 35.9104C220.415 34.1777 220.344 32.6282 220.456 31.1489C220.479 30.8374 221.128 30.6479 221.58 30.6422C224.96 30.6015 228.369 30.6276 231.762 30.6219C233.57 30.619 234.071 30.0422 233.956 28.3387C233.883 27.229 233.295 26.7778 232.21 26.7806C227.893 26.7864 223.585 26.8156 219.25 26.772C218.286 26.7632 218.218 27.2904 218.228 28.0213C218.292 32.0868 218.306 36.135 218.397 40.2092C218.407 40.6955 218.397 40.2092 218.378 41.4701L217.158 41.4699C215.658 41.4699 214.233 41.467 212.544 41.467L212.549 41.4728Z" fill="#212A42"/>
<path d="M111.36 21.5528C113.882 21.5528 116.399 21.5384 118.929 21.5587C122.422 21.5879 125.149 23.9759 125.335 27.2697C125.489 29.9926 125.632 32.73 125.451 35.3366C125.177 39.3148 122.932 41.5164 118.412 41.4843C113.6 41.4494 108.819 41.5078 104.017 41.502C100.452 41.4991 97.7561 39.1373 97.5559 35.7298C97.3932 32.9137 97.249 30.0772 97.4791 27.4008C97.7992 23.6703 99.9675 21.5444 104.232 21.5559C106.611 21.5618 108.985 21.5559 111.361 21.5559L111.36 21.5528ZM111.502 36.2042C111.502 36.2042 111.504 36.2102 111.507 36.216C113.638 36.216 115.759 36.1868 117.903 36.2277C119.114 36.248 119.602 35.6365 119.62 34.6084C119.654 32.6252 119.658 30.6303 119.623 28.6237C119.597 27.2286 119.163 26.8152 117.714 26.8093C113.49 26.7918 109.286 26.8181 105.066 26.8093C103.846 26.8093 103.262 27.3279 103.284 28.4955C103.326 30.505 103.289 32.4882 103.314 34.4919C103.33 35.8141 103.709 36.181 105.106 36.2014C107.248 36.2305 109.373 36.21 111.504 36.21L111.502 36.2042Z" fill="#212A42"/>
<path d="M95.4458 21.5474C95.4466 23.2277 95.5401 25.374 95.6203 26.7981C94.8107 26.7981 94.5853 26.772 94.0419 26.7748C88.5257 26.8127 82.9836 26.7892 77.4522 26.7864C74.9622 26.7864 74.7666 26.9727 74.7931 29.291C74.812 30.9801 74.8101 32.6605 74.8446 34.3525C74.8755 35.8086 75.3018 36.2251 76.8405 36.228C82.4765 36.2455 88.0985 36.2337 93.7279 36.2337C94.2406 36.2337 94.753 36.2337 95.5015 36.2337C95.5395 37.9432 95.6272 39.4111 95.5603 40.8235C95.5467 41.138 95.5603 40.8235 95.5323 41.4349C88.9958 41.4701 81.5934 41.4873 75.0242 41.4349C72.4218 41.4146 70.0472 39.5391 69.3778 36.9414C69.0334 35.6134 69.0468 34.3147 69.0063 33.0361C68.9522 31.3383 69.0042 29.6752 69.0034 27.9949C69.0024 23.9819 71.5818 21.5531 75.8677 21.5502C81.7861 21.5445 87.7048 21.5474 93.6256 21.5474C94.1526 21.5474 94.6768 21.5474 95.4427 21.5474H95.4458Z" fill="#212A42"/>
<path d="M297.861 21.5471C297.863 23.2274 297.956 25.3737 298.036 26.7978C297.226 26.7978 297.001 26.7717 296.458 26.7746C290.941 26.8124 285.399 26.789 279.868 26.7861C277.378 26.7861 277.182 26.9725 277.209 29.2908C277.228 30.9799 277.226 32.6602 277.26 34.3522C277.291 35.8084 277.717 36.2249 279.256 36.2277C284.892 36.2452 290.514 36.2335 296.144 36.2335C296.656 36.2335 297.169 36.2335 297.917 36.2335C297.955 37.943 298.043 39.4108 297.976 40.8232C297.962 41.1378 297.976 40.8232 297.948 41.4347C291.411 41.4698 284.009 41.4871 277.44 41.4347C274.838 41.4144 272.463 39.5388 271.793 36.9411C271.449 35.6132 271.462 34.3144 271.422 33.0358C271.368 31.338 271.42 29.675 271.419 27.9947C271.418 23.9817 273.998 21.5529 278.283 21.55C284.202 21.5442 290.121 21.5471 296.041 21.5471C296.568 21.5471 297.092 21.5471 297.858 21.5471H297.861Z" fill="#212A42"/>
<path d="M148.402 35.756C148.421 34.9637 148.449 34.3757 148.443 33.7755C148.425 31.0818 148.4 28.3851 148.372 25.6883C148.359 24.4826 148.303 23.2624 148.337 22.0741C148.344 21.844 148.617 21.5849 148.865 21.579C150.361 21.5354 151.884 21.5586 153.401 21.5675C153.873 21.5675 154.155 21.777 154.159 22.2634C154.171 23.9408 154.186 25.6211 154.208 27.3016C154.227 28.8131 154.259 30.3274 154.272 31.8361C154.282 33.4377 154.269 35.0336 154.275 36.6354C154.283 38.0683 154.285 39.5011 154.344 40.9484C154.361 41.3359 154.228 41.4698 153.858 41.4698C151.734 41.461 149.63 41.5048 147.487 41.4347C145.898 41.3823 144.565 40.4476 143.403 39.0525C141.687 36.9907 139.924 34.958 138.183 32.9076C136.796 31.2739 135.424 29.6343 134.032 28.0035C133.897 27.8461 133.682 27.7385 133.505 27.6074C133.445 27.75 133.328 27.8753 133.328 28.0384C133.335 30.4295 133.359 32.8262 133.373 35.2199C133.381 37.177 133.389 39.1341 133.364 41.0795C133.363 41.2483 133.155 41.4407 132.973 41.4435C131.411 41.4727 129.832 41.4639 128.256 41.461C127.702 41.461 127.546 41.1115 127.535 40.7154C127.511 39.8795 127.52 39.0525 127.513 38.2226C127.502 36.6792 127.49 35.1328 127.481 33.5891C127.473 32.0457 127.478 30.5053 127.466 28.9587C127.457 27.7734 127.428 26.5794 127.407 25.3912C127.386 24.2585 127.334 23.114 127.37 22.0014C127.378 21.7945 127.682 21.5878 127.929 21.5849C129.978 21.5586 132.022 21.5122 134.111 21.6081C135.653 21.6809 137.043 22.4789 138.222 23.9293C139.82 25.895 141.503 27.82 143.148 29.7625C144.638 31.5215 146.12 33.2863 147.615 35.0424C147.787 35.2462 148.019 35.4151 148.396 35.7558L148.402 35.756Z" fill="#212A42"/>
<path d="M194.156 26.8534C193.734 26.8534 193.304 26.8562 192.966 26.8562C190.22 26.8562 187.471 26.8562 184.725 26.8562C184.288 26.8562 183.949 26.862 183.757 26.862C183.74 25.9738 183.747 26.3204 183.74 25.9738C183.71 24.6049 183.707 23.2478 183.744 21.9024C183.748 21.7276 183.744 21.9024 183.758 21.55C184.445 21.55 185.587 21.55 186.274 21.55C193.79 21.55 201.31 21.55 208.826 21.55C209.048 21.55 209.342 21.55 210.335 21.55C210.366 22.3596 210.355 21.7364 210.366 22.3596C210.388 23.6119 210.418 24.864 210.443 26.1164C210.446 26.3668 210.443 26.1164 210.448 26.8618L209.635 26.862C206.612 26.862 202.757 26.862 199.888 26.862C199.961 28.0007 199.901 27.0046 199.961 28.0007C200.035 29.2617 200.029 30.5023 200.049 31.7486C200.072 33.3387 200.091 34.9288 200.107 36.5161C200.119 37.6868 200.112 40.1272 200.111 40.1855C200.084 40.7855 200.111 40.1855 200.126 41.4814C199.782 41.4814 199.385 41.4785 198.608 41.4814C196.512 41.4902 196.512 41.4814 194.971 41.4814H194.284C194.271 41.1525 194.273 41.0242 194.27 40.7738C194.249 38.4703 194.211 36.1608 194.197 33.8602C194.184 31.9905 194.204 30.1324 194.193 28.2629C194.191 27.8521 194.177 27.4474 194.163 26.8562L194.156 26.8534Z" fill="#212A42"/>
<path d="M269.155 21.5471C269.17 22.444 269.177 23.1808 269.185 23.9353C269.222 27.7415 269.269 31.5507 269.293 35.3512C269.311 38.4906 266.618 41.5282 262.81 41.4844C257.867 41.429 252.962 41.4727 248.04 41.4785C246.956 41.4785 245.864 41.3533 244.698 40.7273C242.829 39.7226 241.519 37.882 241.396 35.8113C241.265 33.6272 241.299 31.4866 241.276 29.3345C241.249 26.8825 241.232 24.4333 241.239 21.9928C241.238 21.8966 241.234 21.6899 241.241 21.5473L241.585 21.5471C243.263 21.5471 244.899 21.5471 246.562 21.5471C246.655 21.5471 246.562 21.5471 246.984 21.5471C246.987 21.8179 246.977 22.1208 246.98 22.3538C247.024 26.46 247.065 30.5634 247.112 34.6697C247.125 35.7909 247.648 36.2627 248.858 36.2656C253.15 36.2713 257.442 36.2773 261.732 36.2802C263.008 36.2802 263.507 35.7909 263.497 34.5793C263.46 30.4206 263.432 26.2649 263.375 22.1031C263.373 21.9168 263.373 21.8469 263.388 21.5527L269.158 21.5529L269.155 21.5471Z" fill="#212A42"/>
<path d="M310.245 26.8473C309.823 26.8473 309.393 26.8502 309.055 26.8502C306.309 26.8502 303.56 26.8502 300.813 26.8502C300.377 26.8502 300.038 26.8561 299.846 26.8561C299.829 25.9677 299.836 26.3143 299.829 25.9677C299.799 24.5991 299.796 23.242 299.833 21.8964C299.837 21.7217 299.833 21.8964 299.847 21.5442C300.534 21.5442 301.676 21.5442 302.363 21.5442C309.879 21.5442 317.399 21.5442 324.915 21.5442C325.137 21.5442 325.431 21.5442 326.424 21.5442C326.455 22.3537 326.444 21.7303 326.455 22.3537C326.477 23.6059 326.507 24.8582 326.532 26.1105C326.535 26.3608 326.532 26.1105 326.536 26.8559L325.724 26.8561C322.701 26.8561 318.845 26.8561 315.977 26.8561C316.049 27.9946 315.989 26.9987 316.049 27.9946C316.124 29.2556 316.118 30.4964 316.138 31.7428C316.161 33.3329 316.18 34.923 316.196 36.51C316.208 37.6808 316.201 40.1213 316.2 40.1797C316.173 40.7794 316.2 40.1797 316.215 41.4755C315.871 41.4755 315.474 41.4727 314.697 41.4755C312.601 41.4842 312.6 41.4755 311.06 41.4755H310.373C310.36 41.1464 310.362 41.0184 310.359 40.7679C310.338 38.4642 310.3 36.155 310.286 33.8541C310.273 31.9846 310.292 30.1266 310.282 28.2568C310.28 27.8463 310.266 27.4415 310.252 26.8504L310.245 26.8473Z" fill="#212A42"/>
<path d="M340.875 41.4728C340.903 37.1366 340.928 33.0856 340.957 29.0375C340.972 26.9407 341.041 24.8585 340.991 22.7412C340.972 21.8763 341.242 21.5297 342.199 21.5355C348.959 21.5792 355.692 21.5443 362.444 21.5646C365.33 21.5733 367.516 23.5275 367.714 26.3146C367.831 27.9454 367.808 29.5442 367.725 31.1139C367.611 33.3334 367.628 35.8089 364.653 35.8089C361.692 35.8089 352.755 35.9104 348.846 35.9104C348.871 34.1777 348.827 32.6282 348.965 31.1489C348.994 30.8374 349.646 30.6479 350.098 30.6422C353.48 30.6015 356.888 30.6276 360.281 30.6219C362.089 30.619 362.6 30.0422 362.516 28.3387C362.462 27.229 361.882 26.7778 360.797 26.7806C356.48 26.7864 352.172 26.8156 347.838 26.772C346.873 26.7632 346.796 27.2904 346.794 28.0213C346.786 32.0868 346.728 36.135 346.746 40.2092C346.747 40.6955 346.746 40.2092 346.705 41.4701L345.484 41.4699C343.984 41.4699 342.559 41.467 340.87 41.467L340.875 41.4728Z" fill="#212A42"/>
<path d="M396.919 21.5471C396.89 23.2274 396.945 25.3737 397 26.7978C396.19 26.7978 395.966 26.7717 395.422 26.7746C389.905 26.8124 384.364 26.789 378.832 26.7861C376.342 26.7861 376.143 26.9725 376.128 29.2908C376.117 30.9799 376.086 32.6602 376.09 34.3522C376.095 35.8084 376.514 36.2249 378.053 36.2277C383.688 36.2452 389.311 36.2335 394.94 36.2335C395.453 36.2335 395.965 36.2335 396.713 36.2335C396.721 37.943 396.783 39.4108 396.691 40.8232C396.672 41.1378 396.691 40.8232 396.652 41.4347C390.115 41.4698 382.712 41.4871 376.144 41.4347C373.542 41.4144 371.201 39.5388 370.577 36.9411C370.257 35.6132 370.293 34.3144 370.275 33.0358C370.251 31.338 370.333 29.675 370.362 27.9947C370.432 23.9817 373.055 21.5529 377.341 21.55C383.259 21.5442 389.178 21.5471 395.098 21.5471C395.626 21.5471 396.15 21.5471 396.916 21.5471H396.919Z" fill="#212A42"/>
<path d="M26.5917 53.3338L16.1227 47.2934C15.6041 46.9832 14.9534 47.3697 14.9534 47.9696V54.7422C14.9534 55.027 15.111 55.2912 15.3448 55.4184L26.5968 61.957C26.8308 62.0893 27.146 62.0893 27.3798 61.957L52.7972 47.2934C53.3158 46.9832 53.3158 46.2256 52.7972 45.941L46.884 42.5293C46.65 42.3971 46.3348 42.3971 46.101 42.5293L27.3747 53.3389C27.1357 53.4661 26.8512 53.4661 26.5917 53.3338Z" fill="#212A42"/>
<path d="M7.47428 42.2648V20.2338C7.47428 19.949 7.63188 19.6846 7.8657 19.5574L26.5918 8.74777C26.8258 8.61565 27.141 8.61565 27.3748 8.74777L46.1011 19.5576C46.3349 19.6897 46.6501 19.6897 46.8841 19.5576L52.7973 16.1458C53.3159 15.8356 53.3159 15.078 52.7973 14.7934L27.3748 0.0992407C27.141 -0.0330802 26.8258 -0.0330802 26.5918 0.0992407L0.391415 15.2307C0.157593 15.3628 0 15.6221 0 15.9069V46.1697C0 46.4545 0.157593 46.7189 0.391415 46.8459L6.30476 50.2577C6.82336 50.5678 7.47408 50.1815 7.47408 49.5815L7.47428 42.2648Z" fill="#212A42"/>
<path d="M38.0319 24.7081L41.9876 22.3744C42.4757 22.0845 42.4757 21.3931 41.9876 21.0983L28.046 13.0495C27.5578 12.7596 26.9426 13.1206 26.9426 13.685V48.4221C26.9426 48.9865 27.5578 49.3578 28.046 49.0578L41.9876 41.0039C42.4757 40.7346 42.4757 40.0226 41.9876 39.7278L38.0319 37.3939C37.8133 37.2465 37.5133 37.2465 37.2947 37.3939L33.3643 39.6515C32.8763 39.9412 32.2609 39.5802 32.2609 39.0158V23.0861C32.2609 22.5217 32.8763 22.1507 33.3643 22.4506L37.2947 24.7081C37.5184 24.8302 37.8133 24.8302 38.0319 24.7081Z" fill="#212A42"/>
<path d="M20.6276 38.3041V23.7726C20.6276 23.1727 19.9769 22.7811 19.4583 23.0965L13.545 26.508C13.3112 26.6404 13.1536 26.8997 13.1536 27.1842V34.9229C13.1536 35.2077 13.3112 35.472 13.545 35.5991L19.4583 39.0109C19.9769 39.2955 20.6276 38.9041 20.6276 38.3041Z" fill="#212A42"/>
<path d="M54.1193 38.3041V23.7726C54.1193 23.1727 53.4686 22.7811 52.95 23.0965L47.0367 26.508C46.8029 26.6404 46.6453 26.8997 46.6453 27.1842V34.9229C46.6453 35.2077 46.8029 35.472 47.0367 35.5991L52.95 39.0109C53.4686 39.2955 54.1193 38.9041 54.1193 38.3041Z" fill="#212A42"/>
</svg>
