<svg width="125" height="108" viewBox="0 0 125 108" fill="none" xmlns="http://www.w3.org/2000/svg">
<path d="M109.11 66.1645L121.6 61.3837L127.497 76.7885L115.006 81.5694C111.877 82.767 108.365 81.1993 107.167 78.0704L105.608 73.9968C104.411 70.868 105.978 67.356 109.107 66.1584L109.11 66.1645Z" stroke="white" stroke-width="2.62759" stroke-linecap="round" stroke-linejoin="round"/>
<path d="M47.2589 70.7132L106.044 48.213C111.105 46.2757 116.789 48.8129 118.726 53.8742L129.131 81.0582C131.068 86.1195 128.531 91.8032 123.47 93.7404L73.8565 112.73C68.7952 114.667 63.1115 112.13 61.1742 107.069L47.2566 70.707L47.2589 70.7132Z" stroke="white" stroke-width="2.62759" stroke-linecap="round" stroke-linejoin="round"/>
<path d="M79.9414 54.5885L82.5319 30.5756L111.91 33.2366L110.425 43.7085" stroke="white" stroke-width="2.62759" stroke-linecap="round" stroke-linejoin="round"/>
<path d="M77.9635 35.2712L72.8513 34.8153L70.8318 57.5265" stroke="white" stroke-width="2.62759" stroke-linecap="round" stroke-linejoin="round"/>
<path d="M68.5103 42.2728L63.3982 41.8169L61.6847 61.0277" stroke="white" stroke-width="2.62759" stroke-linecap="round" stroke-linejoin="round"/>
<path d="M47.496 71.3327C47.496 71.3327 43.2311 62.3582 49.3942 56.9045C50.7653 55.6904 54.9739 54.3186 54.9739 54.3186" stroke="white" stroke-width="2.62759" stroke-linecap="round" stroke-linejoin="round"/>
<path d="M103.973 33.5031C103.973 33.5031 102.971 35.9757 104.593 38.7802C106.215 41.5848 109.966 41.8654 109.966 41.8654" stroke="white" stroke-width="2.62759" stroke-linecap="round" stroke-linejoin="round"/>
<path d="M82.6827 38.5782C82.6827 38.5782 85.1552 39.5801 87.9598 37.958C90.7644 36.3359 91.0449 32.5851 91.0449 32.5851" stroke="white" stroke-width="2.62759" stroke-linecap="round" stroke-linejoin="round"/>
<path d="M86.7698 51.2223C86.9157 47.5793 89.2958 44.2416 92.9698 43.0534C96.4329 41.939 100.074 43.0353 102.36 45.5716" stroke="white" stroke-width="2.62759" stroke-linecap="round" stroke-linejoin="round"/>
<path d="M116.56 75.0448C117.956 74.5105 118.655 72.9457 118.12 71.5497C117.586 70.1538 116.021 69.4553 114.625 69.9896C113.229 70.5239 112.531 72.0887 113.065 73.4846C113.599 74.8806 115.164 75.5791 116.56 75.0448Z" stroke="white" stroke-width="2.62759" stroke-linecap="round" stroke-linejoin="round"/>
</svg>
