<svg width="98" height="108" viewBox="0 0 98 108" fill="none" xmlns="http://www.w3.org/2000/svg">
<path d="M73.3671 36.2551L43.8068 49.6128C41.4955 50.6572 40.4685 53.3776 41.513 55.6889L60.1846 97.0089C61.2291 99.3202 63.9494 100.347 66.2608 99.3027L95.821 85.9451C98.1323 84.9006 99.1593 82.1802 98.1149 79.8689L79.4432 38.549C78.3988 36.2377 75.6784 35.2107 73.3671 36.2551Z" stroke="white" stroke-width="2.77072" stroke-linecap="round" stroke-linejoin="round"/>
<path d="M65.1331 26.6289L41.9545 37.1028C35.2925 40.1133 32.3323 47.9544 35.3427 54.6164L59.8818 108.921C62.8922 115.583 70.7333 118.543 77.3953 115.532L100.574 105.059C107.236 102.048 110.196 94.207 107.186 87.5449L82.6467 33.2407C79.6362 26.5787 71.7951 23.6184 65.1331 26.6289Z" stroke="white" stroke-width="2.77072" stroke-linecap="round" stroke-linejoin="round"/>
<path d="M86.8624 107.013C89.5885 105.781 90.7999 102.572 89.568 99.8461C88.3361 97.12 85.1274 95.9086 82.4013 97.1405C79.6751 98.3724 78.4637 101.581 79.6956 104.307C80.9275 107.033 84.1362 108.245 86.8624 107.013Z" stroke="white" stroke-width="2.77072" stroke-linecap="round" stroke-linejoin="round"/>
<path d="M49.261 41.2275L56.2739 38.0585" stroke="white" stroke-width="2.77072" stroke-linecap="round" stroke-linejoin="round"/>
<path d="M60.1875 36.291L63.1486 34.9529" stroke="white" stroke-width="2.77072" stroke-linecap="round" stroke-linejoin="round"/>
</svg>
