<svg width="102" height="108" viewBox="0 0 102 108" fill="none" xmlns="http://www.w3.org/2000/svg">
<g clip-path="url(#clip0_1111_433)">
<path d="M99.2888 90.4168L64.3153 103.842C61.3004 104.999 57.9092 103.494 56.7495 100.473L32.052 36.1341C30.8947 33.1192 32.3995 29.728 35.4205 28.5684L73.6718 13.8851C76.6867 12.7278 80.0779 14.2326 81.2375 17.2535L104.257 77.2204L99.2864 90.4107L99.2888 90.4168Z" stroke="white" stroke-width="2.62016" stroke-linecap="round" stroke-linejoin="round"/>
<path d="M102.995 77.0032C102.995 77.0032 95.8708 79.5202 95.2986 80.68C94.7265 81.8399 98.466 90.1011 98.466 90.1011" stroke="white" stroke-width="2.62016" stroke-linecap="round" stroke-linejoin="round"/>
<path d="M33.5535 40.0283L82.2498 21.3356" stroke="white" stroke-width="2.62016" stroke-linecap="round" stroke-linejoin="round"/>
<path d="M43.5364 48.8877L68.3279 39.3711" stroke="white" stroke-width="2.62016" stroke-linecap="round" stroke-linejoin="round"/>
<path d="M73.3853 37.4297L80.8276 34.5728" stroke="white" stroke-width="2.62016" stroke-linecap="round" stroke-linejoin="round"/>
<path d="M48.9639 63.0273L73.7554 53.5108" stroke="white" stroke-width="2.62016" stroke-linecap="round" stroke-linejoin="round"/>
<path d="M78.8127 51.5693L86.2551 48.7125" stroke="white" stroke-width="2.62016" stroke-linecap="round" stroke-linejoin="round"/>
<path d="M54.0576 76.2979L78.8491 66.7813" stroke="white" stroke-width="2.62016" stroke-linecap="round" stroke-linejoin="round"/>
<path d="M83.9067 64.8389L91.3491 61.982" stroke="white" stroke-width="2.62016" stroke-linecap="round" stroke-linejoin="round"/>
<path d="M43.5364 48.8877L68.3279 39.3711" stroke="white" stroke-width="2.62016" stroke-linecap="round" stroke-linejoin="round"/>
<path d="M73.3853 37.4297L80.8276 34.5728" stroke="white" stroke-width="2.62016" stroke-linecap="round" stroke-linejoin="round"/>
<path d="M95.5886 73.0262L80.1536 78.9512" stroke="white" stroke-width="2.62016" stroke-linecap="round" stroke-linejoin="round"/>
</g>
<defs>
<clipPath id="clip0_1111_433">
<rect width="92.0459" height="105.312" fill="white" transform="matrix(0.872265 -0.489033 0.254191 0.967154 0 36.0137)"/>
</clipPath>
</defs>
</svg>
