<svg width="109" height="116" viewBox="0 0 109 116" fill="none" xmlns="http://www.w3.org/2000/svg">
<g clip-path="url(#clip0_1111_419)">
<path d="M98.3768 44.3708L39.9148 66.6183C35.3485 68.356 33.0386 73.511 34.7557 78.1324L48.2045 114.33C49.9215 118.951 55.0151 121.289 59.5815 119.551L118.043 97.3038C122.61 95.5661 124.92 90.411 123.203 85.7897L109.754 49.5921C108.037 44.9708 102.943 42.6331 98.3768 44.3708Z" stroke="white" stroke-width="2.55297" stroke-linecap="round" stroke-linejoin="round"/>
<path d="M76.3883 47.9353L103.738 30.958C107.427 28.7192 112.26 30.1853 114.527 34.2294L133.853 68.6457C136.127 72.6936 134.979 77.7886 131.29 80.0274L127.384 82.3973" stroke="white" stroke-width="2.55297" stroke-linecap="round" stroke-linejoin="round"/>
<path d="M36.1558 79.752L110.449 51.48" stroke="white" stroke-width="2.55297" stroke-linecap="round" stroke-linejoin="round"/>
<path d="M40.3181 90.9551L114.611 62.6831" stroke="white" stroke-width="2.55297" stroke-linecap="round" stroke-linejoin="round"/>
<path d="M49.3066 97.2178L67.0555 90.4636" stroke="white" stroke-width="2.55297" stroke-linecap="round" stroke-linejoin="round"/>
<path d="M51.9751 104.399L76.397 95.1058" stroke="white" stroke-width="2.55297" stroke-linecap="round" stroke-linejoin="round"/>
<path d="M105.704 84.2422C104.354 84.756 103.426 85.9098 103.071 87.2868C101.917 86.491 100.459 86.2383 99.1089 86.7521C96.8268 87.6205 95.7229 90.3386 96.6461 92.8235C97.5694 95.3084 100.169 96.617 102.451 95.7485C103.802 95.2347 104.73 94.081 105.084 92.704C106.239 93.4998 107.697 93.7525 109.047 93.2387C111.329 92.3703 112.433 89.6522 111.51 87.1673C110.586 84.6824 107.986 83.3738 105.704 84.2422Z" stroke="white" stroke-width="2.55297" stroke-linecap="round" stroke-linejoin="round"/>
</g>
<defs>
<clipPath id="clip0_1111_419">
<rect width="137.797" height="88.2963" fill="white" transform="matrix(0.876518 -0.48137 0.24932 0.968421 0 66.3311)"/>
</clipPath>
</defs>
</svg>
