<svg width="106" height="90" viewBox="0 0 106 90" fill="none" xmlns="http://www.w3.org/2000/svg">
<path d="M49.0722 59.3668C42.0549 54.9018 37.3999 47.0547 37.3999 38.1247C37.3999 24.2294 48.6669 12.9688 62.5559 12.9688C76.4449 12.9688 87.7119 24.2357 87.7119 38.1247C87.7119 41.5194 87.0406 44.7621 85.8182 47.7198" stroke="white" stroke-width="2.53333" stroke-linecap="round" stroke-linejoin="round"/>
<path d="M42.1372 63.459C34.7462 57.493 30.0215 48.3603 30.0215 38.1256C30.0215 20.158 44.5882 5.58496 62.5622 5.58496C80.5362 5.58496 95.1028 20.1516 95.1028 38.1256C95.1028 42.8313 94.1022 47.309 92.3035 51.3433" stroke="white" stroke-width="2.53333" stroke-linecap="round" stroke-linejoin="round"/>
<path d="M62.5621 23.2283C64.2621 23.2283 65.6401 21.8502 65.6401 20.1503C65.6401 18.4503 64.2621 17.0723 62.5621 17.0723C60.8622 17.0723 59.4841 18.4503 59.4841 20.1503C59.4841 21.8502 60.8622 23.2283 62.5621 23.2283Z" stroke="white" stroke-width="2.53333" stroke-linecap="round" stroke-linejoin="round"/>
<path d="M44.5885 41.2029C46.2884 41.2029 47.6665 39.8248 47.6665 38.1249C47.6665 36.4249 46.2884 35.0469 44.5885 35.0469C42.8886 35.0469 41.5105 36.4249 41.5105 38.1249C41.5105 39.8248 42.8886 41.2029 44.5885 41.2029Z" stroke="white" stroke-width="2.53333" stroke-linecap="round" stroke-linejoin="round"/>
<path d="M80.5299 41.2029C82.2298 41.2029 83.6079 39.8248 83.6079 38.1249C83.6079 36.4249 82.2298 35.0469 80.5299 35.0469C78.83 35.0469 77.4519 36.4249 77.4519 38.1249C77.4519 39.8248 78.83 41.2029 80.5299 41.2029Z" stroke="white" stroke-width="2.53333" stroke-linecap="round" stroke-linejoin="round"/>
<path d="M75.6088 24.8252C74.6335 23.8942 73.0438 23.8942 72.0685 24.8252L60.7508 35.5919C60.2378 36.0795 60.0035 36.7255 60.0288 37.3652C60.0288 37.3905 60.0225 37.4222 60.0225 37.4475V55.7065C60.0225 57.0239 61.1435 58.0879 62.5241 58.0879C63.9048 58.0879 65.0258 57.0239 65.0258 55.7065V38.2645L75.6088 28.1945C76.5841 27.2635 76.5841 25.7562 75.6088 24.8252Z" stroke="white" stroke-width="2.53333" stroke-linecap="round" stroke-linejoin="round"/>
<path d="M86.3818 67.7266C94.3148 67.7266 100.746 65.1208 100.746 61.9063C100.746 58.6918 94.3148 56.0859 86.3818 56.0859C78.4488 56.0859 72.0178 58.6918 72.0178 61.9063C72.0178 65.1208 78.4488 67.7266 86.3818 67.7266Z" stroke="white" stroke-width="2.53333" stroke-linecap="round" stroke-linejoin="round"/>
<path d="M100.746 63.585V67.727C100.746 70.9443 94.3113 73.5473 86.382 73.5473C83.9057 73.5473 81.5813 73.294 79.5483 72.8443" stroke="white" stroke-width="2.53333" stroke-linecap="round" stroke-linejoin="round"/>
<path d="M100.746 69.3867V73.5287C100.746 76.7461 94.3113 79.3491 86.382 79.3491C83.9057 79.3491 81.5813 79.0957 79.5483 78.6461" stroke="white" stroke-width="2.53333" stroke-linecap="round" stroke-linejoin="round"/>
<path d="M100.746 75.0293V79.1713C100.746 82.3886 94.3113 84.9916 86.382 84.9916C83.9057 84.9916 81.5813 84.7383 79.5483 84.2886" stroke="white" stroke-width="2.53333" stroke-linecap="round" stroke-linejoin="round"/>
<path d="M56.9828 78.8992C65.2866 78.8992 72.0182 76.1714 72.0182 72.8065C72.0182 69.4416 65.2866 66.7139 56.9828 66.7139C48.6791 66.7139 41.9475 69.4416 41.9475 72.8065C41.9475 76.1714 48.6791 78.8992 56.9828 78.8992Z" stroke="white" stroke-width="2.53333" stroke-linecap="round" stroke-linejoin="round"/>
<path d="M72.0182 86.157V90.4953C72.0182 93.8583 65.2858 96.588 56.9828 96.588C48.6798 96.588 41.9475 93.8583 41.9475 90.4953V85.834" stroke="white" stroke-width="2.53333" stroke-linecap="round" stroke-linejoin="round"/>
<path d="M72.0182 74.3015V78.6398C72.0182 82.0028 65.2858 84.7325 56.9828 84.7325C48.6798 84.7325 41.9475 82.0028 41.9475 78.6398V73.9785" stroke="white" stroke-width="2.53333" stroke-linecap="round" stroke-linejoin="round"/>
<path d="M72.0182 80.1277V84.466C72.0182 87.829 65.2858 90.5587 56.9828 90.5587C48.6798 90.5587 41.9475 87.829 41.9475 84.466V79.8047" stroke="white" stroke-width="2.53333" stroke-linecap="round" stroke-linejoin="round"/>
</svg>
