<svg width="110" height="120" viewBox="0 0 110 120" fill="none" xmlns="http://www.w3.org/2000/svg">
<g clip-path="url(#clip0_1111_401)">
<path d="M103.092 47.2336C105.316 46.3799 108.935 47.8884 110.13 50.9997L124.25 87.7854C125.447 90.9027 123.835 94.4124 120.647 95.6363L58.3023 119.568C55.12 120.79 51.5656 119.256 50.3712 116.145L36.2505 79.3592C35.0539 76.242 36.6656 72.7322 39.8538 71.5084L56.9247 64.9555" stroke="white" stroke-width="2.53435" stroke-linecap="round" stroke-linejoin="round"/>
<path d="M60.7928 87.4609C63.9126 86.2633 65.4708 82.7634 64.2733 79.6436C63.0757 76.5238 59.5758 74.9656 56.456 76.1631C53.3362 77.3607 51.778 80.8606 52.9755 83.9804C54.1731 87.1002 57.673 88.6585 60.7928 87.4609Z" stroke="white" stroke-width="2.53435" stroke-linecap="round" stroke-linejoin="round"/>
<path d="M54.7985 110.794L81.2092 100.656C81.2092 100.656 79.0305 85.0621 62.7251 91.1515C46.4138 97.2432 54.8044 110.792 54.8044 110.792L54.7985 110.794Z" stroke="white" stroke-width="2.53435" stroke-linecap="round" stroke-linejoin="round"/>
<path d="M82.4141 78.0347L108.641 67.9669" stroke="white" stroke-width="2.53435" stroke-linecap="round" stroke-linejoin="round"/>
<path d="M85.3181 85.6001L111.545 75.5324" stroke="white" stroke-width="2.53435" stroke-linecap="round" stroke-linejoin="round"/>
<path d="M88.2222 93.1655L114.45 83.0978" stroke="white" stroke-width="2.53435" stroke-linecap="round" stroke-linejoin="round"/>
<path d="M99.3999 57.3641L92.9406 59.8436L84.9366 69.2073L82.6839 63.7808L67.6893 69.5367C66.7961 69.8796 65.7893 69.4313 65.4464 68.5381L58.3214 49.9767C57.9785 49.0835 58.4268 48.0767 59.3199 47.7338L91.0305 35.5613C91.9237 35.2184 92.9305 35.6667 93.2734 36.5598L100.398 55.1213C100.741 56.0145 100.293 57.0213 99.3999 57.3641Z" stroke="white" stroke-width="2.53435" stroke-linecap="round" stroke-linejoin="round"/>
<path d="M66.7256 53.3071L89.6168 44.52" stroke="white" stroke-width="2.53435" stroke-linecap="round" stroke-linejoin="round"/>
<path d="M69.0325 59.3169L73.9715 57.421" stroke="white" stroke-width="2.53435" stroke-linecap="round" stroke-linejoin="round"/>
<path d="M78.0115 55.8696L82.9505 53.9737" stroke="white" stroke-width="2.53435" stroke-linecap="round" stroke-linejoin="round"/>
<path d="M86.7065 52.5317L91.6456 50.6358" stroke="white" stroke-width="2.53435" stroke-linecap="round" stroke-linejoin="round"/>
</g>
<defs>
<clipPath id="clip0_1111_401">
<rect width="138.315" height="99.2316" fill="white" transform="matrix(0.840854 -0.541263 0.22314 0.974786 0 74.8647)"/>
</clipPath>
</defs>
</svg>
