<svg width="106" height="105" viewBox="0 0 106 105" fill="none" xmlns="http://www.w3.org/2000/svg">
<path d="M89.1288 57.4727C86.8185 75.6563 71.3166 89.7191 52.534 89.7191C33.7514 89.7191 18.7504 76.108 16.0645 58.3445" stroke="#162640" stroke-width="4" stroke-miterlimit="10" stroke-linecap="round"/>
<path d="M15.9961 47.6704C18.4754 29.6686 33.8897 15.8066 52.5408 15.8066C71.1919 15.8066 86.0114 29.1418 88.9227 46.6355" stroke="#162640" stroke-width="4" stroke-miterlimit="10" stroke-linecap="round"/>
<path d="M47.5945 5.34337L45.3844 9.65878C43.719 12.9079 39.6056 13.993 36.5566 11.9796L32.5872 9.3577C28.142 6.42849 22.3381 10.1668 23.1583 15.4357L23.44 17.2484C24.0912 21.4446 20.4035 25.0199 16.24 24.2296L15.182 24.0289C10.0919 23.0629 6.17257 28.4697 8.6644 33.0172L11.3378 37.8971C13.1597 41.2215 11.5632 45.3927 7.98823 46.6471L6.1037 47.3057C0.894654 49.131 0.56283 56.3819 5.57779 58.6839L8.67066 60.1014C12.2143 61.726 13.3663 66.2108 11.0373 69.347L9.20284 71.8183C5.87831 76.2968 9.76631 82.5441 15.2446 81.5217L16.9225 81.2081C21.111 80.4303 24.7987 84.062 24.0912 88.2708C23.1959 93.5898 29.0936 97.4034 33.5639 94.3864L34.9788 93.433C38.4849 91.062 43.2807 92.5548 44.8397 96.4939L45.5785 98.3631C47.7823 103.933 55.6397 103.958 57.8811 98.407L58.2755 97.4222C59.9847 93.1884 65.3503 91.9088 68.7813 94.9133L69.3385 95.4025C73.5207 99.0719 80.0258 95.7161 79.4748 90.1713L79.1994 87.4366C78.7861 83.2905 82.5239 79.9473 86.5934 80.8255L89.9868 81.5593C95.4964 82.7511 99.5534 76.4912 96.2289 71.9312L93.9562 68.8138C91.6272 65.6212 92.8731 61.0862 96.5107 59.5369L99.422 58.295C104.318 56.2126 104.418 49.2941 99.591 47.0674L96.3228 45.5557C92.7667 43.9124 91.6397 39.4025 94.0001 36.2789L96.567 32.8729C99.7288 28.6767 96.0912 22.7806 90.9322 23.7403L88.2964 24.2296C83.9952 25.0324 80.414 20.9177 81.7914 16.7591C83.4755 11.6597 77.8908 7.23763 73.3267 10.0414L69.2195 12.5692C66.014 14.5387 61.8067 13.1776 60.3541 9.70269L58.7201 5.77616C56.7103 0.952686 49.9924 0.689247 47.607 5.3371L47.5945 5.34337Z" stroke="#162640" stroke-width="4" stroke-miterlimit="10"/>
<path d="M37.9214 54.7955V69.4855C37.9214 70.7713 36.8821 71.8125 35.5987 71.8125H31.2661C29.9827 71.8125 28.9434 70.7713 28.9434 69.4855V43.6181C28.9434 42.3322 29.9827 41.291 31.2661 41.291H35.5987C36.8821 41.291 37.9214 42.3322 37.9214 43.6181V48.0966" stroke="#162640" stroke-width="4" stroke-miterlimit="10" stroke-linecap="round"/>
<path d="M37.9214 43.617C37.9214 43.617 42.5732 38.0596 45.3155 33.5184C48.0577 28.9772 49.8483 25.7532 51.3572 25.8723C52.8661 25.9915 55.8901 27.6223 55.4143 30.8903C54.9384 34.1582 51.9144 40.8885 51.9144 40.8885L73.1325 41.2774C73.1325 41.2774 75.9499 41.798 75.9624 44.7962C75.9749 47.7944 74.0153 49.0112 74.0153 49.0112M74.0153 49.0112H59.8657M74.0153 49.0112C74.0153 49.0112 75.4052 49.9145 75.3676 52.9315C75.3301 55.9485 71.8678 57.0524 71.8678 57.0524M71.8678 57.0524H59.8657M71.8678 57.0524C71.8678 57.0524 73.8776 58.2881 73.8776 60.9162C73.8776 63.5444 70.3402 64.6671 70.3402 64.6671M70.3402 64.6671L59.8657 64.617M70.3402 64.6671C70.3402 64.6671 71.6737 65.815 71.5548 68.5184C71.4358 71.2218 69.4073 72.3007 69.4073 72.3007H50.4056C46.4675 72.3007 38.7165 68.7191 38.7165 68.7191" stroke="#162640" stroke-width="4" stroke-linecap="round" stroke-linejoin="round"/>
</svg>
