<svg width="97" height="102" viewBox="0 0 97 102" fill="none" xmlns="http://www.w3.org/2000/svg">
<path d="M22.3244 76.7353L19.6364 73.0462C19.0668 72.2635 18.9196 71.2562 19.2332 70.3452L20.9292 65.4115C21.2684 64.4299 21.0636 63.3456 20.398 62.55L18.1964 59.926C17.4284 59.0149 16.1932 58.6557 15.0604 59.0149L10.2028 60.5547C8.878 60.9718 7.4444 60.4072 6.7596 59.201L2.702 52.0538C1.9212 50.6809 2.3628 48.9358 3.694 48.1017L9.006 44.7591C9.7676 44.2779 10.2668 43.4824 10.3628 42.5906L10.6828 39.7099C10.798 38.6705 10.35 37.644 9.51161 37.0153L3.1884 32.3061C2.0876 31.4849 1.6972 30.0157 2.2476 28.7582L5.5948 21.0785C6.1772 19.744 7.6428 19.0383 9.0444 19.4104L14.9388 20.9887C15.9308 21.2517 16.9932 20.9823 17.7356 20.2637L20.2316 17.8578C20.9932 17.12 21.3068 16.0357 21.0444 15.0028L19.598 9.31198C19.2524 7.95825 19.9052 6.54678 21.1596 5.93728L28.4876 2.35087C29.7484 1.73495 31.2588 2.09423 32.11 3.21058L36.7692 9.31198C37.3772 10.1139 38.35 10.5438 39.3548 10.4604L42.0108 10.2359C42.8492 10.1653 43.6236 9.73542 44.1228 9.05535L48.462 3.19133C49.2812 2.08782 50.7532 1.69646 52.0076 2.24821L58.83 5.26363C60.11 5.82821 60.814 7.22044 60.5196 8.587L59.0988 15.1182C58.8876 16.087 59.1756 17.1007 59.8732 17.8129L62.0748 20.0648C62.83 20.8411 63.9564 21.1362 64.9932 20.8347L70.7212 19.1666C71.9436 18.8137 73.2492 19.2821 73.966 20.3343L77.8764 26.07" stroke="#162640" stroke-width="4" stroke-linecap="round" stroke-linejoin="round"/>
<path d="M59.5598 51.329C59.5598 51.329 63.5918 43.9958 57.6334 36.2199C51.6686 28.4375 41.9214 30.5291 41.9214 30.5291L49.9662 37.8366L49.211 48.6536L38.7022 49.3209L31.4126 41.731C31.4126 41.731 29.2622 51.7973 37.563 57.4817C44.4366 62.1909 51.7582 58.8098 51.7582 58.8098L83.5598 93.8206C83.5598 93.8206 88.5774 96.3805 92.8334 92.2103C97.0958 88.0336 92.8334 81.6756 92.8334 81.6756L59.5534 51.3354L59.5598 51.329Z" stroke="#162640" stroke-width="4" stroke-linecap="round" stroke-linejoin="round"/>
<path d="M50.0233 64.4615C49.3321 64.0958 48.4937 64.1984 47.9113 64.7181L42.5545 69.4529C42.3753 69.6133 42.1577 69.7352 41.9337 69.8186L36.4105 71.7498C36.1161 71.8524 35.8537 72.0256 35.6489 72.2566L23.0281 86.0313C22.5801 86.5189 22.4201 87.2054 22.6121 87.8341C23.1305 89.5856 24.5193 93.1656 27.6681 95.9629C30.7209 98.6768 33.5689 99.4017 34.9769 99.5942C35.5337 99.6712 36.0969 99.4787 36.5065 99.0874L51.3097 84.8572C51.5017 84.6775 51.6489 84.453 51.7449 84.2092L54.1769 78.2425C54.2537 78.0565 54.3561 77.8832 54.4905 77.7293L58.0361 73.5911C58.5225 73.0201 58.6249 72.2117 58.2985 71.5381" stroke="#162640" stroke-width="4" stroke-linecap="round" stroke-linejoin="round"/>
<path d="M66.1069 50.5L77.6333 39.42C77.9917 39.0735 78.0365 38.509 77.7293 38.1112L77.1085 37.3156C76.7693 36.8858 76.8525 36.2634 77.2877 35.9298L84.8013 30.239C85.1853 29.9503 85.7293 29.9824 86.0749 30.3224L92.3149 36.4238C92.6669 36.7703 92.7117 37.322 92.4109 37.7134L86.5869 45.4765C86.2349 45.9448 85.5629 46.0026 85.1405 45.6048L84.4493 44.9568C84.0525 44.5847 83.4381 44.6104 83.0669 45.0017L72.5453 56.3127" stroke="#162640" stroke-width="4" stroke-linecap="round" stroke-linejoin="round"/>
</svg>
