<svg width="93" height="116" viewBox="0 0 93 116" fill="none" xmlns="http://www.w3.org/2000/svg">
<path d="M68.6715 33.3496L90.6539 42.8958V96.3007L45.6357 113.394L2 96.1753V42.8958L17.3396 36.8659L60.6857 53.7022L60.9358 73.0585L69.5866 64.3831L75.7356 68.6581V47.923L62.3118 41.6424" stroke="#162640" stroke-width="4" stroke-linecap="round" stroke-linejoin="round"/>
<path d="M45.8462 59.9883V112.008" stroke="#162640" stroke-width="4" stroke-linecap="round" stroke-linejoin="round"/>
<path d="M3.62598 43.1461L46.6823 59.9889L88.9025 42.7305" stroke="#162640" stroke-width="4" stroke-linecap="round" stroke-linejoin="round"/>
<path d="M45.8462 40.5412C56.4669 40.5412 65.0767 31.9135 65.0767 21.2706C65.0767 10.6277 56.4669 2 45.8462 2C35.2255 2 26.6157 10.6277 26.6157 21.2706C26.6157 31.9135 35.2255 40.5412 45.8462 40.5412Z" stroke="#162640" stroke-width="4" stroke-linecap="round" stroke-linejoin="round"/>
<path d="M36.6426 21.4387L44.0951 28.9068L58.3024 14.6699" stroke="#162640" stroke-width="4" stroke-linecap="round" stroke-linejoin="round"/>
</svg>
