<svg width="110" height="108" viewBox="0 0 110 108" fill="none" xmlns="http://www.w3.org/2000/svg">
<path d="M55.3037 105.408H2.00454C2.00454 105.408 1.31 87.2816 17.0974 80.2216C28.6508 75.055 36.6046 77.515 36.6046 77.515" stroke="#162640" stroke-width="4" stroke-linecap="round" stroke-linejoin="round"/>
<path d="M42.5415 71.1621L36.6045 77.5154V93.2621L55.0098 82.2088L42.5415 71.1621Z" stroke="#162640" stroke-width="4" stroke-linecap="round" stroke-linejoin="round"/>
<path d="M42.3745 71.8823V64.9023" stroke="#162640" stroke-width="4" stroke-linecap="round" stroke-linejoin="round"/>
<path d="M55.0095 70.0627C55.0095 70.0627 46.7418 69.516 39.743 62.616C32.3635 55.336 32.3168 46.1693 32.1966 36.9427L31.4352 36.7093H23.4614C23.4614 36.7093 22.5265 35.6093 22.4463 44.496C22.3662 53.3827 23.2945 54.4827 23.2945 54.4827L34.387 54.3827" stroke="#162640" stroke-width="4" stroke-linecap="round" stroke-linejoin="round"/>
<path d="M28.6505 35.8631C28.6505 35.8631 27.7022 21.6498 38.9884 13.3498C47.6234 6.99643 55.3034 8.26309 55.3034 8.26309" stroke="#162640" stroke-width="4" stroke-linecap="round" stroke-linejoin="round"/>
<path d="M25.9191 35.8632C25.9191 35.8632 24.9842 20.1166 32.8712 11.8232C40.7582 3.5299 47.8839 1.91657 55.0029 2.00324" stroke="#162640" stroke-width="4" stroke-linecap="round" stroke-linejoin="round"/>
<path d="M48.6455 104.69V86.2363" stroke="#162640" stroke-width="4" stroke-linecap="round" stroke-linejoin="round"/>
<path d="M32.1973 36.9428C32.1973 36.9428 35.3361 37.4695 38.2211 33.9162C41.1061 30.3628 40.4516 25.7895 40.4516 25.7895C40.4516 25.7895 46.275 28.4962 53.3139 28.1628C60.3528 27.8295 67.3917 22.5762 67.3917 22.5762C67.3917 22.5762 66.8441 27.9562 70.0229 31.5495C73.8362 35.8695 78.2773 36.7162 78.2773 36.7162" stroke="#162640" stroke-width="4" stroke-linecap="round" stroke-linejoin="round"/>
<path d="M54.4023 105.408H107.702C107.702 105.408 108.396 87.2817 92.6087 80.2217C81.0553 75.055 72.7342 77.595 72.7342 77.595" stroke="#162640" stroke-width="4" stroke-linecap="round" stroke-linejoin="round"/>
<path d="M67.1646 71.1621L73.1016 77.5154V93.2621L54.6963 82.2088L67.1646 71.1621Z" stroke="#162640" stroke-width="4" stroke-linecap="round" stroke-linejoin="round"/>
<path d="M67.3311 71.8823V64.9023" stroke="#162640" stroke-width="4" stroke-linecap="round" stroke-linejoin="round"/>
<path d="M55.3037 70.0627C55.3037 70.0627 62.9637 69.516 69.9625 62.616C77.342 55.336 77.3887 46.1693 77.5089 36.9427L78.2702 36.7093H86.2441C86.2441 36.7093 87.1791 35.6093 87.2592 44.496C87.3393 53.3827 86.411 54.4827 86.411 54.4827L75.3185 54.3827" stroke="#162640" stroke-width="4" stroke-linecap="round" stroke-linejoin="round"/>
<path d="M81.0553 35.8631C81.0553 35.8631 82.0036 21.6498 70.7173 13.3498C62.0823 6.99643 54.4023 8.26309 54.4023 8.26309" stroke="#162640" stroke-width="4" stroke-linecap="round" stroke-linejoin="round"/>
<path d="M83.7865 35.8632C83.7865 35.8632 84.7214 20.1166 76.8344 11.8232C68.9474 3.5299 61.8217 1.91657 54.7026 2.00324" stroke="#162640" stroke-width="4" stroke-linecap="round" stroke-linejoin="round"/>
<path d="M61.0605 104.69V86.2363" stroke="#162640" stroke-width="4" stroke-linecap="round" stroke-linejoin="round"/>
<path d="M82.8448 55.123C82.8448 55.123 83.8933 58.1897 80.7879 61.0497C78.5841 63.083 76.0396 63.123 76.0396 63.123H52.6323C52.6323 63.123 52.6123 60.4564 55.0098 60.4564C57.4073 60.4564 57.5141 62.363 57.5141 62.363" stroke="#162640" stroke-width="4" stroke-linecap="round" stroke-linejoin="round"/>
</svg>
