<svg width="87" height="78" viewBox="0 0 87 78" fill="none" xmlns="http://www.w3.org/2000/svg">
<path d="M9.92785 34.2764L1.35559 55.4599L9.92785 59.6358L19.1032 37.7968L9.92785 34.2764Z" stroke="#162640" stroke-width="2.7106" stroke-linecap="round" stroke-linejoin="round"/>
<path d="M18.6222 40.8986C18.6222 40.8986 31.7009 39.689 35.1298 38.8309C38.5587 37.9727 50.5666 35.5537 50.5666 35.5537C50.5666 35.5537 55.1408 36.3375 53.6364 38.6147C52.132 40.8918 40.2054 45.311 40.2054 45.311L60.9279 54.0006C60.9279 54.0006 64.4042 55.6561 63.0693 58.2575C62.0935 60.1563 60.711 60.1968 60.711 60.1968C60.711 60.1968 66.0713 61.8658 63.8757 66.0012C62.2696 69.0284 58.8543 67.6769 58.8543 67.6769C58.8543 67.6769 59.4235 70.1703 57.4244 71.4542C55.4254 72.738 53.1349 71.4542 53.1349 71.4542C53.1349 71.4542 55.0662 73.8056 52.8503 75.8733C50.6344 77.941 24.9108 67.3931 23.6233 66.258C22.3358 65.1228 14.7596 57.8521 14.1904 57.8521C13.6212 57.8521 10.8903 57.3453 10.8903 57.3453" stroke="#162640" stroke-width="2.7106" stroke-linecap="round" stroke-linejoin="round"/>
<path d="M38.5587 65.5898L53.135 71.4685" stroke="#162640" stroke-width="2.7106" stroke-linecap="round" stroke-linejoin="round"/>
<path d="M41.8994 60.1963L58.8542 67.4737" stroke="#162640" stroke-width="2.7106" stroke-linecap="round" stroke-linejoin="round"/>
<path d="M44.2035 53.8174L61.4565 60.6826" stroke="#162640" stroke-width="2.7106" stroke-linecap="round" stroke-linejoin="round"/>
<path d="M18.1953 69.5222H13.323C11.9813 69.5222 10.8903 68.4343 10.8903 67.0964V65.1504" stroke="#162640" stroke-width="2.7106" stroke-linecap="round" stroke-linejoin="round"/>
<path d="M10.8903 28.0059V13.6133C10.8903 12.2754 11.9813 11.1875 13.323 11.1875H82.5788C83.9205 11.1875 85.0116 12.2754 85.0116 13.6133V67.0957C85.0116 68.4336 83.9205 69.5215 82.5788 69.5215H70.2185" stroke="#162640" stroke-width="2.7106" stroke-linecap="round" stroke-linejoin="round"/>
<path d="M11.1477 12.5249L16.3385 1.35547H53.8057" stroke="#162640" stroke-width="2.7106" stroke-linecap="round" stroke-linejoin="round"/>
<path d="M53.8057 1.35547L79.4547 1.45682L84.8285 12.7006" stroke="#162640" stroke-width="2.7106" stroke-linecap="round" stroke-linejoin="round"/>
<path d="M42.6311 1.71359L39.4868 10.4032V32.4922L47.7067 24.2958L56.3535 32.9179V11.187L53.1347 1.35547" stroke="#162640" stroke-width="2.7106" stroke-linecap="round" stroke-linejoin="round"/>
</svg>
