<svg width="123" height="75" viewBox="0 0 123 75" fill="none" xmlns="http://www.w3.org/2000/svg">
<path d="M24.7881 61.0014H15.9707C13.8698 61.0014 12.1681 59.3045 12.1681 57.2097V5.29754C12.1681 3.20273 13.8698 1.50586 15.9707 1.50586H84.3866C86.4874 1.50586 88.1892 3.20273 88.1892 5.29754V57.2097C88.1892 59.3045 86.4874 61.0014 84.3866 61.0014H46.9785" stroke="#162640" stroke-width="3.01193" stroke-linecap="round" stroke-linejoin="round"/>
<path d="M81.8266 52.2314H52.2795" stroke="#162640" stroke-width="3.01193" stroke-linecap="round" stroke-linejoin="round"/>
<path d="M22.853 52.2314H1.50598" stroke="#162640" stroke-width="3.01193" stroke-linecap="round" stroke-linejoin="round"/>
<path d="M30.3227 44.7832H6.85974" stroke="#162640" stroke-width="3.01193" stroke-linecap="round" stroke-linejoin="round"/>
<path d="M36.7079 28.9477L46.4365 38.7385C47.2271 39.5343 48.5072 39.5343 49.2978 38.7385L70.9837 16.9119C71.7593 16.1311 71.7593 14.8697 70.9837 14.0888L69.3723 12.467C68.5817 11.6711 67.3016 11.6711 66.511 12.467L49.5614 29.5258C48.7707 30.3217 47.4907 30.3217 46.7 29.5258L41.4291 24.2175C40.6385 23.4216 39.3434 23.4216 38.5603 24.225L36.6929 26.1321C35.9249 26.9129 35.9248 28.1668 36.7004 28.9477H36.7079Z" stroke="#162640" stroke-width="3.01193" stroke-linecap="round" stroke-linejoin="round"/>
<path d="M36.1281 73.2995C41.8836 73.2995 46.5493 68.6471 46.5493 62.908C46.5493 57.169 41.8836 52.5166 36.1281 52.5166C30.3726 52.5166 25.7068 57.169 25.7068 62.908C25.7068 68.6471 30.3726 73.2995 36.1281 73.2995Z" stroke="#162640" stroke-width="3.01193" stroke-linecap="round" stroke-linejoin="round"/>
<path d="M36.1279 66.7375C38.2488 66.7375 39.9681 65.0231 39.9681 62.9083C39.9681 60.7935 38.2488 59.0791 36.1279 59.0791C34.007 59.0791 32.2877 60.7935 32.2877 62.9083C32.2877 65.0231 34.007 66.7375 36.1279 66.7375Z" stroke="#162640" stroke-width="3.01193" stroke-linecap="round" stroke-linejoin="round"/>
<path d="M103.136 73.111C108.892 73.111 113.557 68.4586 113.557 62.7196C113.557 56.9805 108.892 52.3281 103.136 52.3281C97.3806 52.3281 92.7148 56.9805 92.7148 62.7196C92.7148 68.4586 97.3806 73.111 103.136 73.111Z" stroke="#162640" stroke-width="3.01193" stroke-linecap="round" stroke-linejoin="round"/>
<path d="M103.136 66.5491C105.257 66.5491 106.976 64.8347 106.976 62.7198C106.976 60.605 105.257 58.8906 103.136 58.8906C101.015 58.8906 99.2958 60.605 99.2958 62.7198C99.2958 64.8347 101.015 66.5491 103.136 66.5491Z" stroke="#162640" stroke-width="3.01193" stroke-linecap="round" stroke-linejoin="round"/>
<path d="M84.7407 61.002H92.2931" stroke="#162640" stroke-width="3.01193" stroke-linecap="round" stroke-linejoin="round"/>
<path d="M114.099 61.0018H121.034V38.8824C121.034 38.8824 120.936 35.5487 117.879 33.4464C114.822 31.3441 112.142 31.6369 112.142 31.6369H88.5205" stroke="#162640" stroke-width="3.01193" stroke-linecap="round" stroke-linejoin="round"/>
<path d="M88.5202 8.1875H106.019C106.019 8.1875 109.22 8.69055 110.492 11.1683C111.637 13.4133 112.473 17.0998 112.473 17.0998H88.1888" stroke="#162640" stroke-width="3.01193" stroke-linecap="round" stroke-linejoin="round"/>
<path d="M109.22 17.7158L112.85 31.2607" stroke="#162640" stroke-width="3.01193" stroke-linecap="round" stroke-linejoin="round"/>
<path d="M20.7746 36.2158H3.5614" stroke="#162640" stroke-width="3.01193" stroke-linecap="round" stroke-linejoin="round"/>
<path d="M120.455 39.2266H111.923V44.3397L115.809 48.2215H121.027" stroke="#162640" stroke-width="3.01193" stroke-linecap="round" stroke-linejoin="round"/>
</svg>
