<svg width="197" height="28" viewBox="0 0 197 28" fill="none" xmlns="http://www.w3.org/2000/svg">
<path d="M39.9875 5.70098H38.3663C35.3941 5.70098 33.833 7.1923 33.833 9.39924C33.833 11.9046 34.9138 13.0677 37.1355 14.559L38.9667 15.7819L33.6829 23.6257H29.75L34.4935 16.6169C31.7615 14.6782 30.2303 12.7993 30.2303 9.60803C30.2303 5.6116 33.0224 2.89746 38.3363 2.89746H43.6201V23.6257H39.9875V5.70098Z" fill="black"/>
<path d="M69.4987 20.8216H64.455C65.4457 18.5549 65.716 14.4689 65.716 11.8741V11.4268H69.4987V20.8216ZM73.0713 8.62325H62.6537V9.90578C62.6537 13.5741 62.4135 18.3163 61.1526 20.8216H60.0418V27.0551H63.3442V23.6252H71.3601V27.0551H74.6625V20.8216H73.0713V8.62325Z" fill="black"/>
<path d="M54.9681 14.5584H50.1946V8.62325H46.6221V23.6251H50.1946V17.3619H54.9681V23.6251H58.5407V8.62325H54.9681V14.5584Z" fill="black"/>
<path d="M110.268 11.1286C111.649 11.1286 113 11.6058 113.721 12.0531V9.04083C112.97 8.62325 111.649 8.32509 109.878 8.32509C105.315 8.32509 102.943 11.576 102.943 16.1391C102.943 21.1498 105.255 23.9235 110.028 23.9235C111.679 23.9235 112.85 23.6252 113.721 22.999V20.1058C112.82 20.7322 111.739 21.1199 110.238 21.1199C107.686 21.1199 106.636 19.1515 106.636 16.0497C106.636 12.7988 107.927 11.1286 110.268 11.1286Z" fill="black"/>
<path d="M102.463 8.62325H98.8601L93.8164 15.5426V8.62325H90.2438V23.6252H93.8164V16.2583L99.1002 23.6252H103.153L97.419 15.5426L102.463 8.62325Z" fill="black"/>
<path d="M84.2095 14.7672H79.2259C79.3159 12.3812 80.1865 11.1286 81.8978 11.1286C83.6691 11.1286 84.2095 12.59 84.2095 14.4689V14.7672ZM81.9579 8.32495C77.6047 8.32495 75.5333 11.6356 75.5333 16.1688C75.5333 21.3883 78.1151 23.9235 82.6784 23.9235C84.96 23.9235 86.6413 23.3269 87.692 22.611V19.7182C86.5812 20.4637 84.7199 21.1198 82.9786 21.1198C80.3668 21.1198 79.376 19.8972 79.2259 17.3918H87.8421V15.5128C87.8421 10.2934 85.5305 8.32495 81.9579 8.32495Z" fill="black"/>
<path fill-rule="evenodd" clip-rule="evenodd" d="M185.503 20.8242H183.855V16.0211H185.588C187.113 16.0211 188.008 16.7076 188.008 18.4366C188.008 20.1667 187.019 20.8242 185.503 20.8242ZM192.99 8.63196V23.6258H196.549V8.63196H192.99ZM180.305 8.63196V23.6258H185.711C189.204 23.6258 191.681 21.8399 191.681 18.3149C191.681 14.9775 189.468 13.2195 185.767 13.2195H183.855V8.63196H180.305ZM178.214 11.4336V8.63196H166.302V11.4336H170.483V23.6258H174.033V11.4336H178.214ZM158.966 21.1165C157.082 21.1165 156.122 19.603 156.122 16.1429C156.122 12.6558 157.139 11.1422 159.145 11.1422C161.085 11.1422 162.036 12.6558 162.036 16.1149C162.036 19.603 161.019 21.1165 158.966 21.1165ZM155.859 8.63196H152.571V27.941H156.122V21.8678C157.026 23.2028 158.335 23.9181 159.86 23.9181C163.316 23.9181 165.708 21.1534 165.708 16.1149C165.708 11.1043 163.382 8.34062 160.039 8.34062C158.363 8.34062 156.988 9.11187 156.037 10.5686L155.859 8.63196ZM146.159 20.045C145.706 20.7025 144.869 21.2382 143.616 21.2382C142.128 21.2382 141.375 20.4022 141.375 19.1231C141.375 17.4219 142.599 16.8014 145.65 16.8014H146.159V20.045ZM149.709 13.3981C149.709 9.76937 147.854 8.3965 144.096 8.3965C141.742 8.3965 139.887 9.1398 138.813 9.76937V12.7216C139.764 11.9973 141.855 11.227 143.682 11.227C145.377 11.227 146.159 11.8187 146.159 13.436V14.2631H145.584C140.15 14.2631 137.74 16.059 137.74 19.0951C137.74 22.1312 139.586 23.8333 142.336 23.8333C144.426 23.8333 145.32 23.1469 146.008 22.4325H146.159C146.187 22.8176 146.309 23.3255 146.423 23.6258H149.888C149.765 22.4046 149.709 21.1824 149.709 19.9602V13.3981ZM133.38 23.6258H137.59L130.216 12.7496L136.902 2.91598H133.229L126.807 12.4483V2.91598H123.2V23.6258H126.807V13.9059L133.38 23.6258Z" fill="black"/>
<path fill-rule="evenodd" clip-rule="evenodd" d="M11.2 0C5.01428 0 0 5.01419 0 11.1998C0 14.2916 1.25331 17.0913 3.27883 19.1178C5.30537 21.1453 10.0801 24.0794 10.3601 27.1601C10.4025 27.622 10.7371 28 11.2 28C11.6639 28 11.9985 27.622 12.0409 27.1601C12.3209 24.0794 17.0946 21.1453 19.1212 19.1178C21.1477 17.0913 22.4 14.2916 22.4 11.1998C22.4 5.01419 17.3857 0 11.2 0Z" fill="#FF4433"/>
<path fill-rule="evenodd" clip-rule="evenodd" d="M11.2314 15.163C13.4025 15.163 15.162 13.4025 15.162 11.2324C15.162 9.06135 13.4025 7.30078 11.2314 7.30078C9.06034 7.30078 7.30078 9.06135 7.30078 11.2324C7.30078 13.4025 9.06034 15.163 11.2314 15.163Z" fill="white"/>
</svg>
