<svg width="67" height="46" viewBox="0 0 67 46" fill="none" xmlns="http://www.w3.org/2000/svg">
<path d="M8.79492 0.815186C20.345 -0.405564 56.0296 -0.243479 60.1279 1.22144C61.2805 1.58903 62.3335 2.20856 63.208 3.03296C64.0827 3.85747 64.7559 4.86644 65.1777 5.98315C67.6201 12.2093 67.703 34.8333 64.8467 40.8152C64.089 42.3723 62.8204 43.6337 61.2451 44.3962C56.9395 46.5122 12.604 46.4715 6.89062 44.6404C5.69616 44.2845 4.60624 43.6515 3.71289 42.7947C2.81948 41.9377 2.14804 40.8818 1.75684 39.7166C-0.478552 33.6937 -1.14023 8.54618 3.16504 3.58179C4.59792 1.96699 6.62095 0.972983 8.79492 0.815186ZM25.2295 32.8396L45.9277 22.2595L25.2295 11.5984V32.8396Z" fill="#162640"/>
</svg>
