<svg width="51" height="51" viewBox="0 0 51 51" fill="none" xmlns="http://www.w3.org/2000/svg">
<rect width="51" height="51" rx="10" fill="#162640"/>
<path d="M26.7528 34.4242C17.1692 34.4242 11.7029 27.7238 11.4751 16.5742H16.2757C16.4333 24.7577 19.9724 28.2241 22.7757 28.9388V16.5742H27.2959V23.632C30.0641 23.3283 32.9725 20.1121 33.9536 16.5742H38.4739C38.1042 18.409 37.3672 20.1463 36.309 21.6774C35.2509 23.2085 33.8944 24.5004 32.3243 25.4724C34.0769 26.3606 35.6249 27.6176 36.8661 29.1607C38.1073 30.7038 39.0136 32.4977 39.5251 34.4242H34.5493C34.0902 32.7509 33.157 31.253 31.8667 30.1183C30.5764 28.9836 28.9864 28.2625 27.2959 28.0454V34.4242H26.7528Z" fill="white"/>
</svg>
