<svg width="51" height="51" viewBox="0 0 51 51" fill="none" xmlns="http://www.w3.org/2000/svg">
<g clip-path="url(#clip0_1289_4827)">
<rect width="51" height="51" rx="10" fill="#162640"/>
<path d="M38.2198 18.1728C37.3402 18.1728 36.4692 17.9996 35.6565 17.663C34.8438 17.3264 34.1054 16.833 33.4834 16.211C32.8614 15.589 32.368 14.8506 32.0314 14.0379C31.6948 13.2253 31.5215 12.3542 31.5215 11.4746H26.736V30.2138C26.7351 31.0682 26.4653 31.9006 25.9649 32.593C25.4645 33.2855 24.7588 33.8029 23.9479 34.0719C23.137 34.3409 22.262 34.3479 21.4469 34.0918C20.6318 33.8358 19.918 33.3297 19.4066 32.6452C18.8953 31.9608 18.6123 31.1328 18.5977 30.2786C18.5832 29.4244 18.8379 28.5872 19.3258 27.8858C19.8136 27.1844 20.5098 26.6544 21.3157 26.3708C22.1216 26.0872 22.9964 26.0644 23.8159 26.3057V21.6538C22.0742 21.419 20.3022 21.7211 18.7367 22.5198C17.1712 23.3185 15.8865 24.5758 15.0544 26.1238C14.2222 27.6719 13.8822 29.4369 14.0796 31.1833C14.277 32.9297 15.0024 34.5743 16.1591 35.8975C17.3158 37.2208 18.8487 38.1596 20.553 38.5887C22.2573 39.0178 24.052 38.9168 25.6974 38.2991C27.3428 37.6813 28.7605 36.5764 29.7614 35.1317C30.7622 33.687 31.2985 31.9713 31.2986 30.2138L31.4375 20.7416C33.4037 22.1851 35.7801 22.9618 38.2193 22.9582L38.2198 18.1728Z" fill="white"/>
</g>
<defs>
<clipPath id="clip0_1289_4827">
<rect width="51" height="51" fill="white"/>
</clipPath>
</defs>
</svg>
