<svg width="70" height="65" viewBox="0 0 70 65" fill="none" xmlns="http://www.w3.org/2000/svg">
<g clip-path="url(#clip0_1234_1082)">
<path d="M28.8034 14.0635H59.5851C60.9486 14.0635 62.0564 15.1691 62.0564 16.5298V44.2854C62.0564 45.6462 60.9486 46.7518 59.5851 46.7518H22.9842C21.6208 46.7518 20.5129 45.6462 20.5129 44.2854" stroke="white" stroke-width="2.42991" stroke-linecap="round" stroke-linejoin="round"/>
<path d="M26.5025 7.79395H65.8426C67.206 7.79395 68.3139 8.89955 68.3139 10.2603V50.5664C68.3139 51.9271 67.206 53.0327 65.8426 53.0327H16.7208C15.3573 53.0327 14.2495 51.9271 14.2495 50.5664V44.279" stroke="white" stroke-width="2.42991" stroke-linecap="round" stroke-linejoin="round"/>
<path d="M51.1793 63.2133C51.3558 63.2133 31.3906 63.4077 31.3906 63.2133C31.3906 57.7582 35.8219 53.3418 41.2819 53.3418C46.7419 53.3418 51.1732 57.7642 51.1732 63.2133H51.1793Z" stroke="white" stroke-width="2.42991" stroke-linecap="round" stroke-linejoin="round"/>
<path d="M39.8209 19.8271H28.8035V40.3659H39.8209V19.8271Z" stroke="white" stroke-width="2.42991" stroke-linecap="round" stroke-linejoin="round"/>
<path d="M28.4018 20.3446C28.4018 20.3446 22.954 14.1544 21.907 11.3782C20.8601 8.60205 21.5236 1.48242 17.4453 1.48242C13.367 1.48242 14.2557 15.0231 14.2557 15.0231C14.2557 15.0231 3.89574 14.203 2.38618 16.2866C0.876612 18.3703 1.72878 37.8217 1.72878 37.8217C1.72878 37.8217 1.03488 39.8446 7.46879 39.96C13.9027 40.0754 28.1036 40.367 28.1036 40.367" stroke="white" stroke-width="2.42991" stroke-linecap="round" stroke-linejoin="round"/>
<path d="M10.0801 21.25H1.96619" stroke="white" stroke-width="2.42991" stroke-linecap="round" stroke-linejoin="round"/>
<path d="M10.0801 27.749H1.96619" stroke="white" stroke-width="2.42991" stroke-linecap="round" stroke-linejoin="round"/>
<path d="M10.0801 34.0859H1.96619" stroke="white" stroke-width="2.42991" stroke-linecap="round" stroke-linejoin="round"/>
<path d="M34.2574 33.5029C34.486 33.5029 34.6713 33.318 34.6713 33.0898C34.6713 32.8617 34.486 32.6768 34.2574 32.6768C34.0288 32.6768 33.8435 32.8617 33.8435 33.0898C33.8435 33.318 34.0288 33.5029 34.2574 33.5029Z" stroke="white" stroke-width="2.42991" stroke-linecap="round" stroke-linejoin="round"/>
</g>
<defs>
<clipPath id="clip0_1234_1082">
<rect width="70" height="65" fill="white"/>
</clipPath>
</defs>
</svg>
