<svg width="59" height="59" viewBox="0 0 59 59" fill="none" xmlns="http://www.w3.org/2000/svg">
<path d="M55.2898 1.04492H2.79926C1.83016 1.04492 1.04456 1.81757 1.04456 2.77069V55.3192C1.04456 56.2723 1.83016 57.0449 2.79926 57.0449H55.2898C56.2589 57.0449 57.0445 56.2723 57.0445 55.3192V2.77069C57.0445 1.81757 56.2589 1.04492 55.2898 1.04492Z" stroke="white" stroke-width="2.08905" stroke-linecap="round" stroke-linejoin="round"/>
<path d="M1.63574 11.7441H57.0444" stroke="white" stroke-width="2.08905" stroke-linecap="round" stroke-linejoin="round"/>
<path d="M1.63574 46.2061H57.0444" stroke="white" stroke-width="2.08905" stroke-linecap="round" stroke-linejoin="round"/>
<path d="M11.6002 40.1391L40.0642 12.1445" stroke="white" stroke-width="2.08905" stroke-linecap="round" stroke-linejoin="round"/>
<path d="M17.7703 46.035L46.2671 18.0107" stroke="white" stroke-width="2.08905" stroke-linecap="round" stroke-linejoin="round"/>
<path d="M11.4277 11.9678V45.9151" stroke="white" stroke-width="2.08905" stroke-linecap="round" stroke-linejoin="round"/>
<path d="M23.2563 11.9678V28.6762" stroke="white" stroke-width="2.08905" stroke-linecap="round" stroke-linejoin="round"/>
<path d="M23.2563 40.8125V45.9144" stroke="white" stroke-width="2.08905" stroke-linecap="round" stroke-linejoin="round"/>
<path d="M34.9012 29.1846V46.2107" stroke="white" stroke-width="2.08905" stroke-linecap="round" stroke-linejoin="round"/>
<path d="M34.9012 12.1445V17.0768" stroke="white" stroke-width="2.08905" stroke-linecap="round" stroke-linejoin="round"/>
<path d="M46.2511 11.9678V45.9151" stroke="white" stroke-width="2.08905" stroke-linecap="round" stroke-linejoin="round"/>
<path d="M8.08257 52.7855C8.83094 52.7855 9.43761 52.1888 9.43761 51.4528C9.43761 50.7168 8.83094 50.1201 8.08257 50.1201C7.33421 50.1201 6.72754 50.7168 6.72754 51.4528C6.72754 52.1888 7.33421 52.7855 8.08257 52.7855Z" stroke="white" stroke-width="2.08905" stroke-linecap="round" stroke-linejoin="round"/>
<path d="M50.3185 52.7855C51.0669 52.7855 51.6736 52.1888 51.6736 51.4528C51.6736 50.7168 51.0669 50.1201 50.3185 50.1201C49.5702 50.1201 48.9635 50.7168 48.9635 51.4528C48.9635 52.1888 49.5702 52.7855 50.3185 52.7855Z" stroke="white" stroke-width="2.08905" stroke-linecap="round" stroke-linejoin="round"/>
<path d="M8.08257 7.8148C8.83094 7.8148 9.43761 7.21813 9.43761 6.48211C9.43761 5.74608 8.83094 5.14941 8.08257 5.14941C7.33421 5.14941 6.72754 5.74608 6.72754 6.48211C6.72754 7.21813 7.33421 7.8148 8.08257 7.8148Z" stroke="white" stroke-width="2.08905" stroke-linecap="round" stroke-linejoin="round"/>
<path d="M50.3185 7.8148C51.0669 7.8148 51.6736 7.21813 51.6736 6.48211C51.6736 5.74608 51.0669 5.14941 50.3185 5.14941C49.5702 5.14941 48.9635 5.74608 48.9635 6.48211C48.9635 7.21813 49.5702 7.8148 50.3185 7.8148Z" stroke="white" stroke-width="2.08905" stroke-linecap="round" stroke-linejoin="round"/>
</svg>
