<svg width="51" height="66" viewBox="0 0 51 66" fill="none" xmlns="http://www.w3.org/2000/svg">
<g clip-path="url(#clip0_1234_1073)">
<path d="M19.5925 59.563H4.21356C2.82927 59.563 1.70605 58.4428 1.70605 57.0623V11.6555C1.70605 10.3294 2.23427 9.05181 3.17534 8.11328L8.25105 3.05126C9.19213 2.11273 10.4671 1.58594 11.8028 1.58594H38.7782C41.5528 1.58594 43.7993 3.8263 43.7993 6.59346V31.2678" stroke="white" stroke-width="2.42202" stroke-linecap="round" stroke-linejoin="round"/>
<path d="M3.06006 11.6556H11.1533V2.54883" stroke="white" stroke-width="2.42202" stroke-linecap="round" stroke-linejoin="round"/>
<path d="M9.18604 16.9648H36.635" stroke="white" stroke-width="2.42202" stroke-linecap="round" stroke-linejoin="round"/>
<path d="M9.18604 22.2715H36.635" stroke="white" stroke-width="2.42202" stroke-linecap="round" stroke-linejoin="round"/>
<path d="M9.18604 27.5742H17.7467" stroke="white" stroke-width="2.42202" stroke-linecap="round" stroke-linejoin="round"/>
<path d="M22.7557 27.5742H30.2357" stroke="white" stroke-width="2.42202" stroke-linecap="round" stroke-linejoin="round"/>
<path d="M24.9352 36.9117C27.3699 36.4152 31.4499 35.3374 34.0727 33.3029C35.0259 32.5642 36.3738 32.5279 37.2784 33.3271C39.8345 35.5736 44.4974 36.5787 47.2781 36.9965C48.5592 37.1903 49.4942 38.3165 49.4213 39.6062L48.5409 54.7983C48.4984 55.5915 48.0795 56.3121 47.4177 56.7541L37.3877 64.2745C36.5013 64.8618 35.3356 64.8255 34.4856 64.1837L23.9152 56.2394C23.2838 55.7671 22.9135 55.0224 22.9135 54.2352V39.3761C22.9135 38.1772 23.7574 37.1539 24.9352 36.9178V36.9117Z" stroke="white" stroke-width="2.42202" stroke-linecap="round" stroke-linejoin="round"/>
<path d="M29.0033 47.4888L34.7469 53.2169L43.5322 44.4492" stroke="white" stroke-width="2.42202" stroke-linecap="round" stroke-linejoin="round"/>
</g>
<defs>
<clipPath id="clip0_1234_1073">
<rect width="51" height="66" fill="white"/>
</clipPath>
</defs>
</svg>
