<svg xmlns="http://www.w3.org/2000/svg">
	<symbol viewBox="0 0 24 24" fill="none" id="cart">
		<path d="M8.81043 2L5.19043 5.63" stroke="currentColor" stroke-width="1.5" stroke-miterlimit="10" stroke-linecap="round" stroke-linejoin="round"/><path d="M15.1904 2L18.8104 5.63" stroke="currentColor" stroke-width="1.5" stroke-miterlimit="10" stroke-linecap="round" stroke-linejoin="round"/><path d="M2 7.84961C2 5.99961 2.99 5.84961 4.22 5.84961H19.78C21.01 5.84961 22 5.99961 22 7.84961C22 9.99961 21.01 9.84961 19.78 9.84961H4.22C2.99 9.84961 2 9.99961 2 7.84961Z" stroke="currentColor" stroke-width="1.5"/><path d="M9.76001 14V17.55" stroke="currentColor" stroke-width="1.5" stroke-linecap="round"/><path d="M14.3604 14V17.55" stroke="currentColor" stroke-width="1.5" stroke-linecap="round"/><path d="M3.5 10L4.91 18.64C5.23 20.58 6 22 8.86 22H14.89C18 22 18.46 20.64 18.82 18.76L20.5 10" stroke="currentColor" stroke-width="1.5" stroke-linecap="round"/>
	</symbol>
	<symbol viewBox="0 0 51 51" fill="none" id="tg">
		<path d="M35.7001 16.0679L31.8682 36.0727C31.8682 36.0727 31.332 37.4597 29.8592 36.7945L21.0179 29.7746L20.9769 29.7539C22.1712 28.6434 31.4319 20.0209 31.8366 19.6301C32.4632 19.0248 32.0742 18.6644 31.3468 19.1217L17.6675 28.1176L12.3901 26.2788C12.3901 26.2788 11.5596 25.9729 11.4797 25.3077C11.3987 24.6414 12.4174 24.281 12.4174 24.281L33.9318 15.541C33.9318 15.541 35.7001 14.7364 35.7001 16.0679Z" fill="currentColor"/>
	</symbol>
	<symbol viewBox="0 0 51 51" fill="none" id="wts">
		<path d="M35.6067 15.3798C33.0878 12.8696 29.7293 11.4751 26.1841 11.4751C18.814 11.4751 12.8433 17.4251 12.8433 24.7696C12.8433 27.0938 13.4963 29.4181 14.6159 31.3704L12.75 38.2501L19.8402 36.3907C21.7994 37.4134 23.9451 37.9712 26.1841 37.9712C33.5543 37.9712 39.525 32.0212 39.525 24.6767C39.4317 21.2368 38.1256 17.8899 35.6067 15.3798ZM32.6213 29.511C32.3415 30.2548 31.0354 30.9985 30.3823 31.0915C29.8226 31.1845 29.0762 31.1845 28.3299 30.9985C27.8634 30.8126 27.2104 30.6267 26.464 30.2548C23.1055 28.8603 20.9598 25.5134 20.7732 25.2345C20.5866 25.0485 19.3738 23.4681 19.3738 21.7946C19.3738 20.1212 20.2134 19.3774 20.4933 19.0056C20.7732 18.6337 21.1463 18.6337 21.4262 18.6337C21.6128 18.6337 21.8927 18.6337 22.0793 18.6337C22.2658 18.6337 22.5457 18.5407 22.8256 19.1915C23.1055 19.8423 23.7585 21.5157 23.8518 21.6087C23.9451 21.7946 23.9451 21.9806 23.8518 22.1665C23.7585 22.3524 23.6652 22.5384 23.4787 22.7243C23.2921 22.9103 23.1055 23.1892 23.0122 23.2821C22.8256 23.4681 22.639 23.654 22.8256 23.9329C23.0122 24.3048 23.6652 25.3274 24.6915 26.2571C25.9976 27.3728 27.0238 27.7446 27.397 27.9306C27.7701 28.1165 27.9567 28.0235 28.1433 27.8376C28.3299 27.6517 28.9829 26.9079 29.1695 26.536C29.3561 26.1642 29.636 26.2571 29.9158 26.3501C30.1957 26.4431 31.875 27.2798 32.1549 27.4657C32.528 27.6517 32.7146 27.7446 32.8079 27.8376C32.9012 28.1165 32.9012 28.7673 32.6213 29.511Z" fill="currentColor"/>
	</symbol>
	<symbol viewBox="0 0 51 51" fill="none" id="vk">
		<path d="M26.7528 34.425C17.1692 34.425 11.7029 27.7245 11.4751 16.575H16.2757C16.4333 24.7584 19.9724 28.2248 22.7757 28.9395V16.575H27.2959V23.6328C30.0641 23.329 32.9725 20.1128 33.9536 16.575H38.4739C38.1042 18.4098 37.3672 20.1471 36.309 21.6781C35.2509 23.2092 33.8944 24.5012 32.3243 25.4731C34.0769 26.3613 35.6249 27.6184 36.8661 29.1614C38.1073 30.7045 39.0136 32.4985 39.5251 34.425H34.5493C34.0902 32.7517 33.157 31.2538 31.8667 30.1191C30.5764 28.9843 28.9864 28.2632 27.2959 28.0461V34.425H26.7528Z" fill="currentColor"/>
	</symbol>
	<symbol viewBox="0 0 67 46" fill="none" id="yt">
		<path d="M8.79492 0.815186C20.345 -0.405564 56.0296 -0.243479 60.1279 1.22144C61.2805 1.58903 62.3335 2.20856 63.208 3.03296C64.0827 3.85747 64.7559 4.86644 65.1777 5.98315C67.6201 12.2093 67.703 34.8333 64.8467 40.8152C64.089 42.3723 62.8204 43.6337 61.2451 44.3962C56.9395 46.5122 12.604 46.4715 6.89062 44.6404C5.69616 44.2845 4.60624 43.6515 3.71289 42.7947C2.81948 41.9377 2.14804 40.8818 1.75684 39.7166C-0.478552 33.6937 -1.14023 8.54618 3.16504 3.58179C4.59792 1.96699 6.62095 0.972983 8.79492 0.815186ZM25.2295 32.8396L45.9277 22.2595L25.2295 11.5984V32.8396Z" fill="currentColor"/>
	</symbol>
	<symbol viewBox="0 0 30 30" fill="none" id="menu">
		<path d="M3 7H27" stroke="currentColor" stroke-width="3" stroke-linecap="round"/><path d="M3 15H27" stroke="currentColor" stroke-width="3" stroke-linecap="round"/><path d="M3 23H27" stroke="currentColor" stroke-width="3" stroke-linecap="round"/>
	</symbol>
	<symbol viewBox="0 0 23 23" fill="none" id="close">
		<path d="M1.5 21.5L21.5 1.5" stroke="currentColor" stroke-width="3" stroke-linecap="round"/><path d="M21.5 21.5L1.50001 1.5" stroke="currentColor" stroke-width="3" stroke-linecap="round"/>
	</symbol>
	<symbol viewBox="0 0 58 58" fill="none" id="slider-nav">
		<path d="M17 29L35 18.6077L35 39.3923L17 29Z" fill="white"/>
	</symbol>
	<symbol viewBox="0 0 15 9" fill="none" id="down">
		<path d="M13.0872 0.5L1.08716 0.5L7.08716 7.5L13.0872 0.5Z" stroke="currentColor"/>
	</symbol>
	<symbol viewBox="0 0 13 7" fill="none" id="down-fill">
		<path d="M1.04904e-05 7L12.2854 7L6.14271 -6.01743e-08L1.04904e-05 7Z" fill="#162640"/>
	</symbol>
	<symbol viewBox="0 0 21 20" fill="none" id="trash">
		<path d="M17.9166 4.96176C15.0756 4.68793 12.2175 4.54688 9.36797 4.54688C7.67873 4.54688 5.98949 4.62985 4.30024 4.7958L2.55981 4.96176" stroke="currentColor" stroke-linecap="round" stroke-linejoin="round"/><path d="M7.25171 4.12455L7.4394 3.03756C7.57591 2.24929 7.67828 1.66016 9.12011 1.66016H11.3554C12.7972 1.66016 12.9081 2.28248 13.0361 3.04586L13.2238 4.12455" stroke="currentColor" stroke-linecap="round" stroke-linejoin="round"/><path d="M16.0817 7.58594L15.5272 15.9416C15.4333 17.2444 15.3566 18.2567 12.9763 18.2567H7.49903C5.11873 18.2567 5.04195 17.2444 4.9481 15.9416L4.39355 7.58594" stroke="currentColor" stroke-linecap="round" stroke-linejoin="round"/><path d="M8.81299 13.6914H11.654" stroke="currentColor" stroke-linecap="round" stroke-linejoin="round"/><path d="M8.10522 10.373H12.371" stroke="currentColor" stroke-linecap="round" stroke-linejoin="round"/>
	</symbol>
</svg>