<svg width="90" height="126" viewBox="0 0 90 126" fill="none" xmlns="http://www.w3.org/2000/svg">
<path d="M43.6621 1C52.1366 1 59.617 2.31172 66.082 4.96289L66.6855 5.21094C72.8756 7.80991 77.7518 11.6209 81.2734 16.6553C84.9846 21.8285 86.8105 28.2037 86.8105 35.7188C86.8105 39.9342 85.8255 43.9049 83.8574 47.6162C81.8967 51.3135 79.1561 54.5522 75.6523 57.333C73.9479 58.6857 72.1007 59.8965 70.1143 60.9688C72.7886 62.089 75.2215 63.4524 77.4072 65.0664C81.0436 67.7517 83.8492 71.0889 85.8125 75.0693C87.7837 79.0117 88.7559 83.5191 88.7559 88.5664C88.7559 94.2152 87.6193 99.2924 85.3223 103.774C83.035 108.237 79.8265 112.002 75.708 115.063C71.6037 118.114 66.8199 120.433 61.3701 122.029L61.3613 122.031C55.9127 123.572 50.0108 124.339 43.6621 124.339C38.6558 124.339 33.6529 123.678 28.6553 122.36L28.6455 122.357C23.6265 120.979 19.0399 118.881 14.8926 116.061L14.8857 116.056C10.7098 113.16 7.33896 109.482 4.78027 105.032L4.77734 105.026L4.77344 105.02C2.24373 100.466 1 95.0773 1 88.8906V87.8906H30.3965V88.8906C30.3965 91.175 31.0118 93.2461 32.2451 95.1289C33.5498 96.9838 35.2839 98.4719 37.4707 99.5908C39.6482 100.705 42.0045 101.265 44.5537 101.265C47.783 101.265 50.4484 100.666 52.5928 99.5186C54.8192 98.3026 56.4861 96.7004 57.6279 94.7148C58.7781 92.7145 59.3594 90.4831 59.3594 87.999C59.3594 84.0989 58.6985 81.1019 57.4639 78.9287L57.459 78.9209L57.4551 78.9131C56.2682 76.7373 54.5233 75.1613 52.1865 74.167L52.1797 74.1641C49.8511 73.1516 46.9951 72.626 43.5811 72.626H29.2881V50.2812H43.5811C46.8736 50.2812 49.473 49.7059 51.4404 48.626C53.4813 47.4811 54.982 45.9034 55.9707 43.8809C56.9747 41.7724 57.4951 39.2503 57.4951 36.2861C57.4951 34.058 57.0153 32.0275 56.0654 30.1777L56.0557 30.1582C55.1761 28.3502 53.8082 26.8997 51.915 25.8037L51.9062 25.7988L51.8984 25.7939C50.0445 24.6718 47.6176 24.0742 44.5537 24.0742C42.5387 24.0742 40.5699 24.5017 38.6396 25.3652L38.6299 25.3691L38.6191 25.374C36.7085 26.1786 35.142 27.3254 33.9004 28.8125C32.766 30.2338 32.1797 31.976 32.1797 34.0977V35.0977H2.7832V34.0977C2.7832 27.2027 4.67857 21.2532 8.50391 16.3027L8.50488 16.3018C12.2271 11.5007 17.0672 7.80665 23.001 5.21582L23.5791 4.96875C29.8149 2.32059 36.5126 1 43.6621 1Z" stroke="white" stroke-width="2"/>
</svg>
