<svg width="89" height="124" viewBox="0 0 89 124" fill="none" xmlns="http://www.w3.org/2000/svg">
<path d="M44.0674 1C52.8644 1 60.3117 2.36491 66.3691 5.14355C72.4248 7.92136 77.0182 11.9702 80.1035 17.2939H80.1045C83.2407 22.5584 84.7842 28.877 84.7842 36.2051C84.7842 40.4191 84.1187 44.4736 82.7852 48.3633C81.4587 52.2321 79.5556 56.0617 77.084 59.8516L77.0801 59.8574C74.6163 63.5805 71.612 67.4023 68.0723 71.3232C64.6052 75.2234 60.6562 79.3627 56.2256 83.7402L42.4473 99.6436H87.7832V122.718H3.43164V103.486L3.70703 103.196L41.626 63.332C44.9523 59.5219 47.6228 56.1294 49.6436 53.1514C51.6668 50.1156 53.1077 47.4057 53.9902 45.0176L53.9941 45.0088L53.9971 45C54.9386 42.5938 55.3877 40.4773 55.3877 38.6367C55.3877 35.3255 54.8873 32.6398 53.9365 30.5381L53.9307 30.5254L53.9248 30.5117C53.0244 28.3611 51.6961 26.7785 49.9492 25.7109L49.9385 25.7041C48.2431 24.6384 46.0888 24.0742 43.4189 24.0742C40.8162 24.0742 38.5746 24.8202 36.6523 26.2988C34.701 27.8 33.1511 29.8675 32.0195 32.542C30.9439 35.2118 30.3965 38.238 30.3965 41.6357V42.6357H1V41.6357C1 34.2252 2.7995 27.4302 6.40527 21.2725L6.40918 21.2666C10.0674 15.1141 15.1392 10.2108 21.6045 6.5625C28.0985 2.84374 35.5966 1 44.0674 1Z" stroke="white" stroke-width="2"/>
</svg>
